<svg width="380" height="160" viewBox="0 0 380 160" fill="none" xmlns="http://www.w3.org/2000/svg">
<mask id="mask0_447_3197" style="mask-type:alpha" maskUnits="userSpaceOnUse" x="0" y="0" width="380" height="160">
<rect width="380" height="160" rx="10" fill="#202020"/>
</mask>
<g mask="url(#mask0_447_3197)">
<g clip-path="url(#clip0_447_3197)">
<path d="M-35.1426 28.4333C-28.3455 19.6976 -18.5987 15.5871 -11.1494 7.73695C-6.85338 3.20757 -5.29173 0.987751 0.494155 -0.867083C9.81619 -3.85277 6.74674 -2.2971 14.9678 -9.59078C23.2607 -16.9503 32.2417 -11.6191 42.5271 -12.1457C47.4454 -12.397 51.0713 -15.4844 55.3254 -16.0348C61.2549 -16.8067 65.2099 -14.4313 70.7923 -13.0492C75.1003 -11.9841 79.1929 -11.1524 83.6804 -11.5174C87.8867 -11.8585 92.5477 -15.0536 96.5087 -14.9997C106.118 -14.8561 118.779 -5.12123 126.617 -0.328583C135.526 5.12223 140.642 7.35402 150.448 9.8012C160.925 12.4159 168.117 21.9055 176.733 28.2239" stroke="#111212" stroke-width="0.4" stroke-linecap="round" stroke-linejoin="round"/>
<path d="M-36.3926 29.9526C-29.1468 21.0972 -19.352 17.2081 -11.454 9.36991C-6.99646 4.94225 -5.2194 1.85485 0.638281 -0.161535C9.8227 -3.32074 7.24388 -1.68729 15.6564 -8.49034C24.1767 -15.3831 31.3388 -8.8972 41.5822 -9.4716C47.2903 -9.7947 52.1847 -13.3727 57.474 -13.9412C62.0811 -14.4378 66.4908 -12.2239 70.7989 -11.0572C75.1069 -9.89044 79.5704 -8.48435 84.1237 -9.06474C89.766 -9.78274 92.2012 -14.1805 97.3768 -14.372C106.112 -14.701 118.606 -3.2609 125.941 1.1548C130.124 3.6678 133.857 6.61758 138.488 8.38267C142.671 9.98022 146.763 9.13657 150.682 10.1896C160.848 12.936 169.979 23.1017 177.996 29.6414" stroke="#111212" stroke-width="0.4" stroke-linecap="round" stroke-linejoin="round"/>
<path d="M-37.625 31.3769C-30.2176 22.5515 -20.6981 19.2966 -12.3394 11.985C-7.63054 7.86245 -6.18258 2.99202 -0.0975318 0.754251C7.2859 -1.96218 8.6501 0.981618 15.0942 -5.55218C20.904 -11.4458 19.6056 -11.9005 28.084 -9.30972C32.2603 -8.03527 36.8077 -6.21035 41.2892 -6.56337C46.7639 -6.99417 51.9335 -10.8534 57.3365 -11.4398C62.1591 -11.9603 66.2397 -10.2371 70.793 -8.96268C74.9933 -7.78397 79.792 -5.92315 84.2495 -6.6232C89.6345 -7.47283 92.3151 -12.9895 97.6343 -13.4143C106.352 -14.1143 118.767 -1.07066 126.498 3.40487C130.602 5.78025 134.593 8.24539 139.183 9.60959C143.215 10.8063 147.978 9.37025 151.52 10.4413C160.585 13.1816 172.366 24.7414 179.217 31.018" stroke="#111212" stroke-width="0.4" stroke-linecap="round" stroke-linejoin="round"/>
<path d="M-38.8457 32.7295C-33.9154 28.8403 -30.3733 24.3289 -25.1858 20.7449C-21.3684 18.1062 -16.8689 16.5625 -13.2251 13.6008C-8.75552 9.9689 -6.46988 4.189 -0.839562 1.92131C5.46687 -0.61562 8.62009 1.84353 14.5197 -2.96109C20.856 -8.11872 18.5105 -10.5839 27.6531 -7.45457C31.8294 -6.02456 36.305 -2.84142 40.9959 -3.30214C46.2792 -3.82269 51.5804 -8.30421 57.2107 -8.93246C62.2427 -9.49489 65.9763 -8.25036 70.8049 -6.85026C74.9334 -5.65359 80.0013 -3.36796 84.399 -4.13981C89.4549 -5.02534 92.6381 -11.6369 97.9213 -12.325C106.352 -13.4259 118.773 0.993896 127.09 5.43951C131.183 7.62941 135.359 9.68768 139.918 10.6869C143.849 11.5545 148.66 10.5074 152.4 11.7699C160.92 14.6479 174.352 25.9623 180.455 32.3585" stroke="#111212" stroke-width="0.4" stroke-linecap="round" stroke-linejoin="round"/>
<path d="M-40.0547 34.0209C-31.8396 28.9171 -24.0912 21.9645 -15.9778 16.406C-10.497 12.6484 -6.57795 5.91121 -0.594613 3.04519C3.48602 1.09462 8.42228 2.05794 12.6585 -0.173845C19.653 -3.86556 18.3067 -7.95218 26.2047 -6.28881C32.4513 -4.97248 33.4266 -0.401211 39.9963 -0.969628C44.9086 -1.39444 49.079 -5.06223 53.9435 -6.1153C60.9978 -7.64703 64.0015 -6.51618 70.7925 -4.70323C76.0399 -3.30313 79.4205 -1.44231 84.8354 -2.92618C89.5922 -4.23055 93.7925 -10.5549 98.8065 -10.7703C108.212 -11.1772 117.762 2.37506 126.24 6.62921C135.676 11.362 146.075 10.1594 155.032 14.3896C163.702 18.4882 174.801 27.1042 181.64 33.7098" stroke="#111212" stroke-width="0.4" stroke-linecap="round" stroke-linejoin="round"/>
<path d="M-41.2402 35.2586C-32.726 30.777 -25.1152 23.1363 -16.8462 17.859C-11.3236 14.3408 -6.66853 7.8489 -1.28353 4.71364C2.59965 2.45194 7.95474 3.40927 12.1072 1.76984C16.3793 0.082535 20.4838 -6.27775 25.7911 -4.83577C33.4737 -2.7416 31.8522 3.0024 39.7143 2.05105C44.5009 1.47067 48.9107 -2.91512 53.7931 -4.02203C60.7457 -5.60762 64.1562 -4.48275 70.7977 -2.60996C76.5058 -1.00045 79.2522 0.860369 84.9722 -0.874798C89.705 -2.3108 93.8216 -8.00693 99.0749 -8.36593C106.488 -8.86853 107.404 -5.6854 113.028 -0.761114C117.318 2.99642 121.548 6.05989 126.772 8.3874C136.417 12.6775 146.942 10.9602 155.875 15.9384C165.005 21.0302 174.938 28.2222 182.83 35.0372" stroke="#111212" stroke-width="0.4" stroke-linecap="round" stroke-linejoin="round"/>
<path d="M-42.418 36.4749C-33.4908 32.1908 -26.2749 24.4723 -17.7068 19.3446C-11.4422 15.5991 -7.70266 10.609 -1.97063 6.76766C2.05616 4.06917 7.12404 4.88291 11.5637 3.64436C14.2861 2.88447 22.932 -4.18783 25.3792 -3.58351C27.3537 0.02444 30.1599 2.54342 33.7918 3.97942C35.5987 5.79238 37.4775 5.88811 39.434 4.26662C44.3583 3.63239 48.7262 -0.645693 53.6385 -1.87228C61.0758 -3.72711 63.6725 -2.48856 70.7927 -0.573893C76.6504 0.99374 78.9181 2.60924 85.0929 0.628757C89.7718 -0.87306 94.1277 -5.60588 99.3272 -5.82726C110.115 -6.28798 116.99 6.03171 127.293 9.99866C137.441 13.9058 147.499 11.8655 156.707 17.5676C166.029 23.3415 175.345 29.6778 184.009 36.3792" stroke="#111212" stroke-width="0.4" stroke-linecap="round" stroke-linejoin="round"/>
<path d="M-43.5723 37.6707C-24.1922 28.7076 -10.1254 9.29769 11.0257 5.48631C14.837 4.79822 21.9153 -0.658577 24.9788 -0.520961C26.9234 3.12289 29.7535 5.37861 33.4692 6.24021C35.3599 7.58047 37.2566 7.59244 39.1653 6.27611C44.2212 5.55212 48.5591 1.63902 53.4954 0.298755C61.4293 -1.84926 63.2123 -0.592761 70.7992 1.34584C76.9141 2.90749 78.4758 4.42127 85.225 2.18949C89.88 0.645789 94.4513 -3.08183 99.585 -3.19551C110.744 -3.43484 117.284 7.98136 127.808 11.4696C138.399 14.9819 147.87 13.121 157.534 19.254C166.909 25.2014 176.148 31.2745 185.177 37.7185" stroke="#111212" stroke-width="0.4" stroke-linecap="round" stroke-linejoin="round"/>
<path d="M-44.7148 38.8622C-26.0169 30.6411 -10.0534 9.35842 10.4814 7.33605C14.4304 6.94714 20.9642 3.9435 24.5662 4.3025C30.9205 4.93674 32.0394 9.13704 38.8783 8.08995C44.024 7.30614 48.3858 3.91957 53.34 2.4716C61.7945 0.000484959 62.7638 1.11937 70.7994 3.10584C77.2734 4.70937 77.9315 6.25905 85.3509 3.82383C90.0059 2.29808 94.7746 -0.508099 99.8365 -0.490149C110.966 -0.442282 117.87 9.78922 128.323 12.8467C139.536 16.1256 148.056 14.4024 158.348 21.008C167.711 27.0152 177.135 32.7951 186.308 39.1016" stroke="#111212" stroke-width="0.4" stroke-linecap="round" stroke-linejoin="round"/>
<path d="M-45.8398 40.0639C-36.2904 35.9295 -28.8771 29.7247 -20.2192 24.1483C-11.2143 18.3504 -0.480186 9.64466 9.96073 9.25575C14.6277 9.08223 19.5041 8.93863 24.1711 8.90871C29.3048 8.8788 33.7086 10.0156 38.6089 9.68655C43.8144 9.33951 48.266 6.02475 53.1903 4.61866C61.2678 2.30311 62.9491 3.03906 70.7933 4.63063C76.8364 5.85721 78.6973 7.20346 85.4644 5.51018C90.2032 4.32548 95.0437 1.93215 100.076 2.28516C110.337 3.00316 118.845 11.5653 128.814 14.1561C134.594 15.6579 140.002 14.4433 145.567 15.5682C150.581 16.5793 154.955 20.1514 159.137 22.8259C168.531 28.8392 178.122 34.3319 187.432 40.5187" stroke="#111212" stroke-width="0.4" stroke-linecap="round" stroke-linejoin="round"/>
<path d="M-46.9531 41.2903C-37.2601 37.0063 -29.757 31.7828 -21.0333 25.9311C-12.4951 20.1991 -0.809646 11.248 9.44579 11.266C13.7418 11.2719 19.5995 14.4012 23.7819 13.3362C26.3128 9.91372 29.2147 8.98032 32.4996 10.542C34.3903 11.3497 36.3409 11.5173 38.3453 11.0565C50.1863 10.4642 58.3954 3.93039 70.7929 5.84505C76.489 6.7246 79.2174 8.32216 85.5837 7.2272C90.4422 6.39552 95.2767 4.49881 100.315 5.09116C110.295 6.26389 119.449 13.1328 129.298 15.4124C134.839 16.6988 140.81 15.6158 146.207 16.9202C151.227 18.1348 155.666 22.0001 159.915 24.6746C169.38 30.634 179.103 35.8634 188.539 41.9605" stroke="#111212" stroke-width="0.4" stroke-linecap="round" stroke-linejoin="round"/>
<path d="M-48.043 42.5535C-38.4158 38.06 -30.5956 33.8238 -21.824 27.8105C-13.4892 22.0905 -1.28321 13.1693 8.94829 13.3727C13.2443 13.4625 19.3772 18.1235 23.41 17.2021C25.7854 14.3241 28.7172 12.7983 32.1995 12.6129C34.1321 12.0624 36.1007 11.9248 38.0931 12.2C48.9229 10.7221 59.5134 5.63629 70.798 6.73125C76.1292 7.24581 79.6474 9.52546 85.7085 8.95705C90.7285 8.49035 95.4733 7.23384 100.553 7.91595C110.497 9.24425 119.969 14.6651 129.782 16.6696C135.364 17.8124 141.371 16.8491 146.846 18.4227C151.878 19.8647 156.312 23.8974 160.686 26.56C170.259 32.3938 180.125 37.4377 189.633 43.457" stroke="#111212" stroke-width="0.4" stroke-linecap="round" stroke-linejoin="round"/>
<path d="M-49.1191 43.8696C-38.8936 38.6641 -30.1699 35.0861 -20.5547 28.4386C-12.2319 22.6886 -0.552426 14.7009 9.85857 15.5685C15.5487 16.0412 18.2352 20.0739 24.1348 18.6918C27.4137 17.3754 30.2976 15.4189 32.7927 12.8281C34.7253 13.0794 36.6639 13.3367 38.5965 13.588C49.0614 11.6913 60.0109 8.04742 70.7988 9.06459C80.1986 9.95012 90.855 8.9509 100.087 10.7878C110.612 12.882 121.017 16.448 131.733 18.2191C143.365 20.1397 148.965 21.133 159.46 27.2719C169.835 33.345 180.473 38.6223 190.717 45.0184" stroke="#111212" stroke-width="0.4" stroke-linecap="round" stroke-linejoin="round"/>
<path d="M-50.1836 45.2521C-40.2333 39.6398 -30.8873 37.3123 -21.32 30.4494C-12.7519 24.3045 -1.75449 16.7356 9.36852 17.7827C14.8732 18.2972 17.5896 22.1146 23.7644 20.7085C29.0776 19.4939 32.7873 15.5928 38.3398 14.438C48.32 12.3677 60.52 10.8121 70.7934 11.2249C91.7411 12.0566 111.462 16.592 132.218 19.5597C144.101 21.259 149.57 23.3292 160.19 29.2707C170.739 35.1702 181.437 40.2321 191.77 46.6582" stroke="#111212" stroke-width="0.4" stroke-linecap="round" stroke-linejoin="round"/>
<path d="M-51.2246 46.7123C-41.765 40.723 -31.5035 39.2989 -22.0559 32.5497C-12.8834 25.998 -3.02885 18.9496 8.9079 20.0864C14.4126 20.607 16.8179 24.1013 23.4175 22.4858C28.8444 21.1575 32.8771 16.4905 38.1066 15.1203C41.6487 14.1929 51.9041 14.3903 55.901 14.0612C60.921 13.6484 65.7915 14.0313 70.7995 13.9356C91.9147 13.5167 111.761 18.3932 132.691 21.0378C144.718 22.5576 150.204 25.5732 160.909 31.2872C171.667 37.0312 182.383 41.8718 192.818 48.3756" stroke="#111212" stroke-width="0.4" stroke-linecap="round" stroke-linejoin="round"/>
<path d="M-52.2539 48.2607C-43.596 42.032 -32.5089 41.4576 -23.4741 35.229C-14.1401 28.7909 -5.14113 20.7792 6.99905 22.1434C14.3705 22.9691 16.1715 25.901 24.1413 23.9923C29.4485 22.7238 33.3915 18.8646 38.621 17.5303C49.0739 14.8617 60.2148 17.3149 70.7993 17.0038C75.7835 16.8602 80.259 15.2746 85.4585 15.6515C90.5025 16.0165 95.1695 17.9013 100.07 18.5774C111.51 20.157 123.094 21.4374 134.594 22.8196C146.231 24.2197 151.903 28.5516 162.362 33.6973C173.21 39.0344 183.519 43.6775 193.847 50.1813" stroke="#111212" stroke-width="0.4" stroke-linecap="round" stroke-linejoin="round"/>
<path d="M-53.2598 49.9256C-45.0686 43.2242 -33.1378 43.2302 -24.1867 37.4204C-13.68 30.6054 -6.46411 23.1681 6.54366 24.4844C12.9638 25.1366 17.1581 26.806 23.8116 25.5016C29.1786 24.4485 33.3251 20.6611 38.3929 19.2131C48.8877 16.2095 59.933 20.4517 70.7927 19.9072C76.088 19.6439 80.378 17.095 85.5536 17.2446C90.6813 17.3942 95.3722 20.7269 100.267 21.2534C111.611 22.4621 123.434 23.3656 135.048 24.6939C146.602 26.0162 152.471 30.8387 163.05 35.6434C174.245 40.7292 184.38 45.3783 194.851 52.0856" stroke="#111212" stroke-width="0.4" stroke-linecap="round" stroke-linejoin="round"/>
<path d="M-54.2539 51.5457C-45.9431 44.3179 -33.4798 44.6829 -24.1877 39.0047C-19.3172 36.031 -14.9554 32.1538 -9.93535 29.3954C-1.43902 24.7284 -1.22362 26.2542 7.55991 26.9423C18.9881 27.8338 26.9519 25.9131 37.4108 21.8265C48.9765 17.3091 58.9328 23.2206 70.7858 22.6462C76.0212 22.389 80.8438 19.0802 85.9954 18.9844C90.8599 18.8947 96.4124 21.8325 101.145 22.3231C112.005 23.442 122.966 25.8413 134.018 26.7628C139.654 27.2295 142.939 26.5414 148.623 29.2279C153.571 31.5674 157.897 35.0557 162.953 37.2097C174.758 42.2357 184.978 46.9206 195.843 54.0946" stroke="#111212" stroke-width="0.4" stroke-linecap="round" stroke-linejoin="round"/>
<path d="M-55.2285 52.755C-46.0501 46.0537 -34.5621 46.3588 -24.8691 40.9978C-19.873 38.2335 -15.4872 34.3802 -10.4971 31.58C-2.41363 27.0386 -1.4503 27.8165 7.13578 28.1216C17.9297 28.4986 27.1141 28.3969 37.196 24.1367C49.3362 19.015 58.3651 25.8599 70.7925 25.6026C77.1707 25.471 80.282 21.5459 86.0978 20.5647C89.6699 19.9604 97.5799 23.323 101.349 23.688C112.329 24.759 123.201 27.7028 134.455 28.5524C140.241 28.9892 143.436 28.6601 149.168 31.4663C154.08 33.8656 158.484 37.0667 163.618 39.0592C175.818 43.792 185.732 48.818 196.825 56.1236" stroke="#111212" stroke-width="0.4" stroke-linecap="round" stroke-linejoin="round"/>
<path d="M-56.1855 54.1135C-46.3609 48.0404 -35.5789 47.8011 -25.5509 42.8887C-13.7338 37.0969 -6.86493 29.4382 6.70527 29.1749C17.6847 28.9595 26.2827 29.1749 36.9809 26.3508C49.9468 22.9224 57.8388 28.4031 70.7987 28.4928C77.2727 28.5407 80.0669 25.926 86.2058 24.3703C90.3642 23.3173 97.3707 24.2925 101.559 24.6815C112.802 25.7166 123.452 29.1749 134.892 29.9647C146.255 30.7486 153.68 37.043 164.282 40.7886C176.829 45.2222 186.271 51.1517 197.783 58.0206" stroke="#111212" stroke-width="0.4" stroke-linecap="round" stroke-linejoin="round"/>
<path d="M-57.125 55.59C-46.8157 50.2768 -36.5722 49.11 -26.2031 44.7063C-14.3202 39.6624 -6.97269 31.896 6.29834 30.9267C16.841 30.1548 26.3545 30.8609 36.7715 28.5274C45.9798 26.4631 46.1952 26.2358 55.3019 28.2701C60.5313 29.4368 65.3359 31.1301 70.8047 31.3096C81.6345 31.6686 90.9924 24.8835 101.75 25.8768C107.153 26.3734 111.88 29.2454 117.098 30.4839C123.823 32.0755 128.658 31.172 135.305 31.6686C146.063 32.4644 154.763 38.9025 164.917 42.2172C177.691 46.3876 186.75 54.0343 198.728 59.7903" stroke="#111212" stroke-width="0.4" stroke-linecap="round" stroke-linejoin="round"/>
<path d="M-58.0469 57.1757C-47.4923 50.983 -37.907 50.4206 -26.8438 46.4237C-14.9788 42.1336 -6.99708 34.9417 5.89701 33.2364C16.1644 31.8782 26.2942 32.4406 36.5676 30.7174C45.6443 29.1977 46.3443 29.1139 55.2057 31.0944C60.4411 32.2671 65.3713 33.7211 70.7982 34.0202C75.8063 34.2955 81.7417 34.3972 86.3908 32.2133C92.7152 29.2396 93.9717 25.9966 101.93 27.3069C107.309 28.1925 112.041 31.5132 117.372 32.6979C123.87 34.1459 129.261 32.9672 135.699 33.5775C145.949 34.5528 155.756 40.578 165.526 43.5457C178.193 47.387 187.437 57.7561 199.643 61.4419" stroke="#111212" stroke-width="0.4" stroke-linecap="round" stroke-linejoin="round"/>
<path d="M-58.9492 58.8334C-48.2809 51.7791 -39.1145 51.5577 -27.4709 48.0036C-15.8333 44.4555 -6.82241 38.1969 5.50924 35.9233C15.9741 33.9906 25.7987 33.9727 36.3713 32.9316C48.7508 31.711 58.4857 35.7138 70.7994 36.5754C75.2689 36.8866 82.4011 37.7123 86.4817 35.8156C93.2369 32.6683 93.3805 27.6543 102.11 28.9886C107.435 29.7963 112.216 33.8291 117.649 34.9061C123.878 36.1387 129.879 34.8702 136.09 35.642C146.022 36.8686 156.588 42.1519 166.132 44.8683C178.469 48.3806 188.492 61.1011 200.548 62.9859" stroke="#111212" stroke-width="0.4" stroke-linecap="round" stroke-linejoin="round"/>
<path d="M-59.8359 60.5503C-48.7608 53.4002 -40.408 52.4548 -28.0884 49.4931C-22.7333 48.2066 -18.2697 45.197 -13.148 43.2225C-6.67401 40.7275 -1.57621 40.3924 5.12513 38.8667C10.4982 37.6461 15.2609 35.5519 20.5741 35.1271C25.5702 34.7262 31.0509 35.3844 36.1726 35.1989C48.1692 34.7561 58.8315 38.0469 70.7982 38.9504C74.8549 39.2556 82.9743 40.6856 86.5643 39.106C93.7323 35.9528 93.0323 29.5327 102.283 30.9148C107.512 31.6986 112.358 36.1024 117.911 37.0358C123.99 38.0589 130.362 36.8323 136.471 37.7717C141.922 38.6094 146.595 41.0386 151.717 42.8815C156.749 44.6944 161.757 44.7961 166.723 46.1663C178.803 49.4931 189.412 63.9009 201.432 64.4035" stroke="#111212" stroke-width="0.4" stroke-linecap="round" stroke-linejoin="round"/>
<path d="M-60.7031 62.317C-49.5263 54.8378 -41.5744 53.0727 -28.6983 50.9068C-23.0859 49.9614 -18.8497 47.3048 -13.6502 45.4141C-7.76258 43.272 -1.28861 43.4456 4.74259 41.9318C10.2293 40.5496 14.8903 37.7793 20.2873 37.0733C25.2235 36.4271 30.9197 37.4263 35.9756 37.534C47.7568 37.7913 59.0294 40.3043 70.7986 41.1121C75.5553 41.4411 82.1849 42.7694 86.6544 40.8189C93.613 37.7793 94.0917 32.0772 102.462 33.2739C107.68 34.0218 112.538 38.264 118.181 39.0538C124.32 39.9154 130.638 38.8204 136.855 39.9453C142.24 40.9206 146.996 43.5114 152.196 44.9833C157.15 46.3834 162.368 46.1381 167.304 47.4963C179.552 50.8589 189.64 66.1942 202.294 65.7574" stroke="#111212" stroke-width="0.4" stroke-linecap="round" stroke-linejoin="round"/>
<path d="M-61.5527 64.1108C-41.5804 50.4269 -18.5266 50.3192 4.37762 45.012C16.2964 42.2477 23.273 38.915 35.7961 39.9501C47.5055 40.9134 59.0832 42.499 70.7986 43.0555C76.3751 43.3187 81.2994 44.3419 86.7382 42.146C93.0207 39.6091 95.3363 35.5464 102.63 36.396C107.997 37.0183 112.838 40.1954 118.438 40.8895C124.708 41.6614 130.931 40.9314 137.22 42.134C142.551 43.1512 147.385 45.8018 152.663 46.9207C157.701 47.9857 162.852 47.4233 167.878 48.8473C180.623 52.4613 189.472 68.0838 203.15 67.0187" stroke="#111212" stroke-width="0.4" stroke-linecap="round" stroke-linejoin="round"/>
<path d="M-62.3848 65.937C-51.2917 58.2305 -43.3518 54.1917 -29.8534 53.6472C-23.6008 53.3959 -20.1723 51.3795 -14.5959 49.7939C-9.45022 48.334 -1.45649 49.076 4.02425 48.0109C9.66653 46.916 14.537 44.02 19.7544 42.596C25.1993 41.1061 29.5671 41.5908 35.6163 42.4404C47.4274 44.0978 58.9213 44.6423 70.7983 44.756C76.5542 44.8098 81.1135 45.6714 86.8156 43.7747C92.7631 41.8002 96.1855 38.7727 102.791 39.4189C108.158 39.9454 113.232 41.8481 118.683 42.4524C124.923 43.1405 131.391 43.1046 137.572 44.2953C142.885 45.3184 147.75 47.7417 153.111 48.5434C158.322 49.3213 163.307 48.6511 168.428 50.2547C181.64 54.3892 189.31 69.6048 203.981 68.2466" stroke="#111212" stroke-width="0.4" stroke-linecap="round" stroke-linejoin="round"/>
<path d="M-63.1973 67.7915C-52.2837 60.1568 -43.9369 54.8555 -30.4086 55.047C-19.0462 55.2026 -7.67791 52.4442 3.68444 50.8467C9.67376 50.003 14.1792 47.8431 19.4984 46.066C21.9216 42.9726 25.1048 42.2187 29.0478 43.8163C31.1779 44.2172 33.3079 44.618 35.438 45.0249C47.644 46.9575 58.4679 46.3951 70.7935 46.2096C76.2144 46.1258 81.5097 46.9695 86.8887 45.6591C92.6985 44.2471 96.7313 41.7819 102.942 42.2726C108.267 42.6914 113.622 43.6846 118.912 44.1992C125.038 44.7975 131.847 45.2882 137.903 46.437C143.264 47.4541 148.092 49.6022 153.531 50.1227C158.97 50.6433 163.673 49.8475 168.95 51.7382C182.658 56.6386 189.072 70.7293 204.784 69.4608" stroke="#111212" stroke-width="0.4" stroke-linecap="round" stroke-linejoin="round"/>
<path d="M-63.9883 69.6756C-53.2841 62.1665 -44.3988 55.6985 -30.9483 56.5123C-18.9398 57.2422 -8.61252 54.3284 3.35415 53.4368C9.2238 53.0001 13.7711 52.659 19.2519 50.5828C26.3242 47.9142 28.0294 46.6876 35.2752 47.5433C42.8442 48.4408 46.7872 50.3135 54.6253 49.7571C60.0103 49.3742 65.3774 47.5133 70.7983 47.3877C76.2431 47.262 81.4127 48.6921 86.9712 47.7347C92.6315 46.7654 97.1608 44.3781 103.102 44.6713C114.225 45.2217 127.185 46.4663 138.248 48.5185C143.669 49.5237 148.432 51.594 153.967 51.8572C159.753 52.1385 163.929 51.1213 169.481 53.2813C184.039 58.9535 188.502 71.4167 205.585 70.6569" stroke="#111212" stroke-width="0.4" stroke-linecap="round" stroke-linejoin="round"/>
<path d="M-64.7598 71.5965C-54.2411 64.225 -44.8233 56.7578 -31.4745 58.0921C-18.9095 59.3546 -9.48573 55.8304 3.03141 55.7407C8.61386 55.6988 13.592 56.9493 19.0129 55.0227C26.7912 52.2584 26.6416 47.0409 35.114 49.8351C42.3419 52.2165 46.8294 54.2029 54.5539 52.731C59.9449 51.7079 65.276 48.5966 70.7986 48.3153C76.6743 48.0162 80.6113 50.7506 87.0434 49.9787C92.6019 49.3146 97.4843 46.652 103.246 46.6938C114.1 46.7776 127.736 48.6504 138.566 50.595C144.011 51.5703 148.738 53.6644 154.374 53.7243C160.567 53.7841 164.121 52.5336 169.984 54.9688C178.128 58.3614 181.329 64.8233 188.383 69.251C193.846 72.6795 200.212 71.8598 206.357 71.9495" stroke="#111212" stroke-width="0.4" stroke-linecap="round" stroke-linejoin="round"/>
<path d="M-65.5195 73.5653C-55.0307 66.2178 -45.3736 58.254 -32.0009 59.8216C-26.4543 60.4738 -21.9968 62.3885 -16.3545 61.1738C-8.88129 59.5703 -5.1776 57.3744 2.70245 57.7035C8.13532 57.9309 13.3049 60.6234 18.7677 59.2771C26.2469 57.4343 26.3007 49.9072 34.9466 51.7621C43.2695 53.5511 45.2978 58.0565 54.4762 55.8367C60.316 54.4246 64.5282 49.8294 70.7928 49.9252C76.9736 50.0209 80.4798 53.0904 87.1153 52.3185C92.6619 51.6723 97.7477 48.6926 103.396 48.3635C109.499 48.0045 113.867 50.6312 119.599 51.6603C125.762 52.7673 132.535 51.5706 138.889 52.6536C144.304 53.575 149.133 55.4538 154.781 55.6213C160.345 55.7829 165.144 54.664 170.481 56.794C178.547 60.0191 181.933 67.6119 189 71.5489C194.211 74.4568 201.493 72.7995 207.105 73.332" stroke="#111212" stroke-width="0.4" stroke-linecap="round" stroke-linejoin="round"/>
<path d="M-66.2559 75.5925C-55.5337 68.0834 -46.1279 60.2931 -32.4979 61.7591C-26.8616 62.3634 -22.4758 63.8652 -16.7557 62.9198C-8.86373 61.6214 -5.8601 58.5221 2.40289 59.3178C7.88362 59.8444 12.9874 63.925 18.5459 63.3327C25.0917 62.6386 27.8859 52.9875 34.8026 53.2208C37.7045 55.7398 40.9715 57.5169 44.5974 58.546C47.6907 60.1854 50.9636 60.3589 54.416 59.0665C61.0754 57.3134 63.8038 51.3121 70.8043 52.0122C77.2245 52.6584 80.1204 55.6919 87.1927 54.7226C92.8051 53.9508 97.9687 50.3069 103.539 49.7325C110.312 49.0325 113.615 52.6045 119.82 53.9867C125.911 55.3449 132.708 53.2029 139.2 54.7286C148.947 57.0202 161.895 55.4107 170.971 58.7674C178.786 61.6573 182.148 70.3272 189.609 73.5342C195.006 75.8498 202.156 73.7257 207.853 74.8506" stroke="#111212" stroke-width="0.4" stroke-linecap="round" stroke-linejoin="round"/>
<path d="M-66.9668 77.7177C-55.7301 69.8078 -47.144 62.7355 -32.9755 63.968C-27.4289 64.4527 -22.744 65.4998 -17.1436 64.3749C-9.30541 62.8013 -6.09834 59.0138 2.11079 60.6054C7.69923 61.6884 12.7611 67.0554 18.3256 67.1631C22.8251 69.7001 26.086 67.6358 28.1084 60.9764C30.2863 58.6728 32.4702 56.3752 34.6482 54.0716C37.4304 57.165 40.7093 59.4925 44.4848 61.0541C47.4226 63.1663 50.7074 63.603 54.3393 62.3765C56.5352 61.096 58.7251 59.8156 60.921 58.5352C63.6793 52.3125 66.9701 50.9603 70.7935 54.4785C77.447 55.6153 79.5052 58.4753 87.2477 57.147C92.9617 56.1658 98.2151 51.6304 103.666 50.8765C110.906 49.8773 113.239 54.5682 120.012 56.2017C125.936 57.6257 132.966 55.2264 139.482 56.8778C144.921 58.2539 149.905 59.3848 155.541 60.0489C160.035 60.5815 167.299 59.5284 171.421 60.9464C179.523 63.7347 181.826 72.7456 190.179 75.2406C196.067 76.9997 202.427 74.5825 208.56 76.5869" stroke="#111212" stroke-width="0.4" stroke-linecap="round" stroke-linejoin="round"/>
<path d="M-67.6445 79.8776C-56.2044 71.7642 -48.6235 65.2603 -34.2216 66.1638C-28.8606 66.4988 -24.032 66.9296 -18.6769 65.8407C-12.8731 64.656 -5.90251 60.2343 0.212459 61.0719C6.23169 61.8976 14.0818 71.6265 19.3053 71.5667C26.3896 71.4829 28.0529 59.5103 35.3346 58.9419C42.0779 58.4153 44.4233 66.0321 51.4298 66.0142C60.4766 65.9902 61.3143 56.5126 70.7919 57.6136C76.8231 58.3136 80.1079 60.8446 86.9289 59.4265C92.8405 58.1999 97.5194 53.8441 103.036 52.4978C111.155 50.5114 114.644 56.6144 122.278 57.8409C128.459 58.8282 134.897 58.4572 141.371 59.7018C146.625 60.7129 151.884 61.7181 157.125 62.7413C161.745 63.6448 168.56 62.7652 172.718 64.1952C180.927 67.0194 182.549 74.4267 191.147 76.7064C197.226 78.3159 202.868 75.4678 209.228 78.5433" stroke="#111212" stroke-width="0.4" stroke-linecap="round" stroke-linejoin="round"/>
<path d="M-68.2969 82.1634C-56.2644 73.4876 -49.7067 67.7436 -34.6586 68.3539C-29.2437 68.5753 -24.3433 68.1864 -19.0301 66.9119C-14.2075 65.7511 -5.10689 60.8568 -0.0509736 61.6167C6.91961 62.6637 12.4003 73.1884 19.1256 73.3081C25.9825 73.4278 29.411 62.574 35.2148 61.12C38.9604 56.4889 42.1914 58.0027 44.9018 65.6554C47.0558 66.7145 49.2158 67.7735 51.3698 68.8326C57.9993 69.5266 64.1023 62.0714 70.8037 61.1619C76.057 60.4499 81.3044 62.945 87.0005 61.7064C93.0138 60.402 97.7586 54.7717 103.168 53.605C108.331 52.4981 117.45 58.2839 122.482 59.2173C128.962 60.42 134.987 60.4439 141.658 62.203C151.429 64.7759 163.839 64.6263 173.161 68.2761C181.154 71.4054 183.105 76.2758 191.697 77.8853C198.326 79.1239 203.37 76.4314 209.904 80.8112" stroke="#111212" stroke-width="0.4" stroke-linecap="round" stroke-linejoin="round"/>
<path d="M-68.9297 83.5686C-62.7728 80.0145 -56.3707 73.2594 -49.7232 70.8002C-44.4638 68.8496 -41.7773 70.7643 -36.7214 70.7344C-24.6052 70.6686 -11.9205 61.8192 -0.306833 63.3928C7.26208 64.416 9.99048 72.6491 16.4884 74.3184C24.6018 76.4006 27.6892 68.6821 33.3973 65.7922C35.9342 61.2029 39.3268 61.0414 43.5749 65.2955C45.8426 67.1863 48.1043 69.077 50.372 70.9677C57.54 73.1397 64.1756 65.8699 70.7991 64.6015C76.5192 63.5065 82.1315 65.0083 87.8217 63.6202C93.4819 62.2381 98.9686 56.4941 104.814 56.2128C110.056 55.9615 116.476 59.8447 121.735 60.6046C127.647 61.4542 132.792 62.0107 138.56 63.3689C150.689 66.2289 163.385 68.4787 175.047 73.1217C181.419 75.6587 184.357 77.8426 191.327 78.9675C198.4 80.1103 203.324 79.2547 210.534 82.3839" stroke="#111212" stroke-width="0.4" stroke-linecap="round" stroke-linejoin="round"/>
<path d="M-69.5527 84.424C-61.4573 81.7854 -57.9092 75.832 -50.2206 72.583C-45.1527 70.441 -42.1491 72.0385 -37.147 72.5651C-24.3128 73.9233 -13.2137 62.3934 -0.564908 64.1824C6.84844 65.2355 9.54095 72.4873 16.2961 74.8986C24.1403 77.7048 27.4251 72.7924 33.2649 69.4358C35.7898 66.2108 39.1943 64.7628 43.4784 65.0979C45.7521 67.6288 48.0257 70.1598 50.2994 72.6907C57.6769 76.197 64.3602 70.1179 70.7923 67.8203C76.5722 65.756 82.1008 67.0125 87.8688 65.5825C93.8581 64.0987 98.4293 59.2163 104.915 59.318C115.637 59.4855 128.496 63.7756 138.787 66.0193C151.573 68.8016 162.942 72.7206 175.441 77.1004C187.27 81.2409 198.949 79.6613 211.137 83.4607" stroke="#111212" stroke-width="0.4" stroke-linecap="round" stroke-linejoin="round"/>
<path d="M-70.1504 85.3337C-61.7977 87.5835 -57.3161 77.3639 -50.7046 74.3783C-45.8042 72.1644 -42.4894 73.4748 -37.5592 74.0552C-24.4916 75.5989 -14.0626 63.1176 -0.809527 65.3554C13.6283 67.7966 17.1405 82.8985 33.1459 72.8944C36.5444 70.2079 39.9609 67.5453 43.3953 64.9066C45.675 67.8325 47.9546 70.7583 50.2403 73.6902C58.246 79.4701 63.4395 74.3543 70.799 70.7883C76.5969 67.9761 81.8622 68.5864 87.9353 67.0846C94.1699 65.5409 98.3283 61.7893 105.042 62.3278C116.099 63.2193 128.299 65.6426 139.033 67.8564C152.142 70.5609 163.08 77.1725 175.842 80.559C182.053 82.2045 185.793 80.5172 192.297 80.7146C199.339 80.93 204.706 84.6337 211.742 84.6157" stroke="#111212" stroke-width="0.4" stroke-linecap="round" stroke-linejoin="round"/>
<path d="M-70.7246 86.303C-62.6292 91.8615 -57.3818 79.2666 -51.1591 76.1852C-46.5579 73.9055 -42.7346 74.5996 -37.9479 75.3834C-24.3478 77.6092 -14.8762 64.2784 -1.03672 66.564C12.8925 68.8616 18.0441 84.4063 33.0324 76.251C36.6344 73.8038 40.0628 71.1293 43.3118 68.2154C45.5974 70.0523 47.889 71.8951 50.1746 73.732C59.5804 81.277 60.8908 79.1888 70.7932 73.4448C91.8366 61.2508 116.416 67.3179 139.243 69.9326C152.843 71.4883 163.439 81.7138 176.214 83.5806C182.245 84.4661 186.541 81.3129 192.752 81.4864C200.32 81.6958 204.646 88.5886 212.317 85.8184" stroke="#111212" stroke-width="0.4" stroke-linecap="round" stroke-linejoin="round"/>
<path d="M-71.2871 87.3261C-62.8147 91.9332 -57.6331 81.3188 -51.6079 77.998C-47.1085 75.515 -43.1535 75.9757 -38.3249 76.5979C-24.1384 78.4288 -15.3848 66.0972 -1.25817 67.8742C12.7069 69.6333 18.6185 86.261 32.9246 79.5118C39.4105 76.4484 42.0791 68.5204 50.1207 72.5771C51.814 79.5417 55.2604 82.2462 60.4539 80.6965C64.5226 80.7743 67.969 79.1349 70.7931 75.7722C80.0733 69.8069 94.1401 66.2767 105.233 68.0238C111.013 68.9333 116.649 71.0155 122.381 72.2002C128.993 73.5704 133.253 72.5173 139.452 72.284C153.363 71.7634 163.966 85.2319 176.572 85.8482C182.61 86.1414 186.966 82.0488 193.194 82.2761C200.572 82.5394 204.987 89.0074 212.873 87.1047" stroke="#111212" stroke-width="0.4" stroke-linecap="round" stroke-linejoin="round"/>
<path d="M-71.832 88.4205C-61.8578 91.4181 -59.2012 84.2142 -52.0392 79.8404C-47.6953 77.1897 -43.5069 77.3573 -38.6903 77.7761C-28.5007 78.6676 -27.334 78.0454 -18.4727 72.9057C-12.7466 69.5849 -7.93601 68.6096 -1.47401 69.3875C12.3595 71.0508 19.2343 88.2051 32.8165 82.6884C38.4109 80.4207 43.0599 70.7876 50.0604 71.8885C51.1674 79.6728 54.6197 83.1252 60.4236 82.2516C64.5281 82.9517 67.9805 81.4439 70.7927 77.7402C81.3174 70.5961 92.5421 67.6284 105.323 70.6559C111.15 72.0321 116.649 74.7545 122.525 75.9452C129.334 77.3274 133.372 75.3289 139.649 74.8981C153.351 73.9587 164.546 87.6067 176.919 87.4033C182.819 87.3076 187.575 82.485 193.625 83.0953C200.565 83.7953 205.585 89.0068 213.417 88.4205" stroke="#111212" stroke-width="0.4" stroke-linecap="round" stroke-linejoin="round"/>
<path d="M-72.3535 89.5874C-69.0447 89.4319 -65.7419 89.3122 -62.4331 89.2284C-57.6405 89.8926 -54.3078 87.3856 -52.4529 81.7134C-48.2766 78.9072 -43.8429 78.7576 -39.0383 78.967C-28.7111 79.4218 -27.7956 80.2953 -18.7369 74.8026C-13.0048 71.3263 -8.36177 70.0758 -1.67838 70.8237C12.3466 72.3973 19.6343 90.2396 32.7198 85.7521C38.7151 83.6998 42.6521 73.4923 50.0116 74.7607C51.9143 80.415 55.3787 83.2511 60.4047 83.281C64.4375 84.6991 67.9018 83.4007 70.7977 79.3978C82.6687 71.1767 91.2009 68.3107 105.417 73.1333C111.131 75.0719 116.78 78.7815 122.667 79.9124C129.207 81.1689 133.473 78.6439 139.845 78.0935C153.493 76.9267 164.928 89.2823 177.253 88.4805C182.872 88.1155 188.28 82.9998 194.036 84.0648L200.702 88.4327C205.13 88.7677 209.539 89.2344 213.943 89.8328" stroke="#111212" stroke-width="0.4" stroke-linecap="round" stroke-linejoin="round"/>
<path d="M-72.8555 90.8327C-69.5108 89.7677 -66.19 89.66 -62.8813 90.5276C-58.1185 92.2627 -54.7798 89.9651 -52.8472 83.6467C-48.7367 80.7628 -44.2192 80.2303 -39.3727 80.2362C-30.6311 80.2482 -26.9932 81.4209 -18.9935 77.1309C-13.0401 73.9418 -9.00732 71.7758 -1.87519 72.446C4.12011 73.0084 10.5821 75.5034 15.3329 79.3567C23.0634 85.6332 22.9198 91.3473 32.6187 88.6368C39.2243 86.794 42.0604 76.3052 49.9525 77.4121C52.7527 80.8465 56.223 83.0065 60.3694 83.8801C64.2227 86.058 67.693 85.0289 70.7924 80.7927C83.4771 72.063 90.6391 68.5568 105.496 75.4197C110.941 77.9327 117.044 82.9108 122.794 83.9998C129.166 85.2084 133.276 82.0253 140.026 81.403C146.164 80.8346 154.786 82.0253 160.578 84.0656C166.544 86.1657 170.888 89.8874 177.571 89.2352C183.04 88.6967 188.784 83.8382 194.432 85.2383C196.664 86.9854 198.896 88.7266 201.133 90.4737C205.639 89.666 210.078 89.9472 214.446 91.3234" stroke="#111212" stroke-width="0.4" stroke-linecap="round" stroke-linejoin="round"/>
<path d="M-73.3398 92.1602C-63.6827 90.1198 -61.792 91.3704 -53.2239 85.9435C-48.7005 83.0774 -45.0207 81.809 -39.6896 81.5996C-32.7489 81.3243 -25.898 82.7184 -19.2266 79.9482C-13.0039 77.3634 -9.59938 73.9828 -2.0544 74.4435C4.12639 74.8264 10.2294 77.3095 15.2075 81.2645C22.4593 87.0324 23.4526 93.1055 32.5353 91.2148C39.5956 89.7429 41.9949 79.8225 49.9109 79.8704C61.5305 79.9422 59.0115 89.8925 70.7927 81.9705C83.8124 73.2169 90.5616 68.9508 105.58 77.4471C111.096 80.5704 116.601 85.9255 122.919 87.0324C129.064 88.1094 133.875 85.1596 140.199 84.6152C146.099 84.1066 155.062 83.8852 160.818 85.4588C166.939 87.1342 171.091 90.5207 177.876 89.7967C183.836 89.1625 188.503 85.381 194.809 87.0085C197.053 88.271 199.297 89.5335 201.541 90.796C206.13 90.6583 210.587 91.3464 214.925 92.8602" stroke="#111212" stroke-width="0.4" stroke-linecap="round" stroke-linejoin="round"/>
<path d="M-73.8008 93.5732C-67.2071 91.6645 -59.8117 91.4252 -53.5831 88.4275C-48.4673 85.9624 -45.9184 83.5631 -39.989 83.1083C-34.1971 82.6596 -24.9768 84.67 -19.4542 83.2519C-13.2554 81.6663 -9.77911 76.3531 -2.22815 76.4309C11.8626 76.5745 20.1675 94.9733 32.4513 93.3398C39.6492 92.3885 42.2998 83.1083 49.8687 82.1989C60.7524 80.8945 60.0883 90.0191 70.7984 83.0605C77.0211 79.0157 80.1983 74.3248 88.2399 73.8581C94.3548 73.4991 100.518 76.042 105.663 79.1773C111.647 82.8271 115.913 88.5831 123.045 89.7738C128.861 90.7431 134.539 88.266 140.373 87.7334C146.093 87.2069 155.379 85.5316 161.057 86.5487C167.202 87.6497 171.432 90.9345 178.181 90.3242C184.937 89.7139 188.054 87.548 195.186 89.2472C201.947 90.8567 208.75 92.4423 215.404 94.4587" stroke="#111212" stroke-width="0.4" stroke-linecap="round" stroke-linejoin="round"/>
<path d="M-74.2441 95.0749C-67.0881 92.4841 -60.7338 92.9747 -53.9307 91.0062C-48.7432 89.5104 -46.3379 85.4298 -40.2827 84.7656C-33.6293 84.0357 -26.174 85.8426 -19.6761 84.9092C-13.4295 84.0117 -8.8104 78.8002 -2.39626 78.4472C11.1201 77.7053 20.6874 95.4279 32.3729 94.8176C39.3734 94.4526 42.8258 85.9862 49.8263 84.4246C59.8304 82.1928 61.1348 90.2224 70.7979 84.1733C77.2718 80.1166 79.7429 75.7727 88.2752 75.7308C93.6662 75.7009 100.96 77.7771 105.735 80.5534C112.448 84.4485 115.218 91.072 123.158 92.4362C128.513 93.3577 135.089 91.4011 140.528 90.749C146.577 90.031 155.205 87.3026 161.272 87.847C167.207 88.3796 172.15 91.2456 178.456 90.9344C191.625 90.2763 203.012 91.6165 215.846 96.116" stroke="#111212" stroke-width="0.4" stroke-linecap="round" stroke-linejoin="round"/>
<path d="M-74.668 96.6657C-71.3412 95.1041 -67.9487 93.7219 -64.4843 92.5133C-61.2773 90.7841 -57.8668 90.5747 -54.2588 91.879C-49.5619 90.9935 -45.6967 87.3078 -40.557 86.6137C-33.6642 85.6803 -26.7474 86.6735 -19.8786 86.8949C-12.0823 87.1462 -9.71888 81.5638 -2.55085 80.6782C10.2415 79.1046 20.2157 95.7144 32.2961 95.2836C38.8837 95.0502 43.473 88.4506 49.7854 86.6077C58.4672 84.0708 62.482 90.1499 70.7988 85.5008C77.6318 81.6775 79.3131 77.5131 88.3061 77.9678C93.6971 78.243 100.931 80.3432 105.801 82.9699C112.335 86.494 115.74 92.4056 123.261 94.1766C128.67 95.4511 135.197 94.5356 140.672 93.6681C146.919 92.6748 155.2 88.9293 161.476 88.9532C167.136 88.9711 172.863 91.6696 178.714 91.7534C192.26 91.9448 203.503 92.8603 216.26 97.8504" stroke="#111212" stroke-width="0.4" stroke-linecap="round" stroke-linejoin="round"/>
<path d="M-75.0742 98.3482C-64.388 93.1487 -52.5829 90.4443 -40.8316 88.6313C-34.4474 87.6441 -26.4177 88.1527 -20.0874 89.2177L-13.1467 90.7494C-10.891 85.9089 -7.41468 83.354 -2.71178 83.0788C9.12325 81.0803 19.271 95.2788 32.2189 94.7762C38.6271 94.5249 43.7668 90.6716 49.7441 88.757C56.8822 86.4713 64.0084 89.804 70.7935 87.2013C77.8897 84.4849 79.2599 79.7102 88.3366 80.494C94.0567 80.9906 100.602 83.5874 105.868 86.0286C118.373 91.8204 125.906 99.5808 140.816 96.4276C147.446 95.0275 154.841 90.1391 161.674 89.9417C167.209 89.7801 173.426 92.2871 178.966 92.8436C192.626 94.2138 203.869 94.2138 216.661 99.6227" stroke="#111212" stroke-width="0.4" stroke-linecap="round" stroke-linejoin="round"/>
<path d="M-75.459 100.131C-64.5693 94.2737 -53.1112 92.8198 -41.0787 90.8333C-34.0304 89.6725 -27.2094 91.2103 -20.2687 91.9223C-12.0476 92.7599 -10.3603 86.98 -2.84524 85.6577C4.77154 84.3175 8.38548 88.8109 14.6321 92.0599C21.3992 95.5781 25.414 93.46 32.1573 93.2266C38.4278 93.0112 43.5017 92.8317 49.7124 90.9171C53.075 89.2896 56.5932 88.5237 60.255 88.6135C63.8091 88.1887 67.3213 88.4938 70.7976 89.523C73.1431 87.6621 75.4826 85.8073 77.8281 83.9465C81.3463 82.2951 84.8645 82.0677 88.3707 83.2823C94.5694 84.0662 100.002 87.6322 105.932 89.4093C117.671 92.9335 127.777 102.65 140.952 99.0245C148.156 97.044 154.104 91.1265 161.864 90.9171C167.428 90.7675 173.837 93.1728 179.21 94.2797C192.81 97.0799 203.885 95.5601 217.048 101.436" stroke="#111212" stroke-width="0.4" stroke-linecap="round" stroke-linejoin="round"/>
<path d="M-75.8223 102.009C-64.7112 95.559 -53.6002 95.0504 -41.3104 93.2016C-33.6876 92.0528 -27.7641 95.0265 -20.4405 95.0026C-13.7631 94.9846 -9.23375 89.444 -2.97518 88.3969C4.74332 87.1105 7.98031 90.8322 14.538 93.9973C23.2976 98.2216 24.249 92.7468 32.0931 92.346C38.3338 92.0288 43.1862 94.7872 49.6782 93.1118C53.0827 91.6519 56.6009 90.6407 60.2387 90.0723C63.7749 88.8816 67.2931 89.1688 70.7993 90.9279C73.1448 89.4201 75.4962 87.9123 77.8417 86.4045C81.4377 84.9027 84.9559 84.8548 88.4023 86.2549C94.6728 87.3319 99.8424 91.8194 105.993 93.0759C112.671 94.4461 117.074 95.924 123.554 98.79C129.61 101.465 134.378 103.756 141.08 101.417C148.475 98.8439 153.722 92.2383 162.039 91.9451C167.693 91.7416 174.173 94.488 179.433 96.1214C192.979 100.328 203.54 96.9052 217.415 103.289" stroke="#111212" stroke-width="0.4" stroke-linecap="round" stroke-linejoin="round"/>
<path d="M-76.1641 103.978C-64.4846 97.2529 -53.912 96.4571 -40.6829 95.6074C-33.6764 95.1587 -26.1374 98.0786 -19.2446 97.0973C-14.2964 96.3913 -9.62938 92.9508 -4.90255 91.4849C5.98114 88.1163 6.87863 94.2432 16.6733 96.9896C25.7321 99.5325 24.8227 90.5096 31.0872 89.9352C34.3541 92.4123 37.9621 94.0518 41.9111 94.8595C45.4592 96.4272 49.0671 96.2836 52.7409 94.4227C58.9695 92.6696 64.4144 91.5388 70.7986 90.6712C77.1768 89.8036 82.155 87.2427 88.8563 89.2352C95.1567 91.108 100.177 95.8707 106.902 96.487C109.367 97.3486 111.772 97.199 114.112 96.0382C118.755 93.6748 122.357 95.5656 124.918 101.704C131.296 105.797 136.292 105.205 142.898 102.201C149.162 99.353 153.572 94.315 160.836 93.4834C167.214 92.7534 172.922 95.9186 178.708 97.9888C192.26 102.841 203.653 98.9162 217.761 105.169" stroke="#111212" stroke-width="0.4" stroke-linecap="round" stroke-linejoin="round"/>
<path d="M-76.4863 106.054C-64.2444 99.9092 -54.5873 97.9945 -40.8855 98.2279C-33.4602 98.3535 -26.7529 100.932 -19.3874 99.0596C-14.5648 97.833 -9.8978 95.9781 -5.0154 94.7456C7.25043 91.6582 5.1084 96.9714 16.5964 98.7724C23.7405 99.8912 25.4757 93.2976 31.0342 92.1428C39.8417 90.3179 43.2282 99.2091 52.7178 96.8996C59.0123 95.3678 64.1878 92.0112 70.7994 91.2693C76.7828 90.5991 83.161 90.3598 88.8811 92.448C95.379 94.8174 99.8306 99.5921 106.951 99.8314C117.104 100.166 114.789 97.2765 124.996 103.517C132.176 107.909 135.659 107.412 143.012 103.733C149.193 100.639 153.657 96.2833 160.986 95.2542C168.136 94.2549 172.576 98.2219 178.906 100.561C185.991 103.176 189.688 102.374 196.761 101.866C204.168 101.333 211.36 104.546 218.085 107.101" stroke="#111212" stroke-width="0.4" stroke-linecap="round" stroke-linejoin="round"/>
<path d="M-76.793 108.22C-63.9886 102.727 -55.235 99.5383 -41.0784 100.891C-32.3847 101.722 -27.9391 104.283 -19.5325 101.196C-14.6082 99.3887 -10.3062 97.839 -5.13058 96.8218C5.789 94.6858 6.42921 99.8494 16.5231 100.573C21.938 100.962 26.3597 96.2774 30.9788 94.5422C42.3053 90.2821 41.3958 101.585 52.6864 99.4665C59.1244 98.2578 64.0487 93.184 70.786 92.4779C84.8767 91.0001 94.8449 103.607 106.979 103.332C115.481 103.14 116.217 100.52 125.055 105.145C132.929 109.267 134.861 109.501 143.101 105.336C149.329 102.189 153.793 98.551 161.11 97.3125C169.254 95.9363 172.096 100.896 179.072 103.487C185.917 106.03 189.759 104.373 196.98 104.056C204.31 103.739 211.55 106.856 218.377 109.01" stroke="#111212" stroke-width="0.4" stroke-linecap="round" stroke-linejoin="round"/>
<path d="M-77.0742 110.495C-63.4741 105.552 -55.2709 100.903 -40.3545 103.596C-33.7489 104.787 -28.4417 105.75 -21.9079 104.308C-15.4758 102.89 -10.1686 99.5212 -3.41938 98.887C3.34178 98.2527 8.54728 101.167 15.105 101.328C22.3508 101.508 26.4674 97.1039 33.6534 96.1825C41.5693 95.1653 44.8901 102.303 52.2196 101.633C59.1842 100.999 63.8273 95.0576 70.7979 93.9507C85.5648 91.6053 94.0611 107.712 107.942 105.953C120.872 104.314 129.65 112.583 141.311 107.874C147.51 105.373 152.967 101.197 159.806 99.9281C169.655 98.1031 170.588 102.411 178.259 105.911C181.029 110.004 184.709 110.548 189.31 107.533C191.763 107.138 194.21 106.743 196.663 106.348C204.142 106.079 211.55 109.124 218.664 110.937" stroke="#111212" stroke-width="0.4" stroke-linecap="round" stroke-linejoin="round"/>
<path d="M-77.3301 113.115C-63.4607 108.4 -55.7602 102.303 -40.5086 106.18C-33.6817 107.915 -28.9788 108.507 -22.0261 106.724C-15.6718 105.091 -10.2749 101.375 -3.50771 101.124C2.84061 100.885 8.72223 103.589 15.0406 103.308C21.5146 103.021 27.1928 100.31 33.6129 99.323C42.1571 98.0066 44.4667 104.654 52.2031 104.205C59.3173 103.799 63.7868 97.8032 70.7993 96.3672C76.0646 95.2902 81.1505 97.0313 85.6739 99.5982C95.8755 105.378 96.1926 110.302 107.98 108.675C120.126 107 129.849 113.324 141.397 109.273C147.571 107.107 153.256 103.416 159.921 102.464C169.177 101.142 170.96 105.121 178.41 108.166C181.353 111.822 185.039 112.295 189.485 109.584C191.944 109.267 194.397 108.95 196.856 108.633C204.335 108.513 211.701 111.415 218.923 112.947" stroke="#111212" stroke-width="0.4" stroke-linecap="round" stroke-linejoin="round"/>
<path d="M-77.5703 115.556C-62.588 111.159 -56.0483 104.104 -39.7078 109.082C-24.9469 113.582 -15.9599 102.836 -1.68369 103.751C3.40813 104.08 8.33241 106.432 13.5559 106.121C19.9401 105.738 26.1568 103.081 32.6247 102.674C36.4541 102.214 40.2714 102.399 44.0709 103.225C46.6138 104.715 49.1627 106.204 51.7056 107.694C58.0838 108.149 64.5877 100.676 70.7924 99.5569C85.6969 96.8704 91.3871 112.619 105.149 111.691C118.192 110.812 130.871 114.18 143.275 109.818C149.378 107.67 155.762 105.139 162.302 105.265C170.87 105.427 173.52 110.907 181.299 112.601C185.762 113.576 191.883 110.979 196.466 110.913C204.029 110.806 211.778 113.594 219.161 114.916" stroke="#111212" stroke-width="0.4" stroke-linecap="round" stroke-linejoin="round"/>
<path d="M-77.791 117.835C-70.0905 116.184 -65.9859 112.145 -58.8358 109.794C-51.3866 107.347 -46.7973 109.656 -39.8447 111.81C-25.2753 116.322 -15.5643 104.57 -1.76079 106.443C4.29434 107.263 6.93897 109.668 13.4967 108.519C20.1741 107.353 25.7984 105.641 32.5836 105.737C39.3328 105.833 45.6452 110.261 51.6824 110.398C58.2521 110.554 64.4149 103.799 70.7871 102.608C85.207 99.9154 91.675 114.084 105.173 114.114C118.247 114.144 130.453 114.012 143.341 111.589C149.725 110.386 155.762 107.724 162.398 108.25C169.386 108.801 174.55 113.192 181.425 114.222C186.313 114.957 191.716 113.162 196.623 113.151C204.221 113.127 211.898 115.705 219.377 116.824" stroke="#111212" stroke-width="0.4" stroke-linecap="round" stroke-linejoin="round"/>
<path d="M-77.9883 119.959C-69.1988 119.002 -66.7576 114.868 -58.9852 112.085C-50.9855 109.225 -47.222 112.319 -39.9582 114.509C-25.8256 118.775 -15.2411 107.43 -1.82044 109.351C4.33641 110.231 6.77162 112.708 13.455 111.343C20.4854 109.913 25.4277 108.316 32.5598 108.795C38.8722 109.219 45.4479 112.791 51.6765 112.63C58.4916 112.456 64.2056 106.982 70.7993 105.839C84.5191 103.463 92.0999 115.693 105.215 116.441C118.534 117.201 130.543 114.197 143.419 113.39C149.863 112.983 155.93 110.41 162.5 111.337C169.536 112.331 174.06 115.616 181.557 115.885C194.618 116.357 206.573 116.992 219.587 118.661" stroke="#111212" stroke-width="0.4" stroke-linecap="round" stroke-linejoin="round"/>
<path d="M-78.1621 121.958C-68.158 122.185 -67.6135 117.716 -59.1231 114.419C-50.6747 111.14 -47.5693 114.855 -40.0602 117.147C-26.52 121.276 -15.0439 110.907 -1.87461 112.486C3.67194 113.15 7.4953 115.609 13.4128 114.52C20.9458 113.132 24.8889 111.086 32.5356 111.858C39.1053 112.522 44.945 114.993 51.6643 114.461C58.5152 113.916 64.1276 110.117 70.799 109.183C83.6093 107.388 92.5723 117.41 105.233 118.661C118.504 119.971 130.555 115.22 143.473 115.232C149.923 115.238 156.103 113.497 162.571 114.497C169.769 115.609 174.077 117.656 181.652 117.662C194.672 117.674 206.842 118.93 219.754 120.462" stroke="#111212" stroke-width="0.4" stroke-linecap="round" stroke-linejoin="round"/>
<path d="M-78.3184 123.843C-69.6784 123.814 -66.6688 119.123 -58.7409 116.592C-49.8676 113.756 -48.2222 116.909 -39.1455 119.38C-27.2207 122.623 -15.631 115.551 -3.83782 115.975C3.31226 116.233 8.42802 118.195 15.7935 116.651C21.4178 115.473 25.5822 113.779 31.5057 114.545C38.3566 115.437 44.0827 117.764 51.149 116.998C57.8803 116.275 64.1747 113.145 70.7983 112.266C82.7051 110.68 94.3607 119.326 106.16 120.63C118.378 121.977 129.411 116.394 141.509 116.777C154.709 117.196 167.836 120.212 180.742 120.056C194.127 119.894 206.62 120.529 219.909 122.228" stroke="#111212" stroke-width="0.4" stroke-linecap="round" stroke-linejoin="round"/>
<path d="M-78.4492 125.643C-70.3358 125.38 -66.327 121.437 -58.8418 119.037C-50.172 116.261 -48.359 118.804 -39.2225 121.185C-27.6746 124.201 -15.4806 119.007 -3.87893 119.229C2.48734 119.348 9.44596 120.982 15.7644 119.941C21.6101 118.978 25.218 116.626 31.4886 117.547C38.4591 118.577 43.8741 120.294 51.1438 119.378C57.6716 118.559 64.2593 116.064 70.7991 115.651C82.67 114.897 94.4631 121.365 106.179 122.562C118.307 123.794 129.226 118.104 141.546 118.732C154.697 119.402 167.693 122.657 180.815 122.352C194.229 122.041 206.693 122.191 220.041 123.956" stroke="#111212" stroke-width="0.4" stroke-linecap="round" stroke-linejoin="round"/>
<path d="M-78.5625 127.367C-70.9218 126.954 -65.9915 123.837 -58.9312 121.617C-50.4947 118.96 -48.4962 120.773 -39.2939 122.945C-28.0572 125.596 -15.3546 122.323 -3.92639 122.299C2.38004 122.287 9.53612 123.268 15.7289 122.443C21.437 121.683 25.4338 119.606 31.4591 120.57C38.5732 121.713 43.6351 122.963 51.1263 121.88C57.6481 120.935 64.1281 118.859 70.7935 119.014C82.7063 119.295 94.4336 123.424 106.191 124.423C118.217 125.446 129.215 120.54 141.582 121.294C154.895 122.108 167.514 125.009 180.881 124.627C194.343 124.244 206.741 123.909 220.149 125.68" stroke="#111212" stroke-width="0.4" stroke-linecap="round" stroke-linejoin="round"/>
<path d="M-78.6523 129.042C-71.1911 128.509 -65.3873 126.092 -58.4706 124.105C-51.8111 122.191 -49.4776 122.472 -42.3215 123.83C-30.654 126.05 -17.9634 125.906 -5.97278 125.817C7.55554 125.715 21.1736 122.322 34.4267 124.411C46.9378 126.385 58.2882 121.724 70.7934 122.538C82.9695 123.334 95.0857 125.924 107.16 126.666C113.102 127.031 117.721 124.351 123.321 123.471C129.753 122.46 137.095 123.555 143.521 123.986C155.799 124.806 167.478 127.241 179.87 126.9C193.727 126.523 206.406 125.613 220.239 127.396" stroke="#111212" stroke-width="0.4" stroke-linecap="round" stroke-linejoin="round"/>
<path d="M-78.7188 130.682C-65.4118 129.611 -55.4376 123.843 -42.358 125.782C-30.6307 127.523 -17.952 128.576 -5.99132 128.498C7.83616 128.415 20.7482 125.836 34.4201 127.589C46.662 129.156 58.6107 124.884 70.7928 125.77C82.6877 126.638 95.2646 128.169 107.166 128.618C112.742 128.827 117.918 126.452 123.332 125.842C129.92 125.1 136.98 126.201 143.538 126.691C155.762 127.595 167.603 129.462 179.905 129.103C193.75 128.702 206.465 127.445 220.304 129.115" stroke="#111212" stroke-width="0.4" stroke-linecap="round" stroke-linejoin="round"/>
<path d="M-78.7617 132.303C-66.2207 131.256 -54.8224 126.643 -42.389 127.834C-30.4403 128.976 -18.0907 130.921 -6.01036 130.891C7.76926 130.861 20.7411 129.042 34.4131 130.388C46.6071 131.591 58.7772 128.037 70.7977 128.958C94.5934 130.783 119.352 127.642 143.561 129.455C169.194 131.376 195.072 128.109 220.357 130.849" stroke="#111212" stroke-width="0.4" stroke-linecap="round" stroke-linejoin="round"/>
<path d="M-78.7852 133.912C-66.3279 132.895 -53.7449 129.287 -41.3893 130.106C-28.8961 130.938 -16.5046 133.457 -3.99348 133.014C20.8194 132.135 46.2665 131.034 70.7982 132.123C94.4204 133.176 117.893 130.262 141.431 132.003C167.824 133.954 194.27 130.166 220.376 132.59" stroke="#111212" stroke-width="0.4" stroke-linecap="round" stroke-linejoin="round"/>
<path d="M-78.7852 135.535C-66.4356 134.625 -53.5295 132.136 -41.3893 132.358C-28.95 132.585 -16.4747 134.93 -3.99348 135.23C20.9929 135.828 45.9554 134.93 70.7982 134.769C94.2828 134.613 117.959 132.818 141.431 134.721C167.866 136.863 194.139 132.429 220.376 134.368" stroke="#111212" stroke-width="0.4" stroke-linecap="round" stroke-linejoin="round"/>
<path d="M-78.7617 137.168C-66.5198 136.426 -54.3497 135.265 -42.389 134.709C-30.6078 134.158 -17.8933 136.689 -6.01036 137.198C19.6761 138.287 45.5181 138.64 70.7917 136.923C94.5456 135.307 119.658 135.858 143.555 137.629C169.2 139.531 194.802 134.81 220.351 136.163" stroke="#111212" stroke-width="0.4" stroke-linecap="round" stroke-linejoin="round"/>
<path d="M-78.7188 138.819C-54.2948 137.754 -30.4332 137.808 -5.99731 139.125C7.46519 139.848 20.9995 142.529 34.4141 141.308C46.5782 140.196 58.7603 140.07 70.7868 139.226C94.5825 137.557 119.635 138.508 143.532 140.255C169.099 142.128 194.761 137.228 220.298 137.97" stroke="#111212" stroke-width="0.4" stroke-linecap="round" stroke-linejoin="round"/>
<path d="M-78.6523 140.494C-54.4438 139.938 -30.0437 139.692 -5.97278 141.104C7.57349 141.9 20.8146 145.562 34.4267 144.198C46.6028 142.977 58.6173 142.522 70.7934 141.643C94.625 139.92 119.641 141.224 143.521 142.816C168.986 144.515 194.762 139.716 220.239 139.806" stroke="#111212" stroke-width="0.4" stroke-linecap="round" stroke-linejoin="round"/>
<path d="M-78.5625 142.199C-28.6196 142.199 20.9643 149.026 70.7935 144.095C82.4251 142.947 94.4755 144.095 106.191 143.832C117.912 143.569 129.903 144.209 141.582 145.125C167.538 147.171 194.17 142.235 220.155 141.66" stroke="#111212" stroke-width="0.4" stroke-linecap="round" stroke-linejoin="round"/>
<path d="M-78.4492 143.934C-53.6004 144.574 -28.6559 144.544 -3.88491 146.22C7.9202 147.015 19.6176 150.127 31.4826 149.558C44.5801 148.936 57.6776 147.506 70.7931 146.71C93.9905 145.304 118.331 146.142 141.546 147.566C167.454 149.158 194.139 144.832 220.041 143.533" stroke="#111212" stroke-width="0.4" stroke-linecap="round" stroke-linejoin="round"/>
<path d="M-78.3184 145.699C-53.5055 147.022 -28.6148 146.998 -3.84381 148.667C7.93738 149.463 19.6647 152.263 31.4998 151.862C44.6092 151.425 57.6589 149.786 70.7923 149.367C94.235 148.619 118.043 148.87 141.503 149.876C167.357 150.982 194.115 147.44 219.909 145.418" stroke="#111212" stroke-width="0.4" stroke-linecap="round" stroke-linejoin="round"/>
<path d="M-78.1621 147.494C-53.3791 149.445 -28.5543 149.487 -3.78928 151.15C7.96199 151.94 19.7372 154.351 31.5244 154.094C44.6159 153.812 57.6715 152.209 70.793 152.053C120.616 151.479 170.027 152.382 219.754 147.309" stroke="#111212" stroke-width="0.4" stroke-linecap="round" stroke-linejoin="round"/>
<path d="M-77.9883 149.309C20.3777 157.973 121.251 159.205 219.581 149.207" stroke="#111212" stroke-width="0.4" stroke-linecap="round" stroke-linejoin="round"/>
<path d="M-77.791 151.126C20.7066 160.478 120.904 161.046 219.383 151.078" stroke="#111212" stroke-width="0.4" stroke-linecap="round" stroke-linejoin="round"/>
<path d="M-77.5703 152.951C21.0231 162.932 120.58 163.087 219.167 152.939" stroke="#111212" stroke-width="0.4" stroke-linecap="round" stroke-linejoin="round"/>
<path d="M-77.3301 154.752C21.2094 165.48 120.395 165.48 218.929 154.752" stroke="#111212" stroke-width="0.4" stroke-linecap="round" stroke-linejoin="round"/>
<path d="M-77.0742 156.535C21.22 168.197 120.37 168.197 218.664 156.535" stroke="#111212" stroke-width="0.4" stroke-linecap="round" stroke-linejoin="round"/>
<path d="M-76.793 158.312C21.2559 170.901 120.334 170.901 218.377 158.312" stroke="#111212" stroke-width="0.4" stroke-linecap="round" stroke-linejoin="round"/>
<path d="M-76.4863 160.078C21.2933 173.594 120.306 173.594 218.079 160.078" stroke="#111212" stroke-width="0.4" stroke-linecap="round" stroke-linejoin="round"/>
</g>
</g>
<defs>
<clipPath id="clip0_447_3197">
<rect width="299.759" height="298.353" fill="white" transform="translate(-79.084 -16.4844)"/>
</clipPath>
</defs>
</svg>
