<svg width="40" height="40" viewBox="0 0 40 40" fill="none" xmlns="http://www.w3.org/2000/svg">
<g id="vuesax/bold/camera">
<g id="vuesax/linear/camera">
<g id="camera">
<path id="Vector" d="M11.2658 36.6661H28.7325C33.3325 36.6661 35.1658 33.8494 35.3825 30.4161L36.2491 16.6494C36.4825 13.0494 33.6158 9.99943 29.9991 9.99943C28.9825 9.99943 28.0491 9.4161 27.5825 8.5161L26.3825 6.09943C25.6158 4.58276 23.6158 3.33276 21.9158 3.33276H18.0991C16.3825 3.33276 14.3825 4.58276 13.6158 6.09943L12.4158 8.5161C11.9491 9.4161 11.0158 9.99943 9.99914 9.99943C6.38247 9.99943 3.51581 13.0494 3.74914 16.6494L4.61581 30.4161C4.81581 33.8494 6.66581 36.6661 11.2658 36.6661Z" stroke="white" stroke-width="1.5" stroke-linecap="round" stroke-linejoin="round"/>
<path id="Vector_2" d="M17.5 13.3328H22.5" stroke="white" stroke-width="1.5" stroke-linecap="round" stroke-linejoin="round"/>
<path id="Vector_3" d="M20.0011 30.0006C22.9845 30.0006 25.4178 27.5672 25.4178 24.5839C25.4178 21.6006 22.9845 19.1672 20.0011 19.1672C17.0178 19.1672 14.5845 21.6006 14.5845 24.5839C14.5845 27.5672 17.0178 30.0006 20.0011 30.0006Z" stroke="white" stroke-width="1.5" stroke-linecap="round" stroke-linejoin="round"/>
</g>
</g>
</g>
</svg>
