<svg width="40" height="40" viewBox="0 0 40 40" fill="none" xmlns="http://www.w3.org/2000/svg">
<g id="vuesax/bold/dollar-square">
<g id="vuesax/linear/dollar-square">
<g id="dollar-square">
<path id="Vector" d="M14.4531 23.8836C14.4531 26.0336 16.1031 27.767 18.1531 27.767H22.3365C24.1198 27.767 25.5698 26.2503 25.5698 24.3836C25.5698 22.3503 24.6865 21.6336 23.3698 21.167L16.6531 18.8336C15.3365 18.367 14.4531 17.6503 14.4531 15.617C14.4531 13.7503 15.9031 12.2336 17.6865 12.2336H21.8698C23.9198 12.2336 25.5698 13.967 25.5698 16.117" stroke="white" stroke-width="1.5" stroke-linecap="round" stroke-linejoin="round"/>
<path id="Vector_2" d="M20 10V30" stroke="white" stroke-width="1.5" stroke-linecap="round" stroke-linejoin="round"/>
<path id="Vector_3" d="M25.0011 36.6661H15.0011C6.66781 36.6661 3.33447 33.3328 3.33447 24.9994V14.9994C3.33447 6.6661 6.66781 3.33276 15.0011 3.33276H25.0011C33.3345 3.33276 36.6678 6.6661 36.6678 14.9994V24.9994C36.6678 33.3328 33.3345 36.6661 25.0011 36.6661Z" stroke="white" stroke-width="1.5" stroke-linecap="round" stroke-linejoin="round"/>
</g>
</g>
</g>
</svg>
