<svg width="40" height="40" viewBox="0 0 40 40" fill="none" xmlns="http://www.w3.org/2000/svg">
<g id="vuesax/linear/emoji-happy">
<g id="emoji-happy">
<path id="Vector" d="M14.9987 36.6673H24.9987C33.332 36.6673 36.6654 33.334 36.6654 25.0006V15.0006C36.6654 6.66732 33.332 3.33398 24.9987 3.33398H14.9987C6.66536 3.33398 3.33203 6.66732 3.33203 15.0006V25.0006C3.33203 33.334 6.66536 36.6673 14.9987 36.6673Z" stroke="white" stroke-width="1.5" stroke-linecap="round" stroke-linejoin="round"/>
<path id="Vector_2" d="M25.832 16.25C27.2127 16.25 28.332 15.1307 28.332 13.75C28.332 12.3693 27.2127 11.25 25.832 11.25C24.4513 11.25 23.332 12.3693 23.332 13.75C23.332 15.1307 24.4513 16.25 25.832 16.25Z" stroke="white" stroke-width="1.5" stroke-miterlimit="10" stroke-linecap="round" stroke-linejoin="round"/>
<path id="Vector_3" d="M14.168 16.25C15.5487 16.25 16.668 15.1307 16.668 13.75C16.668 12.3693 15.5487 11.25 14.168 11.25C12.7873 11.25 11.668 12.3693 11.668 13.75C11.668 15.1307 12.7873 16.25 14.168 16.25Z" stroke="white" stroke-width="1.5" stroke-miterlimit="10" stroke-linecap="round" stroke-linejoin="round"/>
<path id="Vector_4" d="M14 22.1667H26C26.8333 22.1667 27.5 22.8334 27.5 23.6667C27.5 27.8167 24.15 31.1668 20 31.1668C15.85 31.1668 12.5 27.8167 12.5 23.6667C12.5 22.8334 13.1667 22.1667 14 22.1667Z" stroke="white" stroke-width="1.5" stroke-miterlimit="10" stroke-linecap="round" stroke-linejoin="round"/>
</g>
</g>
</svg>
