<svg width="40" height="40" viewBox="0 0 40 40" fill="none" xmlns="http://www.w3.org/2000/svg">
<g id="vuesax/bold/empty-wallet">
<g id="vuesax/linear/empty-wallet">
<g id="Group">
<path id="Vector" d="M30.0655 22.5839C29.3655 23.2672 28.9655 24.2506 29.0655 25.3006C29.2155 27.1006 30.8655 28.4172 32.6655 28.4172H35.8322V30.4006C35.8322 33.8506 33.0155 36.6672 29.5655 36.6672H10.4322C6.98219 36.6672 4.16553 33.8506 4.16553 30.4006V19.1839C4.16553 15.7339 6.98219 12.9172 10.4322 12.9172H29.5655C33.0155 12.9172 35.8322 15.7339 35.8322 19.1839V21.5839H32.4655C31.5322 21.5839 30.6822 21.9505 30.0655 22.5839Z" stroke="white" stroke-width="1.5" stroke-linecap="round" stroke-linejoin="round"/>
<path id="Vector_2" d="M4.16553 20.6832V13.0666C4.16553 11.0833 5.38219 9.31652 7.23219 8.61652L20.4655 3.61652C22.5322 2.83319 24.7489 4.36657 24.7489 6.58324V12.9165" stroke="white" stroke-width="1.5" stroke-linecap="round" stroke-linejoin="round"/>
</g>
<path id="Vector_3" d="M37.5969 23.2832V26.7166C37.5969 27.6333 36.8635 28.3832 35.9302 28.4165H32.6635C30.8635 28.4165 29.2135 27.0999 29.0635 25.2999C28.9635 24.2499 29.3635 23.2665 30.0635 22.5832C30.6802 21.9499 31.5302 21.5833 32.4635 21.5833H35.9302C36.8635 21.6166 37.5969 22.3665 37.5969 23.2832Z" stroke="white" stroke-width="1.5" stroke-linecap="round" stroke-linejoin="round"/>
<path id="Vector_4" d="M11.6655 20H23.3322" stroke="white" stroke-width="1.5" stroke-linecap="round" stroke-linejoin="round"/>
</g>
</g>
</svg>
