<svg width="490" height="490" viewBox="0 0 490 490" fill="none" xmlns="http://www.w3.org/2000/svg">
<g clip-path="url(#clip0_193_11516)">
<path d="M100.81 102.957C110.087 91.0337 123.39 85.4232 133.558 74.7085C139.422 68.5263 141.553 65.4965 149.45 62.9648C162.174 58.8897 157.984 61.013 169.205 51.0578C180.524 41.0128 192.783 48.2893 206.821 47.5707C213.534 47.2277 218.483 43.0137 224.29 42.2623C232.383 41.2088 237.781 44.451 245.4 46.3375C251.28 47.7912 256.866 48.9263 262.991 48.4282C268.733 47.9627 275.094 43.6017 280.501 43.6752C293.616 43.8712 310.897 57.1583 321.595 63.6998C333.756 71.1397 340.738 74.1858 354.123 77.526C368.423 81.0948 378.239 94.0472 389.999 102.671" stroke="#111212" stroke-width="0.6" stroke-linecap="round" stroke-linejoin="round"/>
<path d="M99.1025 105.032C108.992 92.9449 122.361 87.6366 133.141 76.9383C139.225 70.8949 141.651 66.6809 149.646 63.9288C162.182 59.6168 158.662 61.8463 170.144 52.5608C181.774 43.1528 191.549 52.0054 205.531 51.2214C213.322 50.7804 220.002 45.8968 227.221 45.1209C233.51 44.4431 239.528 47.4648 245.408 49.0573C251.288 50.6498 257.381 52.5689 263.596 51.7768C271.297 50.7968 274.621 44.7943 281.685 44.5329C293.608 44.0838 310.66 59.6984 320.672 65.7254C326.381 69.1554 331.477 73.1816 337.798 75.5908C343.506 77.7713 349.092 76.6198 354.442 78.0571C368.317 81.8056 380.779 95.6808 391.722 104.607" stroke="#111212" stroke-width="0.6" stroke-linecap="round" stroke-linejoin="round"/>
<path d="M97.4204 106.975C107.531 94.9291 120.524 90.4864 131.933 80.5068C138.36 74.8799 140.336 68.2323 148.642 65.1779C158.719 61.4703 160.581 65.4883 169.377 56.5703C177.307 48.5261 175.535 47.9054 187.107 51.4416C192.807 53.1811 199.014 55.6719 205.131 55.1901C212.603 54.6021 219.659 49.3346 227.034 48.5343C233.616 47.8238 239.186 50.1758 245.4 51.9153C251.133 53.5241 257.683 56.0639 263.767 55.1084C271.117 53.9488 274.776 46.4191 282.036 45.8393C293.935 44.8838 310.881 62.6871 321.432 68.7958C327.034 72.0379 332.482 75.4026 338.745 77.2646C344.25 78.8979 350.75 76.9379 355.585 78.3998C367.958 82.1401 384.038 97.9181 393.389 106.485" stroke="#111212" stroke-width="0.6" stroke-linecap="round" stroke-linejoin="round"/>
<path d="M95.7544 108.821C102.484 103.512 107.318 97.3547 114.399 92.4629C119.609 88.8614 125.751 86.7544 130.724 82.7119C136.825 77.7547 139.944 69.8657 147.629 66.7705C156.237 63.3079 160.541 66.6644 168.593 60.1065C177.241 53.0669 174.04 49.7022 186.519 53.9734C192.219 55.9252 198.328 60.2699 204.73 59.641C211.942 58.9305 219.177 52.8137 226.862 51.9562C233.73 51.1885 238.826 52.8872 245.417 54.7982C251.052 56.4315 257.969 59.5512 263.971 58.4977C270.872 57.289 275.217 48.2649 282.428 47.3257C293.935 45.823 310.889 65.5047 322.241 71.5725C327.827 74.5615 333.527 77.3709 339.75 78.7347C345.115 79.9189 351.681 78.4897 356.786 80.2129C368.415 84.141 386.749 99.5842 395.079 108.314" stroke="#111212" stroke-width="0.6" stroke-linecap="round" stroke-linejoin="round"/>
<path d="M94.1045 110.585C105.317 103.619 115.893 94.1291 126.967 86.5423C134.448 81.4136 139.797 72.2179 147.964 68.3061C153.533 65.6438 160.271 66.9586 166.053 63.9124C175.6 58.8736 173.762 53.2958 184.542 55.5661C193.068 57.3628 194.399 63.6021 203.366 62.8263C210.071 62.2464 215.763 57.2403 222.403 55.8029C232.031 53.7123 236.131 55.2558 245.4 57.7303C252.562 59.6413 257.176 62.1811 264.567 60.1558C271.06 58.3754 276.793 49.7433 283.636 49.4493C296.474 48.8939 309.508 67.3914 321.081 73.1979C333.959 79.6578 348.153 78.0163 360.379 83.7901C372.212 89.3843 387.361 101.144 396.696 110.16" stroke="#111212" stroke-width="0.6" stroke-linecap="round" stroke-linejoin="round"/>
<path d="M92.4878 112.275C104.109 106.158 114.497 95.7297 125.783 88.5267C133.321 83.7247 139.675 74.8638 147.025 70.5845C152.325 67.4975 159.634 68.8042 165.302 66.5665C171.133 64.2635 176.735 55.5823 183.979 57.5505C194.465 60.4088 192.252 68.2488 202.983 66.9503C209.516 66.1582 215.535 60.172 222.199 58.6612C231.689 56.497 236.344 58.0323 245.409 60.5885C253.2 62.7853 256.948 65.3252 264.755 62.9568C271.215 60.9968 276.834 53.2222 284.004 52.7322C294.123 52.0462 295.372 56.3908 303.049 63.112C308.904 68.2407 314.678 72.422 321.808 75.5988C334.972 81.4543 349.338 79.1105 361.53 85.9052C373.993 92.855 387.549 102.671 398.321 111.973" stroke="#111212" stroke-width="0.6" stroke-linecap="round" stroke-linejoin="round"/>
<path d="M90.8789 113.933C103.064 108.086 112.913 97.5509 124.607 90.5521C133.158 85.4397 138.262 78.6287 146.086 73.3857C151.582 69.7026 158.499 70.8132 164.559 69.1227C168.274 68.0856 180.075 58.4326 183.415 59.2574C186.11 64.1819 189.941 67.6201 194.898 69.5801C197.364 72.0546 199.928 72.1852 202.599 69.9721C209.32 69.1064 215.282 63.2672 221.987 61.5931C232.138 59.0614 235.682 60.7519 245.4 63.3652C253.396 65.5049 256.491 67.7099 264.919 65.0067C271.305 62.9569 277.25 56.4971 284.347 56.1949C299.072 55.5661 308.455 72.3812 322.518 77.7957C336.369 83.1286 350.097 80.3437 362.666 88.1266C375.389 96.0074 388.105 104.656 399.93 113.803" stroke="#111212" stroke-width="0.6" stroke-linecap="round" stroke-linejoin="round"/>
<path d="M89.3027 115.567C115.755 103.333 134.954 76.8403 163.824 71.6381C169.026 70.6989 178.687 63.2509 182.868 63.4388C185.522 68.4123 189.385 71.4911 194.457 72.6671C197.037 74.4964 199.626 74.5128 202.231 72.7161C209.132 71.7279 215.053 66.3869 221.791 64.5576C232.62 61.6258 235.053 63.3408 245.409 65.9868C253.755 68.1183 255.886 70.1844 265.098 67.1383C271.452 65.0313 277.691 59.9434 284.698 59.7883C299.929 59.4616 308.855 75.0436 323.221 79.8048C337.676 84.5986 350.603 82.0588 363.793 90.4296C376.59 98.5473 389.199 106.836 401.523 115.632" stroke="#111212" stroke-width="0.6" stroke-linecap="round" stroke-linejoin="round"/>
<path d="M87.7427 117.192C113.264 105.971 135.052 76.9219 163.08 74.1616C168.47 73.6308 177.388 69.5311 182.305 70.0211C190.978 70.8868 192.505 76.6198 201.839 75.1906C208.863 74.1208 214.816 69.4984 221.578 67.5221C233.118 64.1493 234.441 65.6764 245.408 68.3878C254.245 70.5764 255.143 72.6916 265.27 69.3678C271.623 67.2853 278.132 63.4551 285.041 63.4796C300.231 63.5449 309.656 77.5099 323.923 81.6831C339.227 86.1584 350.856 83.8064 364.903 92.8224C377.684 101.022 390.546 108.911 403.066 117.518" stroke="#111212" stroke-width="0.6" stroke-linecap="round" stroke-linejoin="round"/>
<path d="M86.2075 118.833C99.2415 113.19 109.36 104.721 121.177 97.1097C133.468 89.1962 148.119 77.3137 162.37 76.7829C168.74 76.546 175.396 76.35 181.766 76.3092C188.773 76.2684 194.783 77.82 201.472 77.3709C208.577 76.8972 214.653 72.3729 221.374 70.4537C232.399 67.2932 234.694 68.2977 245.4 70.47C253.649 72.1442 256.189 73.9817 265.425 71.6705C271.893 70.0535 278.5 66.7869 285.368 67.2687C299.374 68.2487 310.987 79.9352 324.593 83.4714C332.482 85.5212 339.864 83.8634 347.459 85.3987C354.303 86.7789 360.273 91.6544 365.981 95.3049C378.803 103.512 391.894 111.009 404.601 119.454" stroke="#111212" stroke-width="0.6" stroke-linecap="round" stroke-linejoin="round"/>
<path d="M84.6885 120.507C97.9185 114.66 108.159 107.531 120.066 99.5436C131.72 91.7199 147.67 79.5026 161.667 79.5271C167.531 79.5352 175.526 83.8064 181.235 82.3527C184.689 77.6814 188.65 76.4074 193.134 78.5389C195.714 79.6414 198.377 79.8701 201.112 79.2412C217.274 78.4327 228.479 69.5147 245.4 72.1281C253.175 73.3286 256.899 75.5091 265.588 74.0146C272.22 72.8794 278.818 70.2906 285.695 71.0991C299.317 72.6997 311.812 82.0751 325.254 85.1866C332.816 86.9424 340.967 85.4642 348.333 87.2446C355.185 88.9024 361.244 94.1781 367.043 97.8286C379.962 105.963 393.233 113.1 406.112 121.422" stroke="#111212" stroke-width="0.6" stroke-linecap="round" stroke-linejoin="round"/>
<path d="M83.2021 122.23C96.3423 116.097 107.016 110.315 118.988 102.108C130.365 94.3003 147.025 82.1238 160.99 82.4014C166.853 82.5239 175.224 88.8858 180.728 87.6281C183.971 83.6999 187.972 81.6174 192.725 81.3643C195.363 80.6129 198.05 80.4251 200.769 80.8008C215.551 78.7836 230.006 71.8419 245.408 73.3364C252.685 74.0388 257.487 77.1503 265.76 76.3744C272.612 75.7374 279.088 74.0224 286.021 74.9534C299.594 76.7664 312.522 84.1654 325.915 86.9013C333.535 88.4611 341.734 87.1463 349.207 89.2941C356.075 91.2623 362.126 96.7666 368.096 100.401C381.163 108.363 394.63 115.248 407.607 123.463" stroke="#111212" stroke-width="0.6" stroke-linecap="round" stroke-linejoin="round"/>
<path d="M81.7319 124.027C95.6888 116.922 107.596 112.038 120.72 102.965C132.079 95.1169 148.021 84.2144 162.231 85.3985C169.997 86.0437 173.664 91.548 181.716 89.6615C186.192 87.8649 190.128 85.1944 193.534 81.6582C196.171 82.0012 198.817 82.3524 201.455 82.6954C215.739 80.1065 230.684 75.133 245.408 76.5214C258.238 77.73 272.783 76.3662 285.384 78.8734C299.749 81.7317 313.951 86.599 328.578 89.0164C344.454 91.6379 352.098 92.9935 366.422 101.373C380.583 109.662 395.103 116.865 409.085 125.595" stroke="#111212" stroke-width="0.6" stroke-linecap="round" stroke-linejoin="round"/>
<path d="M80.2783 125.914C93.8595 118.253 106.616 115.077 119.674 105.709C131.369 97.3223 146.379 86.9915 161.561 88.4206C169.074 89.123 172.782 94.3333 181.21 92.4141C188.462 90.7563 193.525 85.4316 201.104 83.8555C214.726 81.0298 231.378 78.9065 245.4 79.47C273.992 80.6051 300.909 86.7955 329.239 90.8461C345.458 93.1655 352.922 95.9911 367.418 104.101C381.816 112.153 396.418 119.062 410.522 127.833" stroke="#111212" stroke-width="0.6" stroke-linecap="round" stroke-linejoin="round"/>
<path d="M78.8574 127.906C91.7689 119.731 105.775 117.788 118.67 108.576C131.189 99.6333 144.64 90.0129 160.932 91.5646C168.446 92.2751 171.729 97.0444 180.737 94.8394C188.144 93.0264 193.648 86.6564 200.786 84.7863C205.62 83.5204 219.618 83.7899 225.073 83.3408C231.925 82.7773 238.573 83.2999 245.408 83.1693C274.229 82.5976 301.317 89.2534 329.884 92.8631C346.299 94.9374 353.788 99.0534 368.398 106.853C383.082 114.693 397.709 121.299 411.951 130.177" stroke="#111212" stroke-width="0.6" stroke-linecap="round" stroke-linejoin="round"/>
<path d="M77.4526 130.021C89.2698 121.52 104.403 120.736 116.734 112.234C129.474 103.447 141.757 92.5118 158.327 94.3738C168.388 95.5008 170.847 99.5024 181.725 96.8973C188.968 95.1659 194.35 89.8984 201.488 88.0773C215.755 84.4349 230.961 87.7833 245.408 87.3586C252.211 87.1626 258.32 84.9984 265.417 85.5129C272.301 86.0111 278.671 88.5836 285.36 89.5064C300.974 91.6624 316.785 93.4101 332.481 95.2966C348.365 97.2076 356.107 103.12 370.383 110.144C385.189 117.428 399.26 123.766 413.356 132.643" stroke="#111212" stroke-width="0.6" stroke-linecap="round" stroke-linejoin="round"/>
<path d="M76.0811 132.292C87.2612 123.145 103.546 123.153 115.763 115.223C130.104 105.922 139.953 95.7704 157.707 97.5671C166.47 98.4572 172.195 100.736 181.276 98.9554C188.601 97.5181 194.261 92.3486 201.178 90.3722C215.502 86.2726 230.578 92.0627 245.401 91.3196C252.628 90.9602 258.484 87.4812 265.548 87.6854C272.547 87.8896 278.949 92.4384 285.63 93.1571C301.114 94.8067 317.251 96.0399 333.102 97.8529C348.872 99.6577 356.884 106.24 371.322 112.798C386.602 119.74 400.437 126.085 414.728 135.24" stroke="#111212" stroke-width="0.6" stroke-linecap="round" stroke-linejoin="round"/>
<path d="M74.7251 134.505C86.0686 124.639 103.08 125.138 115.763 117.387C122.41 113.329 128.364 108.037 135.216 104.272C146.812 97.9018 147.106 99.9843 159.095 100.923C174.693 102.14 185.563 99.5188 199.838 93.941C215.625 87.7752 229.214 95.8438 245.392 95.0598C252.538 94.7087 259.12 90.1925 266.152 90.0618C272.791 89.9393 280.37 93.9492 286.83 94.6188C301.652 96.146 316.614 99.4208 331.697 100.678C339.39 101.315 343.874 100.376 351.632 104.043C358.386 107.236 364.291 111.997 371.191 114.937C387.304 121.797 401.253 128.192 416.084 137.984" stroke="#111212" stroke-width="0.6" stroke-linecap="round" stroke-linejoin="round"/>
<path d="M73.394 136.155C85.9217 127.008 101.602 127.425 114.832 120.107C121.651 116.334 127.637 111.075 134.448 107.253C145.481 101.054 146.796 102.116 158.515 102.533C173.248 103.047 185.784 102.908 199.545 97.0936C216.115 90.1029 228.438 99.4456 245.4 99.0944C254.106 98.9147 258.353 93.5574 266.291 92.2181C271.166 91.3932 281.963 95.9829 287.108 96.4811C302.093 97.9429 316.932 101.961 332.294 103.121C340.191 103.717 344.552 103.268 352.376 107.098C359.08 110.373 365.091 114.742 372.098 117.461C388.75 123.921 402.282 130.781 417.423 140.753" stroke="#111212" stroke-width="0.6" stroke-linecap="round" stroke-linejoin="round"/>
<path d="M72.0874 138.008C85.4971 129.719 100.213 129.393 113.901 122.688C130.03 114.782 139.405 104.329 157.927 103.97C172.913 103.676 184.649 103.97 199.251 100.115C216.948 95.4355 227.72 102.916 245.409 103.039C254.245 103.104 258.059 99.5352 266.438 97.4119C272.114 95.9745 281.677 97.3057 287.393 97.8366C302.739 99.2494 317.275 103.97 332.89 105.048C348.398 106.118 358.533 114.709 373.005 119.821C390.13 125.873 403.017 133.966 418.73 143.341" stroke="#111212" stroke-width="0.6" stroke-linecap="round" stroke-linejoin="round"/>
<path d="M70.8052 140.025C84.8763 132.773 98.8577 131.181 113.011 125.17C129.23 118.286 139.258 107.685 157.372 106.362C171.762 105.309 184.747 106.273 198.965 103.088C211.533 100.27 211.827 99.9597 224.257 102.736C231.395 104.329 237.952 106.64 245.417 106.885C260.198 107.375 272.971 98.114 287.655 99.4697C295.029 100.148 301.481 104.068 308.602 105.758C317.782 107.93 324.38 106.697 333.453 107.375C348.137 108.461 360.011 117.249 373.87 121.773C391.306 127.465 403.67 137.902 420.02 145.758" stroke="#111212" stroke-width="0.6" stroke-linecap="round" stroke-linejoin="round"/>
<path d="M69.5474 142.19C83.9534 133.737 97.0364 132.97 112.137 127.514C128.331 121.659 139.225 111.843 156.825 109.515C170.839 107.661 184.665 108.429 198.687 106.077C211.076 104.003 212.031 103.888 224.126 106.591C231.272 108.192 238.001 110.177 245.408 110.585C252.244 110.961 260.345 111.099 266.691 108.119C275.323 104.06 277.038 99.6335 287.9 101.422C295.241 102.631 301.701 107.163 308.978 108.78C317.847 110.756 325.205 109.148 333.992 109.981C347.982 111.312 361.367 119.536 374.703 123.586C391.992 128.829 404.609 142.982 421.269 148.013" stroke="#111212" stroke-width="0.6" stroke-linecap="round" stroke-linejoin="round"/>
<path d="M68.3145 144.452C82.8756 134.824 95.387 134.521 111.279 129.67C127.163 124.828 139.462 116.285 156.294 113.182C170.577 110.544 183.987 110.52 198.418 109.099C215.314 107.433 228.602 112.896 245.409 114.072C251.509 114.497 261.244 115.624 266.813 113.035C276.034 108.739 276.23 101.896 288.145 103.717C295.413 104.819 301.938 110.324 309.354 111.794C317.855 113.476 326.046 111.745 334.523 112.798C348.08 114.472 362.502 121.683 375.528 125.391C392.368 130.185 406.047 147.547 422.503 150.12" stroke="#111212" stroke-width="0.6" stroke-linecap="round" stroke-linejoin="round"/>
<path d="M67.1055 146.796C82.222 137.037 93.6226 135.746 110.438 131.704C117.747 129.948 123.839 125.84 130.83 123.145C139.666 119.74 146.624 119.282 155.771 117.2C163.105 115.534 169.605 112.675 176.857 112.096C183.676 111.548 191.157 112.447 198.148 112.194C214.522 111.589 229.075 116.081 245.408 117.314C250.945 117.731 262.027 119.682 266.927 117.526C276.711 113.223 275.756 104.46 288.381 106.346C295.519 107.416 302.134 113.427 309.713 114.701C318.01 116.097 326.707 114.423 335.046 115.705C342.485 116.849 348.864 120.164 355.854 122.68C362.722 125.154 369.558 125.293 376.336 127.163C392.825 131.704 407.304 151.369 423.711 152.055" stroke="#111212" stroke-width="0.6" stroke-linecap="round" stroke-linejoin="round"/>
<path d="M65.9214 149.205C81.1767 138.996 92.0302 136.587 109.605 133.631C117.265 132.341 123.047 128.715 130.144 126.134C138.18 123.21 147.016 123.447 155.248 121.381C162.737 119.494 169.099 115.713 176.465 114.75C183.203 113.868 190.978 115.231 197.878 115.378C213.959 115.73 229.345 119.16 245.408 120.262C251.901 120.711 260.95 122.524 267.05 119.862C276.548 115.713 277.201 107.93 288.626 109.564C295.748 110.585 302.379 116.375 310.08 117.453C318.459 118.629 327.083 117.134 335.568 118.67C342.918 120.001 349.411 123.537 356.508 125.546C363.27 127.457 370.391 127.122 377.129 128.976C393.846 133.566 407.615 154.497 424.887 153.901" stroke="#111212" stroke-width="0.6" stroke-linecap="round" stroke-linejoin="round"/>
<path d="M64.7617 151.655C92.0221 132.978 123.488 132.831 154.75 125.587C171.018 121.814 180.541 117.265 197.633 118.678C213.616 119.993 229.418 122.157 245.408 122.917C253.02 123.276 259.741 124.672 267.164 121.675C275.739 118.213 278.9 112.667 288.855 113.827C296.181 114.676 302.787 119.013 310.431 119.96C318.99 121.014 327.483 120.017 336.067 121.659C343.343 123.047 349.942 126.665 357.145 128.192C364.021 129.646 371.053 128.878 377.913 130.822C395.308 135.755 407.386 157.078 426.055 155.624" stroke="#111212" stroke-width="0.6" stroke-linecap="round" stroke-linejoin="round"/>
<path d="M63.6265 154.146C78.7675 143.627 89.6046 138.115 108.029 137.372C116.563 137.029 121.242 134.276 128.854 132.112C135.877 130.12 146.788 131.132 154.268 129.679C161.969 128.184 168.617 124.231 175.738 122.288C183.17 120.254 189.132 120.916 197.388 122.075C213.509 124.338 229.197 125.081 245.408 125.236C253.265 125.309 259.488 126.485 267.27 123.897C275.388 121.202 280.059 117.069 289.075 117.951C296.401 118.67 303.326 121.267 310.766 122.092C319.284 123.031 328.112 122.982 336.548 124.607C343.8 126.004 350.44 129.311 357.757 130.405C364.87 131.467 371.673 130.552 378.664 132.741C396.696 138.384 407.165 159.152 427.19 157.298" stroke="#111212" stroke-width="0.6" stroke-linecap="round" stroke-linejoin="round"/>
<path d="M62.5161 156.677C77.4121 146.257 88.8046 139.021 107.269 139.282C122.778 139.495 138.295 135.73 153.803 133.549C161.978 132.398 168.127 129.45 175.388 127.024C178.695 122.802 183.04 121.773 188.422 123.954C191.329 124.501 194.236 125.048 197.144 125.603C213.804 128.241 228.577 127.473 245.4 127.22C252.799 127.106 260.027 128.257 267.369 126.469C275.299 124.542 280.803 121.177 289.28 121.847C296.548 122.418 303.857 123.774 311.077 124.476C319.439 125.293 328.733 125.963 336.998 127.531C344.315 128.919 350.906 131.851 358.329 132.561C365.753 133.272 372.172 132.186 379.375 134.766C398.084 141.455 406.839 160.687 428.285 158.956" stroke="#111212" stroke-width="0.6" stroke-linecap="round" stroke-linejoin="round"/>
<path d="M61.438 159.25C76.0482 149.001 88.1757 140.172 106.534 141.283C122.925 142.279 137.02 138.302 153.354 137.085C161.365 136.489 167.572 136.024 175.053 133.19C184.706 129.548 187.033 127.873 196.923 129.041C207.254 130.266 212.636 132.822 223.334 132.063C230.684 131.54 238.009 129 245.408 128.829C252.84 128.657 259.896 130.609 267.483 129.303C275.209 127.98 281.391 124.721 289.5 125.121C304.682 125.873 322.371 127.571 337.471 130.372C344.87 131.744 351.371 134.57 358.925 134.929C366.822 135.313 372.523 133.925 380.101 136.873C399.971 144.615 406.063 161.626 429.379 160.589" stroke="#111212" stroke-width="0.6" stroke-linecap="round" stroke-linejoin="round"/>
<path d="M60.3843 161.871C74.7413 151.81 87.5956 141.618 105.815 143.439C122.965 145.162 135.828 140.352 152.913 140.23C160.532 140.172 167.327 141.879 174.726 139.25C185.342 135.477 185.138 128.355 196.702 132.169C206.568 135.419 212.693 138.131 223.236 136.122C230.594 134.725 237.87 130.479 245.408 130.095C253.428 129.686 258.802 133.419 267.581 132.365C275.168 131.459 281.832 127.824 289.696 127.882C304.51 127.996 323.122 130.552 337.904 133.206C345.336 134.537 351.787 137.396 359.48 137.477C367.933 137.559 372.784 135.852 380.787 139.176C391.902 143.807 396.271 152.627 405.9 158.67C413.356 163.349 422.045 162.231 430.432 162.353" stroke="#111212" stroke-width="0.6" stroke-linecap="round" stroke-linejoin="round"/>
<path d="M59.3472 164.558C73.6633 154.53 86.8443 143.66 105.097 145.8C112.667 146.69 118.751 149.303 126.453 147.645C136.653 145.457 141.708 142.459 152.464 142.909C159.879 143.219 166.935 146.894 174.391 145.056C184.599 142.541 184.673 132.267 196.474 134.799C207.834 137.241 210.602 143.39 223.13 140.361C231.1 138.433 236.85 132.161 245.4 132.292C253.836 132.423 258.622 136.612 267.679 135.559C275.249 134.677 282.191 130.61 289.9 130.16C298.23 129.67 304.192 133.256 312.016 134.66C320.427 136.171 329.672 134.538 338.345 136.016C345.736 137.274 352.326 139.838 360.036 140.067C367.631 140.287 374.18 138.76 381.465 141.667C392.474 146.069 397.096 156.433 406.741 161.806C413.854 165.775 423.793 163.513 431.453 164.24" stroke="#111212" stroke-width="0.6" stroke-linecap="round" stroke-linejoin="round"/>
<path d="M58.3428 167.327C72.9774 157.078 85.8154 146.445 104.419 148.446C112.112 149.27 118.098 151.32 125.906 150.03C136.677 148.258 140.777 144.027 152.055 145.114C159.536 145.832 166.502 151.402 174.089 150.593C183.023 149.646 186.837 136.473 196.278 136.792C200.239 140.23 204.698 142.655 209.647 144.06C213.869 146.298 218.336 146.535 223.048 144.771C232.138 142.378 235.862 134.187 245.417 135.142C254.179 136.024 258.132 140.165 267.785 138.842C275.445 137.788 282.493 132.815 290.096 132.031C299.341 131.075 303.849 135.951 312.318 137.837C320.632 139.691 329.909 136.767 338.77 138.85C352.073 141.978 369.746 139.781 382.135 144.362C392.8 148.307 397.39 160.14 407.574 164.518C414.94 167.678 424.699 164.779 432.474 166.314" stroke="#111212" stroke-width="0.6" stroke-linecap="round" stroke-linejoin="round"/>
<path d="M57.3711 170.226C72.7081 159.429 84.4273 149.776 103.766 151.459C111.336 152.12 117.731 153.549 125.375 152.014C136.073 149.866 140.451 144.697 151.655 146.869C159.283 148.347 166.192 155.673 173.787 155.82C179.928 159.282 184.379 156.465 187.139 147.375C190.112 144.231 193.093 141.095 196.066 137.951C199.863 142.173 204.338 145.35 209.492 147.482C213.501 150.364 217.985 150.961 222.942 149.286C225.939 147.539 228.928 145.791 231.925 144.043C235.69 135.55 240.182 133.704 245.4 138.506C254.482 140.058 257.291 143.962 267.859 142.149C275.658 140.809 282.828 134.619 290.268 133.59C300.15 132.226 303.335 138.629 312.579 140.858C320.664 142.802 330.26 139.527 339.154 141.781C346.577 143.66 353.38 145.203 361.073 146.11C367.206 146.836 377.121 145.399 382.747 147.335C393.805 151.14 396.949 163.439 408.35 166.845C416.386 169.246 425.067 165.946 433.438 168.682" stroke="#111212" stroke-width="0.6" stroke-linecap="round" stroke-linejoin="round"/>
<path d="M56.4482 173.174C72.0629 162.1 82.4101 153.223 102.067 154.456C109.385 154.913 115.975 155.501 123.284 154.015C131.206 152.398 140.72 146.363 149.066 147.506C157.282 148.633 167.997 161.912 175.126 161.83C184.796 161.716 187.066 145.375 197.005 144.599C206.209 143.88 209.41 154.276 218.973 154.252C231.321 154.219 232.464 141.283 245.4 142.786C253.632 143.741 258.116 147.196 267.426 145.26C275.495 143.586 281.881 137.641 289.411 135.803C300.493 133.092 305.254 141.422 315.675 143.096C324.111 144.444 332.898 143.937 341.734 145.636C348.905 147.016 356.083 148.388 363.237 149.785C369.542 151.018 378.844 149.817 384.52 151.769C395.724 155.624 397.937 165.734 409.673 168.846C417.97 171.042 425.671 167.155 434.353 171.353" stroke="#111212" stroke-width="0.6" stroke-linecap="round" stroke-linejoin="round"/>
<path d="M55.5581 176.294C71.9813 164.452 80.9319 156.612 101.471 157.445C108.862 157.747 115.55 157.216 122.802 155.477C129.385 153.893 141.806 147.212 148.707 148.249C158.221 149.679 165.702 164.044 174.881 164.207C184.24 164.37 188.92 149.556 196.841 147.572C201.954 141.251 206.364 143.317 210.063 153.762C213.003 155.207 215.951 156.653 218.891 158.098C227.94 159.046 236.27 148.87 245.417 147.629C252.587 146.657 259.749 150.062 267.524 148.372C275.731 146.592 282.208 138.907 289.59 137.314C296.638 135.803 309.084 143.701 315.952 144.975C324.797 146.616 333.021 146.649 342.126 149.05C355.463 152.561 372.4 152.357 385.124 157.339C396.035 161.61 398.697 168.258 410.424 170.455C419.473 172.145 426.357 168.47 435.275 174.448" stroke="#111212" stroke-width="0.6" stroke-linecap="round" stroke-linejoin="round"/>
<path d="M54.6924 178.213C63.0959 173.362 71.8342 164.142 80.9074 160.785C88.0859 158.123 91.7527 160.736 98.6536 160.695C115.191 160.605 132.504 148.527 148.356 150.675C158.687 152.071 162.411 163.309 171.28 165.587C182.354 168.429 186.568 157.894 194.359 153.95C197.821 147.686 202.452 147.465 208.25 153.272C211.345 155.852 214.432 158.433 217.528 161.014C227.311 163.978 236.368 154.056 245.409 152.324C253.216 150.83 260.876 152.88 268.643 150.985C276.368 149.099 283.857 141.259 291.836 140.875C298.99 140.532 307.753 145.832 314.931 146.869C323 148.029 330.023 148.788 337.896 150.642C354.45 154.546 371.78 157.616 387.696 163.954C396.394 167.416 400.404 170.397 409.918 171.933C419.571 173.492 426.292 172.325 436.133 176.596" stroke="#111212" stroke-width="0.6" stroke-linecap="round" stroke-linejoin="round"/>
<path d="M53.8428 179.381C64.8923 175.779 69.7351 167.653 80.2293 163.219C87.1464 160.295 91.2461 162.476 98.0734 163.194C115.591 165.048 130.74 149.311 148.004 151.753C158.123 153.19 161.798 163.088 171.018 166.379C181.725 170.21 186.208 163.505 194.179 158.923C197.625 154.521 202.272 152.545 208.119 153.002C211.223 156.457 214.326 159.911 217.429 163.366C227.499 168.152 236.621 159.854 245.4 156.718C253.289 153.901 260.835 155.616 268.708 153.664C276.883 151.639 283.122 144.975 291.975 145.113C306.609 145.342 324.159 151.198 338.206 154.26C355.658 158.058 371.175 163.407 388.235 169.385C404.381 175.036 420.322 172.88 436.957 178.066" stroke="#111212" stroke-width="0.6" stroke-linecap="round" stroke-linejoin="round"/>
<path d="M53.0264 180.622C64.427 183.693 70.5439 169.744 79.568 165.669C86.2565 162.647 90.7809 164.436 97.5102 165.228C115.346 167.335 129.581 150.299 147.67 153.354C167.376 156.686 172.17 177.298 194.016 163.644C198.654 159.977 203.318 156.343 208.005 152.741C211.117 156.735 214.228 160.728 217.348 164.73C228.275 172.619 235.364 165.636 245.409 160.769C253.322 156.931 260.509 157.764 268.798 155.714C277.308 153.607 282.983 148.486 292.146 149.221C307.238 150.438 323.89 153.746 338.541 156.767C356.434 160.459 371.363 169.483 388.783 174.105C397.26 176.351 402.364 174.048 411.241 174.318C420.853 174.612 428.179 179.667 437.783 179.642" stroke="#111212" stroke-width="0.6" stroke-linecap="round" stroke-linejoin="round"/>
<path d="M52.2422 181.945C63.2917 189.532 70.4539 172.341 78.9472 168.135C85.2273 165.024 90.4459 165.971 96.9792 167.041C115.542 170.079 128.47 151.884 147.359 155.003C166.371 158.139 173.403 179.356 193.86 168.225C198.777 164.885 203.456 161.235 207.891 157.257C211.01 159.765 214.138 162.28 217.258 164.787C230.096 175.085 231.884 172.235 245.4 164.395C274.122 147.751 307.671 156.032 338.827 159.601C357.39 161.725 371.853 175.681 389.289 178.229C397.521 179.438 403.384 175.134 411.861 175.371C422.192 175.657 428.097 185.065 438.566 181.284" stroke="#111212" stroke-width="0.6" stroke-linecap="round" stroke-linejoin="round"/>
<path d="M51.4746 183.341C63.0386 189.63 70.1109 175.142 78.3348 170.61C84.4761 167.22 89.8743 167.849 96.4648 168.699C115.828 171.198 127.776 154.366 147.057 156.792C166.118 159.193 174.187 181.888 193.713 172.676C202.566 168.494 206.208 157.674 217.184 163.211C219.496 172.717 224.2 176.408 231.288 174.293C236.842 174.399 241.546 172.161 245.4 167.572C258.067 159.429 277.267 154.611 292.408 156.996C300.297 158.237 307.99 161.079 315.813 162.696C324.837 164.566 330.652 163.129 339.113 162.81C358.1 162.1 372.572 180.483 389.779 181.324C398.019 181.724 403.964 176.138 412.466 176.449C422.535 176.808 428.562 185.636 439.326 183.039" stroke="#111212" stroke-width="0.6" stroke-linecap="round" stroke-linejoin="round"/>
<path d="M50.7314 184.836C64.3453 188.928 67.9713 179.095 77.7468 173.125C83.6758 169.507 89.3924 169.736 95.9666 170.308C109.874 171.525 111.467 170.675 123.562 163.66C131.377 159.128 137.943 157.796 146.763 158.858C165.645 161.128 175.028 184.542 193.566 177.013C201.202 173.917 207.548 160.769 217.103 162.272C218.614 172.897 223.326 177.609 231.247 176.416C236.85 177.372 241.562 175.314 245.4 170.259C259.765 160.508 275.086 156.457 292.53 160.589C300.484 162.468 307.99 166.184 316.009 167.809C325.303 169.695 330.815 166.968 339.382 166.38C358.084 165.097 373.364 183.726 390.252 183.448C398.305 183.317 404.797 176.735 413.054 177.568C422.527 178.523 429.379 185.637 440.069 184.836" stroke="#111212" stroke-width="0.6" stroke-linecap="round" stroke-linejoin="round"/>
<path d="M50.021 186.428C54.5372 186.216 59.0452 186.053 63.5613 185.938C70.1028 186.845 74.6517 183.423 77.1833 175.681C82.8837 171.851 88.9352 171.647 95.493 171.933C109.589 172.553 110.838 173.746 123.202 166.249C131.026 161.504 137.363 159.797 146.486 160.818C165.628 162.966 175.575 187.319 193.436 181.194C201.619 178.392 206.992 164.46 217.037 166.191C219.634 173.909 224.363 177.78 231.223 177.821C236.727 179.756 241.456 177.984 245.408 172.521C261.611 161.3 273.257 157.388 292.661 163.97C300.46 166.616 308.169 171.679 316.205 173.223C325.131 174.938 330.954 171.492 339.652 170.74C358.28 169.148 373.887 186.012 390.71 184.918C398.378 184.419 405.761 177.437 413.617 178.891L422.715 184.852C428.758 185.31 434.777 185.947 440.788 186.763" stroke="#111212" stroke-width="0.6" stroke-linecap="round" stroke-linejoin="round"/>
<path d="M49.335 188.127C53.9001 186.674 58.4326 186.527 62.9488 187.711C69.4495 190.079 74.0065 186.943 76.6443 178.319C82.2548 174.383 88.4206 173.656 95.0356 173.664C106.967 173.681 111.932 175.281 122.851 169.426C130.977 165.073 136.481 162.117 146.216 163.031C154.399 163.799 163.219 167.204 169.703 172.464C180.255 181.031 180.059 188.83 193.297 185.13C202.313 182.615 206.184 168.299 216.956 169.81C220.778 174.497 225.514 177.445 231.174 178.638C236.433 181.61 241.17 180.206 245.4 174.424C262.714 162.509 272.489 157.723 292.767 167.09C300.199 170.52 308.529 177.315 316.377 178.801C325.074 180.451 330.685 176.106 339.897 175.257C348.276 174.481 360.044 176.106 367.949 178.891C376.091 181.757 382.02 186.837 391.143 185.947C398.607 185.212 406.447 178.581 414.156 180.492C417.202 182.876 420.249 185.253 423.303 187.637C429.452 186.535 435.512 186.919 441.474 188.797" stroke="#111212" stroke-width="0.6" stroke-linecap="round" stroke-linejoin="round"/>
<path d="M48.6733 189.94C61.8543 187.155 64.435 188.862 76.1297 181.455C82.3037 177.543 87.3262 175.812 94.6027 175.526C104.076 175.15 113.427 177.053 122.533 173.272C131.026 169.744 135.673 165.13 145.971 165.759C154.407 166.281 162.737 169.67 169.532 175.069C179.43 182.941 180.786 191.23 193.183 188.65C202.819 186.641 206.094 173.1 216.898 173.166C232.758 173.264 229.32 186.845 245.4 176.032C263.171 164.084 272.383 158.262 292.881 169.858C300.411 174.121 307.924 181.43 316.548 182.941C324.935 184.411 331.501 180.385 340.133 179.642C348.186 178.948 360.42 178.646 368.276 180.793C376.63 183.08 382.298 187.702 391.559 186.714C399.693 185.849 406.063 180.687 414.671 182.909C417.733 184.632 420.796 186.355 423.858 188.078C430.122 187.89 436.206 188.829 442.127 190.896" stroke="#111212" stroke-width="0.6" stroke-linecap="round" stroke-linejoin="round"/>
<path d="M48.0444 191.868C57.0441 189.262 67.1381 188.936 75.6396 184.844C82.6221 181.48 86.1011 178.205 94.1943 177.584C102.1 176.972 114.684 179.716 122.222 177.78C130.683 175.616 135.428 168.364 145.734 168.47C164.967 168.666 176.302 193.779 193.068 191.549C202.893 190.251 206.51 177.584 216.841 176.343C231.696 174.562 230.79 187.017 245.408 177.519C253.902 171.998 258.238 165.595 269.214 164.958C277.56 164.468 285.972 167.939 292.995 172.219C301.162 177.2 306.985 185.057 316.72 186.682C324.658 188.005 332.408 184.624 340.37 183.897C348.178 183.178 360.852 180.892 368.602 182.28C376.99 183.783 382.763 188.266 391.975 187.433C401.196 186.6 405.45 183.644 415.185 185.963C424.413 188.16 433.699 190.324 442.78 193.076" stroke="#111212" stroke-width="0.6" stroke-linecap="round" stroke-linejoin="round"/>
<path d="M47.4404 193.917C57.2078 190.381 65.8808 191.051 75.1663 188.364C82.2468 186.322 85.5298 180.753 93.7944 179.846C102.876 178.85 113.051 181.316 121.92 180.042C130.446 178.817 136.751 171.704 145.506 171.222C163.954 170.21 177.013 194.399 192.962 193.566C202.517 193.068 207.229 181.512 216.784 179.381C230.439 176.335 232.219 187.294 245.409 179.038C254.245 173.501 257.618 167.572 269.263 167.515C276.622 167.474 286.577 170.308 293.094 174.097C302.257 179.413 306.038 188.454 316.875 190.316C324.184 191.574 333.159 188.903 340.583 188.013C348.839 187.033 360.616 183.309 368.897 184.052C376.998 184.779 383.744 188.691 392.351 188.266C410.326 187.368 425.867 189.197 443.385 195.338" stroke="#111212" stroke-width="0.6" stroke-linecap="round" stroke-linejoin="round"/>
<path d="M46.8604 196.09C51.401 193.958 56.0315 192.072 60.76 190.422C65.1374 188.062 69.7924 187.776 74.7168 189.557C81.1277 188.348 86.4033 183.317 93.4185 182.37C102.827 181.096 112.267 182.452 121.643 182.754C132.284 183.097 135.51 175.477 145.293 174.269C162.754 172.121 176.367 194.791 192.856 194.203C201.847 193.885 208.111 184.877 216.727 182.362C228.577 178.899 234.057 187.196 245.408 180.851C254.735 175.632 257.03 169.948 269.304 170.569C276.662 170.945 286.536 173.811 293.183 177.396C302.101 182.207 306.748 190.275 317.014 192.693C324.396 194.432 333.306 193.183 340.779 191.998C349.305 190.643 360.607 185.53 369.174 185.563C376.9 185.588 384.715 189.271 392.702 189.385C411.192 189.646 426.537 190.896 443.948 197.707" stroke="#111212" stroke-width="0.6" stroke-linecap="round" stroke-linejoin="round"/>
<path d="M46.3052 198.384C60.8908 191.288 77.0037 187.596 93.043 185.122C101.757 183.774 112.717 184.468 121.357 185.922L130.83 188.013C133.909 181.406 138.654 177.919 145.073 177.543C161.227 174.815 175.077 194.195 192.75 193.509C201.496 193.166 208.512 187.907 216.67 185.293C226.413 182.174 236.139 186.722 245.4 183.17C255.086 179.462 256.956 172.945 269.345 174.015C277.152 174.693 286.087 178.237 293.273 181.569C310.342 189.475 320.623 200.067 340.975 195.763C350.023 193.852 360.118 187.18 369.444 186.91C376.998 186.69 385.483 190.112 393.045 190.871C411.69 192.741 427.035 192.741 444.495 200.124" stroke="#111212" stroke-width="0.6" stroke-linecap="round" stroke-linejoin="round"/>
<path d="M45.7827 200.818C60.646 192.823 76.2852 190.839 92.7084 188.127C102.329 186.543 111.639 188.642 121.112 189.614C132.333 190.757 134.636 182.868 144.893 181.063C155.29 179.234 160.222 185.367 168.748 189.802C177.985 194.604 183.465 191.713 192.668 191.394C201.227 191.1 208.152 190.855 216.629 188.242C221.219 186.02 226.021 184.975 231.019 185.098C235.87 184.518 240.664 184.934 245.409 186.339C248.61 183.799 251.803 181.267 255.005 178.728C259.807 176.474 264.609 176.163 269.394 177.821C277.855 178.891 285.27 183.758 293.363 186.184C309.386 190.994 323.18 204.257 341.163 199.308C350.996 196.604 359.113 188.528 369.705 188.242C377.3 188.038 386.047 191.321 393.381 192.831C411.943 196.653 427.06 194.579 445.027 202.599" stroke="#111212" stroke-width="0.6" stroke-linecap="round" stroke-linejoin="round"/>
<path d="M45.2842 203.382C60.4497 194.579 75.6152 193.885 92.3895 191.361C102.794 189.793 110.879 193.852 120.875 193.819C129.989 193.795 136.171 186.232 144.713 184.803C155.248 183.047 159.667 188.127 168.617 192.447C180.573 198.213 181.872 190.74 192.578 190.193C201.096 189.76 207.719 193.525 216.58 191.239C221.227 189.246 226.029 187.866 230.994 187.09C235.821 185.465 240.623 185.857 245.408 188.258C248.61 186.2 251.819 184.142 255.02 182.084C259.929 180.034 264.731 179.969 269.435 181.88C277.993 183.35 285.049 189.475 293.445 191.19C302.559 193.06 308.569 195.077 317.414 198.989C325.678 202.639 332.187 205.767 341.334 202.574C351.428 199.062 358.59 190.046 369.942 189.646C377.659 189.368 386.504 193.117 393.682 195.346C412.172 201.088 426.586 196.416 445.524 205.13" stroke="#111212" stroke-width="0.6" stroke-linecap="round" stroke-linejoin="round"/>
<path d="M44.8188 206.069C60.7602 196.89 75.1907 195.804 93.2472 194.644C102.81 194.032 113.1 198.017 122.508 196.678C129.262 195.714 135.632 191.018 142.084 189.017C156.939 184.419 158.164 192.782 171.533 196.531C183.897 200.001 182.656 187.686 191.206 186.902C195.665 190.283 200.59 192.521 205.98 193.623C210.823 195.763 215.747 195.567 220.762 193.027C229.263 190.634 236.695 189.091 245.409 187.907C254.114 186.722 260.909 183.227 270.056 185.947C278.655 188.503 285.507 195.003 294.686 195.845C298.051 197.021 301.334 196.816 304.527 195.232C310.864 192.006 315.781 194.587 319.276 202.966C327.982 208.552 334.801 207.743 343.817 203.644C352.367 199.756 358.386 192.88 368.301 191.745C377.006 190.749 384.797 195.069 392.694 197.894C411.192 204.518 426.741 199.16 445.998 207.694" stroke="#111212" stroke-width="0.6" stroke-linecap="round" stroke-linejoin="round"/>
<path d="M44.3779 208.903C61.0869 200.516 74.2679 197.903 92.9696 198.221C103.104 198.393 112.259 201.913 122.312 199.356C128.895 197.682 135.265 195.15 141.929 193.468C158.67 189.254 155.747 196.506 171.427 198.964C181.178 200.492 183.546 191.492 191.133 189.916C203.154 187.425 207.777 199.561 220.729 196.408C229.32 194.318 236.384 189.736 245.409 188.723C253.575 187.809 262.281 187.482 270.088 190.332C278.957 193.566 285.033 200.083 294.752 200.41C308.61 200.867 305.45 196.923 319.382 205.44C329.182 211.435 333.935 210.757 343.972 205.734C352.408 201.512 358.501 195.567 368.505 194.162C378.264 192.799 384.324 198.213 392.964 201.406C402.633 204.975 407.68 203.881 417.333 203.187C427.444 202.46 437.26 206.845 446.439 210.332" stroke="#111212" stroke-width="0.6" stroke-linecap="round" stroke-linejoin="round"/>
<path d="M43.9614 211.859C61.4381 204.362 73.3859 200.01 92.7083 201.855C104.574 202.99 110.642 206.486 122.116 202.272C128.838 199.805 134.709 197.69 141.774 196.302C156.678 193.386 157.552 200.434 171.329 201.422C178.72 201.953 184.755 195.559 191.059 193.19C206.519 187.376 205.278 202.803 220.688 199.912C229.475 198.262 236.197 191.337 245.392 190.373C264.625 188.356 278.23 205.563 294.792 205.187C306.397 204.926 307.402 201.349 319.464 207.662C330.211 213.289 332.849 213.607 344.095 207.923C352.596 203.628 358.688 198.662 368.676 196.972C379.791 195.093 383.67 201.863 393.193 205.4C402.535 208.87 407.778 206.608 417.635 206.176C427.64 205.743 437.521 209.998 446.839 212.938" stroke="#111212" stroke-width="0.6" stroke-linecap="round" stroke-linejoin="round"/>
<path d="M43.5776 214.963C62.1405 208.217 73.337 201.872 93.6965 205.547C102.712 207.172 109.956 208.487 118.874 206.519C127.653 204.583 134.897 199.985 144.109 199.12C153.338 198.254 160.443 202.231 169.393 202.452C179.283 202.697 184.902 196.686 194.71 195.428C205.514 194.04 210.047 203.783 220.051 202.868C229.557 202.003 235.894 193.893 245.409 192.382C265.564 189.181 277.161 211.166 296.107 208.765C313.755 206.527 325.736 217.813 341.653 211.386C350.113 207.972 357.561 202.272 366.896 200.541C380.338 198.05 381.612 203.93 392.082 208.707C395.863 214.293 400.886 215.037 407.166 210.921C410.514 210.382 413.854 209.843 417.203 209.304C427.411 208.936 437.521 213.093 447.231 215.567" stroke="#111212" stroke-width="0.6" stroke-linecap="round" stroke-linejoin="round"/>
<path d="M43.2266 218.54C62.1569 212.104 72.6674 203.783 93.4842 209.075C102.802 211.443 109.221 212.251 118.711 209.818C127.384 207.588 134.75 202.517 143.987 202.174C152.652 201.847 160.68 205.538 169.304 205.155C178.14 204.763 185.89 201.063 194.653 199.716C206.315 197.919 209.467 206.992 220.027 206.38C229.737 205.824 235.837 197.641 245.409 195.681C252.595 194.211 259.537 196.588 265.711 200.091C279.635 207.98 280.068 214.701 296.156 212.48C312.735 210.193 326.006 218.826 341.767 213.297C350.195 210.34 357.954 205.302 367.051 204.003C379.685 202.198 382.119 207.629 392.286 211.786C396.304 216.776 401.335 217.421 407.403 213.721C410.759 213.289 414.108 212.856 417.464 212.423C427.672 212.26 437.726 216.22 447.583 218.311" stroke="#111212" stroke-width="0.6" stroke-linecap="round" stroke-linejoin="round"/>
<path d="M42.8999 221.872C63.3492 215.87 72.2754 206.241 94.5786 213.036C114.726 219.177 126.992 204.51 146.478 205.759C153.428 206.208 160.149 209.418 167.278 208.993C175.992 208.471 184.477 204.845 193.305 204.289C198.532 203.66 203.742 203.914 208.928 205.041C212.399 207.074 215.878 209.108 219.349 211.141C228.055 211.762 236.932 201.562 245.401 200.034C265.744 196.368 273.51 217.862 292.294 216.596C310.097 215.396 327.402 219.994 344.332 214.04C352.662 211.108 361.375 207.654 370.302 207.825C381.996 208.046 385.614 215.527 396.231 217.838C402.323 219.169 410.678 215.625 416.933 215.535C427.256 215.388 437.832 219.193 447.909 220.998" stroke="#111212" stroke-width="0.6" stroke-linecap="round" stroke-linejoin="round"/>
<path d="M42.5977 224.984C53.1082 222.73 58.7105 217.217 68.4697 214.008C78.6372 210.667 84.901 213.82 94.3907 216.76C114.276 222.917 127.531 206.878 146.371 209.434C154.636 210.553 158.246 213.836 167.196 212.268C176.31 210.676 183.987 208.34 193.248 208.471C202.46 208.601 211.076 214.645 219.316 214.832C228.283 215.045 236.695 205.825 245.392 204.199C265.074 200.524 273.902 219.863 292.326 219.904C310.17 219.945 326.83 219.765 344.421 216.458C353.135 214.816 361.375 211.182 370.432 211.901C379.971 212.652 387.019 218.646 396.402 220.051C403.074 221.055 410.449 218.605 417.145 218.589C427.517 218.556 437.995 222.076 448.203 223.603" stroke="#111212" stroke-width="0.6" stroke-linecap="round" stroke-linejoin="round"/>
<path d="M42.3281 227.883C54.325 226.576 57.657 220.933 68.2655 217.135C79.1843 213.232 84.3211 217.454 94.2355 220.443C113.525 226.266 127.972 210.782 146.29 213.403C154.693 214.604 158.017 217.985 167.139 216.123C176.735 214.171 183.481 211.99 193.215 212.644C201.831 213.224 210.806 218.099 219.308 217.879C228.61 217.642 236.409 210.169 245.409 208.609C264.135 205.367 274.482 222.06 292.383 223.081C310.562 224.118 326.953 220.018 344.527 218.916C353.323 218.36 361.604 214.849 370.571 216.115C380.175 217.47 386.349 221.954 396.582 222.321C414.41 222.966 430.727 223.832 448.489 226.111" stroke="#111212" stroke-width="0.6" stroke-linecap="round" stroke-linejoin="round"/>
<path d="M42.0913 230.61C55.746 230.92 56.4891 224.82 68.0776 220.32C79.609 215.845 83.8475 220.916 94.0966 224.044C112.578 229.679 128.241 215.526 146.216 217.682C153.787 218.589 159.005 221.945 167.082 220.459C177.364 218.564 182.746 215.771 193.183 216.825C202.15 217.731 210.12 221.104 219.292 220.377C228.642 219.634 236.303 214.448 245.409 213.174C262.893 210.724 275.127 224.403 292.408 226.11C310.521 227.899 326.969 221.414 344.601 221.431C353.405 221.439 361.841 219.062 370.669 220.426C380.493 221.945 386.373 224.738 396.712 224.746C414.483 224.763 431.094 226.478 448.718 228.568" stroke="#111212" stroke-width="0.6" stroke-linecap="round" stroke-linejoin="round"/>
<path d="M41.8789 233.183C53.6716 233.142 57.7794 226.739 68.6002 223.285C80.7114 219.414 82.9572 223.718 95.3461 227.09C111.622 231.517 127.441 221.864 143.538 222.444C153.297 222.795 160.279 225.473 170.332 223.366C178.009 221.758 183.693 219.446 191.778 220.492C201.129 221.709 208.944 224.885 218.589 223.84C227.777 222.852 236.368 218.581 245.409 217.38C261.66 215.216 277.569 227.017 293.674 228.797C310.35 230.635 325.409 223.015 341.922 223.538C359.938 224.11 377.856 228.226 395.471 228.013C413.74 227.793 430.792 228.658 448.93 230.978" stroke="#111212" stroke-width="0.6" stroke-linecap="round" stroke-linejoin="round"/>
<path d="M41.6992 235.641C52.7732 235.282 58.2449 229.9 68.4614 226.625C80.2949 222.836 82.7694 226.306 95.2399 229.557C111.002 233.673 127.645 226.584 143.48 226.886C152.17 227.05 161.668 229.279 170.292 227.858C178.27 226.543 183.195 223.334 191.754 224.591C201.268 225.996 208.659 228.34 218.581 227.09C227.491 225.972 236.482 222.566 245.409 222.003C261.611 220.974 277.708 229.802 293.698 231.435C310.252 233.117 325.156 225.351 341.971 226.208C359.922 227.123 377.66 231.566 395.569 231.149C413.879 230.725 430.89 230.929 449.11 233.338" stroke="#111212" stroke-width="0.6" stroke-linecap="round" stroke-linejoin="round"/>
<path d="M41.5439 237.993C51.9728 237.43 58.7021 233.175 68.3388 230.145C79.8538 226.519 82.5814 228.993 95.1418 231.958C110.479 235.576 127.817 231.109 143.415 231.076C152.023 231.06 161.79 232.399 170.242 231.272C178.033 230.235 183.489 227.401 191.713 228.716C201.423 230.276 208.332 231.982 218.556 230.504C227.458 229.214 236.303 226.38 245.4 226.592C261.66 226.976 277.667 232.611 293.714 233.975C310.129 235.372 325.14 228.675 342.02 229.704C360.191 230.815 377.414 234.775 395.659 234.253C414.034 233.73 430.955 233.273 449.257 235.69" stroke="#111212" stroke-width="0.6" stroke-linecap="round" stroke-linejoin="round"/>
<path d="M41.4214 240.28C51.6052 239.553 59.5269 236.254 68.9676 233.542C78.0571 230.929 81.242 231.313 91.0094 233.167C106.934 236.196 124.256 236 140.622 235.878C159.087 235.739 177.674 231.109 195.763 233.959C212.84 236.654 228.332 230.292 245.4 231.403C262.019 232.489 278.557 236.025 295.037 237.038C303.147 237.536 309.451 233.877 317.095 232.677C325.875 231.296 335.895 232.791 344.666 233.379C361.424 234.498 377.365 237.822 394.279 237.356C413.193 236.842 430.498 235.6 449.379 238.034" stroke="#111212" stroke-width="0.6" stroke-linecap="round" stroke-linejoin="round"/>
<path d="M41.3315 242.517C59.4942 241.056 73.108 233.183 90.9604 235.829C106.967 238.205 124.272 239.643 140.597 239.537C159.471 239.422 177.094 235.902 195.755 238.295C212.464 240.435 228.773 234.604 245.4 235.813C261.636 236.997 278.802 239.087 295.045 239.7C302.657 239.986 309.721 236.744 317.112 235.911C326.103 234.898 335.74 236.401 344.691 237.07C361.375 238.303 377.537 240.851 394.328 240.361C413.225 239.814 430.579 238.099 449.469 240.378" stroke="#111212" stroke-width="0.6" stroke-linecap="round" stroke-linejoin="round"/>
<path d="M41.2744 244.73C58.3917 243.301 73.9492 237.005 90.9196 238.63C107.228 240.19 124.084 242.844 140.573 242.803C159.381 242.762 177.086 240.279 195.747 242.117C212.391 243.758 229.002 238.907 245.408 240.165C277.887 242.656 311.681 238.368 344.723 240.843C379.709 243.464 415.03 239.005 449.542 242.746" stroke="#111212" stroke-width="0.6" stroke-linecap="round" stroke-linejoin="round"/>
<path d="M41.2417 246.927C58.2447 245.539 75.4192 240.614 92.2834 241.733C109.335 242.868 126.249 246.307 143.325 245.702C177.192 244.502 211.925 242.999 245.408 244.485C277.65 245.923 309.688 241.946 341.816 244.322C377.839 246.984 413.936 241.815 449.567 245.122" stroke="#111212" stroke-width="0.6" stroke-linecap="round" stroke-linejoin="round"/>
<path d="M41.2417 249.141C58.0977 247.899 75.7132 244.502 92.2834 244.804C109.262 245.114 126.289 248.316 143.325 248.724C177.429 249.541 211.5 248.316 245.408 248.095C277.463 247.883 309.778 245.433 341.816 248.03C377.896 250.954 413.756 244.902 449.567 247.548" stroke="#111212" stroke-width="0.6" stroke-linecap="round" stroke-linejoin="round"/>
<path d="M41.2744 251.37C57.9834 250.357 74.5944 248.773 90.9196 248.014C107 247.262 124.354 250.717 140.573 251.411C175.632 252.897 210.904 253.379 245.4 251.035C277.822 248.83 312.097 249.582 344.715 251.999C379.717 254.596 414.663 248.152 449.534 249.998" stroke="#111212" stroke-width="0.6" stroke-linecap="round" stroke-linejoin="round"/>
<path d="M41.3315 253.624C74.6679 252.17 107.237 252.244 140.589 254.04C158.964 255.029 177.437 258.687 195.747 257.021C212.35 255.502 228.977 255.331 245.392 254.179C277.871 251.901 312.065 253.199 344.682 255.584C379.579 258.14 414.605 251.452 449.461 252.464" stroke="#111212" stroke-width="0.6" stroke-linecap="round" stroke-linejoin="round"/>
<path d="M41.4214 255.911C74.4637 255.151 107.767 254.816 140.622 256.744C159.111 257.83 177.184 262.828 195.763 260.966C212.382 259.3 228.781 258.679 245.4 257.479C277.928 255.127 312.073 256.907 344.666 259.079C379.423 261.399 414.605 254.849 449.379 254.971" stroke="#111212" stroke-width="0.6" stroke-linecap="round" stroke-linejoin="round"/>
<path d="M41.5439 258.238C109.711 258.238 177.388 267.556 245.4 260.827C261.276 259.259 277.724 260.827 293.714 260.467C309.713 260.108 326.079 260.982 342.02 262.231C377.447 265.024 413.797 258.287 449.265 257.503" stroke="#111212" stroke-width="0.6" stroke-linecap="round" stroke-linejoin="round"/>
<path d="M41.6992 260.606C75.6154 261.48 109.662 261.439 143.472 263.726C159.585 264.812 175.551 269.059 191.745 268.283C209.622 267.434 227.499 265.482 245.4 264.396C277.063 262.476 310.285 263.62 341.971 265.563C377.333 267.736 413.756 261.831 449.11 260.059" stroke="#111212" stroke-width="0.6" stroke-linecap="round" stroke-linejoin="round"/>
<path d="M41.8789 263.016C75.7461 264.821 109.719 264.788 143.529 267.066C159.61 268.152 175.616 271.974 191.77 271.427C209.663 270.831 227.475 268.594 245.4 268.022C277.397 267.001 309.893 267.344 341.914 268.716C377.202 270.227 413.724 265.392 448.93 262.632" stroke="#111212" stroke-width="0.6" stroke-linecap="round" stroke-linejoin="round"/>
<path d="M42.0913 265.466C75.9176 268.128 109.801 268.185 143.603 270.455C159.642 271.533 175.714 274.825 191.803 274.473C209.671 274.09 227.491 271.901 245.4 271.689C313.404 270.905 380.845 272.138 448.718 265.212" stroke="#111212" stroke-width="0.6" stroke-linecap="round" stroke-linejoin="round"/>
<path d="M42.3281 267.94C176.588 279.765 314.27 281.448 448.481 267.801" stroke="#111212" stroke-width="0.6" stroke-linecap="round" stroke-linejoin="round"/>
<path d="M42.5977 270.423C177.037 283.187 313.796 283.963 448.211 270.357" stroke="#111212" stroke-width="0.6" stroke-linecap="round" stroke-linejoin="round"/>
<path d="M42.8999 272.914C177.47 286.536 313.355 286.748 447.918 272.897" stroke="#111212" stroke-width="0.6" stroke-linecap="round" stroke-linejoin="round"/>
<path d="M43.2266 275.372C177.723 290.014 313.102 290.014 447.591 275.372" stroke="#111212" stroke-width="0.6" stroke-linecap="round" stroke-linejoin="round"/>
<path d="M43.5776 277.806C177.74 293.722 313.069 293.722 447.231 277.806" stroke="#111212" stroke-width="0.6" stroke-linecap="round" stroke-linejoin="round"/>
<path d="M43.9614 280.231C177.789 297.414 313.02 297.414 446.839 280.231" stroke="#111212" stroke-width="0.6" stroke-linecap="round" stroke-linejoin="round"/>
<path d="M44.3779 282.64C177.838 301.089 312.98 301.089 446.431 282.64" stroke="#111212" stroke-width="0.6" stroke-linecap="round" stroke-linejoin="round"/>
<path d="M44.8188 285.041C177.887 304.747 312.931 304.747 445.99 285.041" stroke="#111212" stroke-width="0.6" stroke-linecap="round" stroke-linejoin="round"/>
<path d="M45.2842 287.442C177.927 308.414 312.873 308.414 445.524 287.442" stroke="#111212" stroke-width="0.6" stroke-linecap="round" stroke-linejoin="round"/>
<path d="M45.7827 289.827C177.968 312.064 312.841 312.064 445.027 289.827" stroke="#111212" stroke-width="0.6" stroke-linecap="round" stroke-linejoin="round"/>
<path d="M46.3052 292.195C178.009 315.691 312.792 315.691 444.504 292.195" stroke="#111212" stroke-width="0.6" stroke-linecap="round" stroke-linejoin="round"/>
<path d="M46.8604 294.563C178.066 319.292 312.742 319.292 443.948 294.563" stroke="#111212" stroke-width="0.6" stroke-linecap="round" stroke-linejoin="round"/>
<path d="M47.4404 296.916C178.115 322.886 312.702 322.886 443.377 296.916" stroke="#111212" stroke-width="0.6" stroke-linecap="round" stroke-linejoin="round"/>
<path d="M48.0444 299.251C178.156 326.462 312.653 326.462 442.764 299.251" stroke="#111212" stroke-width="0.6" stroke-linecap="round" stroke-linejoin="round"/>
<path d="M48.6733 301.587C178.197 330.04 312.604 330.04 442.127 301.587" stroke="#111212" stroke-width="0.6" stroke-linecap="round" stroke-linejoin="round"/>
<path d="M49.335 303.906C178.213 333.608 312.587 333.608 441.474 303.906" stroke="#111212" stroke-width="0.6" stroke-linecap="round" stroke-linejoin="round"/>
<path d="M50.021 306.209C178.254 337.144 312.547 337.144 440.788 306.209" stroke="#111212" stroke-width="0.6" stroke-linecap="round" stroke-linejoin="round"/>
<path d="M50.7314 308.512C178.295 340.673 312.506 340.673 440.069 308.512" stroke="#111212" stroke-width="0.6" stroke-linecap="round" stroke-linejoin="round"/>
<path d="M51.4746 310.799C178.336 344.176 312.473 344.176 439.334 310.799" stroke="#111212" stroke-width="0.6" stroke-linecap="round" stroke-linejoin="round"/>
<path d="M52.2422 313.069C178.376 347.663 312.44 347.663 438.574 313.069" stroke="#111212" stroke-width="0.6" stroke-linecap="round" stroke-linejoin="round"/>
<path d="M53.0264 315.331C176.947 352.008 313.845 351.689 437.774 315.331" stroke="#111212" stroke-width="0.6" stroke-linecap="round" stroke-linejoin="round"/>
<path d="M53.8428 317.577C176.931 355.446 313.861 355.111 436.957 317.577" stroke="#111212" stroke-width="0.6" stroke-linecap="round" stroke-linejoin="round"/>
<path d="M54.6924 319.815C176.907 358.892 313.894 358.549 436.125 319.815" stroke="#111212" stroke-width="0.6" stroke-linecap="round" stroke-linejoin="round"/>
<path d="M55.5581 322.036C176.874 362.322 313.919 361.963 435.259 322.036" stroke="#111212" stroke-width="0.6" stroke-linecap="round" stroke-linejoin="round"/>
<path d="M56.4482 324.249C176.841 365.719 313.951 365.36 434.361 324.249" stroke="#111212" stroke-width="0.6" stroke-linecap="round" stroke-linejoin="round"/>
<path d="M57.3711 326.454C176.817 369.117 313.976 368.741 433.446 326.454" stroke="#111212" stroke-width="0.6" stroke-linecap="round" stroke-linejoin="round"/>
<path d="M58.3428 328.725C176.808 372.563 313.976 372.179 432.458 328.725" stroke="#111212" stroke-width="0.6" stroke-linecap="round" stroke-linejoin="round"/>
<path d="M59.3472 330.979C176.808 375.993 313.976 375.601 431.453 330.979" stroke="#111212" stroke-width="0.6" stroke-linecap="round" stroke-linejoin="round"/>
<path d="M60.3843 333.216C176.849 379.374 313.943 378.958 430.432 333.216" stroke="#111212" stroke-width="0.6" stroke-linecap="round" stroke-linejoin="round"/>
<path d="M61.438 335.438C176.857 382.755 313.927 382.331 429.371 335.438" stroke="#111212" stroke-width="0.6" stroke-linecap="round" stroke-linejoin="round"/>
<path d="M62.5161 337.643C176.874 386.112 313.902 385.679 428.285 337.643" stroke="#111212" stroke-width="0.6" stroke-linecap="round" stroke-linejoin="round"/>
<path d="M63.6265 339.831C176.898 389.452 313.878 389.003 427.182 339.831" stroke="#111212" stroke-width="0.6" stroke-linecap="round" stroke-linejoin="round"/>
<path d="M64.7617 342.012C176.931 392.776 313.845 392.31 426.047 342.012" stroke="#111212" stroke-width="0.6" stroke-linecap="round" stroke-linejoin="round"/>
<path d="M65.9214 344.176C176.972 396.075 313.804 395.601 424.887 344.176" stroke="#111212" stroke-width="0.6" stroke-linecap="round" stroke-linejoin="round"/>
<path d="M67.1055 346.324C177.07 399.317 313.706 398.827 423.703 346.324" stroke="#111212" stroke-width="0.6" stroke-linecap="round" stroke-linejoin="round"/>
<path d="M68.3145 348.455C177.127 402.567 313.641 402.069 422.495 348.455" stroke="#111212" stroke-width="0.6" stroke-linecap="round" stroke-linejoin="round"/>
<path d="M69.5474 350.57C177.2 405.801 313.576 405.287 421.261 350.57" stroke="#111212" stroke-width="0.6" stroke-linecap="round" stroke-linejoin="round"/>
<path d="M70.8052 352.661C177.282 409.003 313.494 408.472 420.004 352.661" stroke="#111212" stroke-width="0.6" stroke-linecap="round" stroke-linejoin="round"/>
<path d="M72.0874 354.744C177.364 412.188 313.396 411.649 418.722 354.744" stroke="#111212" stroke-width="0.6" stroke-linecap="round" stroke-linejoin="round"/>
<path d="M73.394 356.81C177.519 415.316 313.241 414.76 417.415 356.81" stroke="#111212" stroke-width="0.6" stroke-linecap="round" stroke-linejoin="round"/>
<path d="M74.7251 358.859C177.633 418.46 313.126 417.888 416.084 358.859" stroke="#111212" stroke-width="0.6" stroke-linecap="round" stroke-linejoin="round"/>
<path d="M76.0811 360.893C177.756 421.571 313.004 420.992 414.736 360.893" stroke="#111212" stroke-width="0.6" stroke-linecap="round" stroke-linejoin="round"/>
<path d="M77.4526 362.91C177.886 424.675 312.865 424.078 413.348 362.91" stroke="#111212" stroke-width="0.6" stroke-linecap="round" stroke-linejoin="round"/>
<path d="M78.8574 364.903C178.033 427.737 312.726 427.133 411.951 364.903" stroke="#111212" stroke-width="0.6" stroke-linecap="round" stroke-linejoin="round"/>
<path d="M80.2783 366.879C178.18 430.784 312.563 430.163 410.522 366.879" stroke="#111212" stroke-width="0.6" stroke-linecap="round" stroke-linejoin="round"/>
<path d="M81.7319 368.848C178.417 433.773 312.342 433.144 409.085 368.848" stroke="#111212" stroke-width="0.6" stroke-linecap="round" stroke-linejoin="round"/>
<path d="M83.2021 370.791C178.597 436.77 312.155 436.124 407.615 370.791" stroke="#111212" stroke-width="0.6" stroke-linecap="round" stroke-linejoin="round"/>
<path d="M84.6885 372.71C178.777 439.742 311.959 439.081 406.112 372.71" stroke="#111212" stroke-width="0.6" stroke-linecap="round" stroke-linejoin="round"/>
<path d="M86.2075 374.621C178.981 442.698 311.763 442.021 404.61 374.621" stroke="#111212" stroke-width="0.6" stroke-linecap="round" stroke-linejoin="round"/>
<path d="M87.7427 376.508C179.193 445.622 311.542 444.928 403.066 376.508" stroke="#111212" stroke-width="0.6" stroke-linecap="round" stroke-linejoin="round"/>
<path d="M89.3027 378.378C179.487 448.489 311.248 447.786 401.506 378.378" stroke="#111212" stroke-width="0.6" stroke-linecap="round" stroke-linejoin="round"/>
<path d="M90.8789 380.232C179.716 451.364 311.011 450.645 399.922 380.232" stroke="#111212" stroke-width="0.6" stroke-linecap="round" stroke-linejoin="round"/>
<path d="M92.4878 382.061C179.969 454.214 310.766 453.479 398.329 382.061" stroke="#111212" stroke-width="0.6" stroke-linecap="round" stroke-linejoin="round"/>
<path d="M94.1045 383.874C180.222 457.039 310.497 456.296 396.696 383.874" stroke="#111212" stroke-width="0.6" stroke-linecap="round" stroke-linejoin="round"/>
<path d="M95.7544 385.663C180.492 459.832 310.236 459.073 395.063 385.663" stroke="#111212" stroke-width="0.6" stroke-linecap="round" stroke-linejoin="round"/>
<path d="M97.4204 387.435C180.851 462.568 309.868 461.8 393.397 387.435" stroke="#111212" stroke-width="0.6" stroke-linecap="round" stroke-linejoin="round"/>
<path d="M99.1025 389.19C181.137 465.32 309.574 464.536 391.706 389.19" stroke="#111212" stroke-width="0.6" stroke-linecap="round" stroke-linejoin="round"/>
<path d="M100.81 390.922C181.439 468.04 309.264 467.239 389.991 390.922" stroke="#111212" stroke-width="0.6" stroke-linecap="round" stroke-linejoin="round"/>
</g>
<defs>
<clipPath id="clip0_193_11516">
<rect width="409.142" height="407.223" fill="white" transform="translate(40.8335 41.6499)"/>
</clipPath>
</defs>
</svg>
