<svg width="490" height="490" viewBox="0 0 490 490" fill="none" xmlns="http://www.w3.org/2000/svg">
<g clip-path="url(#clip0_430_1444)">
<path d="M100.811 102.957C110.088 91.0337 123.391 85.4232 133.559 74.7085C139.423 68.5263 141.554 65.4965 149.451 62.9648C162.175 58.8897 157.985 61.013 169.206 51.0578C180.525 41.0128 192.784 48.2893 206.822 47.5707C213.535 47.2277 218.484 43.0137 224.291 42.2623C232.384 41.2088 237.782 44.451 245.401 46.3375C251.281 47.7912 256.867 48.9263 262.992 48.4282C268.734 47.9627 275.095 43.6017 280.502 43.6752C293.617 43.8712 310.898 57.1583 321.596 63.6998C333.757 71.1397 340.739 74.1858 354.124 77.526C368.424 81.0948 378.24 94.0472 390 102.671" stroke="#F64C70" stroke-width="0.6" stroke-linecap="round" stroke-linejoin="round"/>
<path d="M99.1035 105.032C108.993 92.9449 122.362 87.6366 133.142 76.9383C139.226 70.8949 141.652 66.6809 149.647 63.9288C162.183 59.6168 158.663 61.8463 170.145 52.5608C181.775 43.1528 191.55 52.0054 205.532 51.2214C213.323 50.7804 220.003 45.8968 227.222 45.1209C233.511 44.4431 239.529 47.4648 245.409 49.0573C251.289 50.6498 257.382 52.5689 263.596 51.7768C271.298 50.7968 274.622 44.7943 281.686 44.5329C293.609 44.0838 310.661 59.6984 320.673 65.7254C326.382 69.1554 331.478 73.1816 337.799 75.5908C343.507 77.7713 349.093 76.6198 354.442 78.0571C368.318 81.8056 380.78 95.6808 391.723 104.607" stroke="#F64C70" stroke-width="0.6" stroke-linecap="round" stroke-linejoin="round"/>
<path d="M97.4199 106.975C107.53 94.9296 120.523 90.4869 131.932 80.5073C138.359 74.8804 140.336 68.2328 148.641 65.1784C158.719 61.4708 160.581 65.4888 169.376 56.5708C177.306 48.5266 175.534 47.9059 187.106 51.4421C192.807 53.1816 199.013 55.6724 205.13 55.1906C212.603 54.6026 219.659 49.3351 227.033 48.5348C233.615 47.8243 239.185 50.1763 245.4 51.9158C251.133 53.5246 257.683 56.0644 263.767 55.1089C271.117 53.9493 274.775 46.4196 282.036 45.8398C293.934 44.8843 310.88 62.6876 321.432 68.7963C327.034 72.0384 332.481 75.4031 338.745 77.2651C344.249 78.8984 350.75 76.9384 355.585 78.4003C367.957 82.1406 384.037 97.9186 393.388 106.485" stroke="#F64C70" stroke-width="0.6" stroke-linecap="round" stroke-linejoin="round"/>
<path d="M95.7539 108.821C102.483 103.512 107.318 97.3547 114.398 92.4629C119.609 88.8614 125.75 86.7544 130.724 82.7119C136.824 77.7547 139.944 69.8657 147.629 66.7705C156.236 63.3079 160.54 66.6644 168.592 60.1065C177.241 53.0669 174.04 49.7022 186.518 53.9734C192.219 55.9252 198.327 60.2699 204.73 59.641C211.941 58.9305 219.177 52.8137 226.862 51.9562C233.73 51.1885 238.826 52.8872 245.416 54.7982C251.051 56.4315 257.968 59.5512 263.971 58.4977C270.872 57.289 275.216 48.2649 282.428 47.3257C293.934 45.823 310.888 65.5047 322.24 71.5725C327.826 74.5615 333.526 77.3709 339.749 78.7347C345.115 79.9189 351.681 78.4897 356.785 80.2129C368.414 84.141 386.749 99.5842 395.079 108.314" stroke="#F64C70" stroke-width="0.6" stroke-linecap="round" stroke-linejoin="round"/>
<path d="M94.1055 110.585C105.318 103.619 115.894 94.1296 126.968 86.5427C134.449 81.4141 139.798 72.2184 147.965 68.3066C153.534 65.6442 160.272 66.9591 166.054 63.9129C175.601 58.8741 173.763 53.2962 184.543 55.5666C193.069 57.3632 194.4 63.6026 203.367 62.8267C210.072 62.2469 215.764 57.2407 222.404 55.8034C232.032 53.7127 236.132 55.2562 245.401 57.7307C252.563 59.6417 257.177 62.1816 264.568 60.1562C271.061 58.3759 276.794 49.7437 283.637 49.4497C296.475 48.8944 309.509 67.3919 321.082 73.1984C333.96 79.6582 348.154 78.0167 360.38 83.7906C372.213 89.3847 387.362 101.145 396.697 110.161" stroke="#F64C70" stroke-width="0.6" stroke-linecap="round" stroke-linejoin="round"/>
<path d="M92.4883 112.276C104.109 106.159 114.497 95.7306 125.784 88.5276C133.322 83.7256 139.675 74.8648 147.025 70.5855C152.325 67.4985 159.635 68.8051 165.302 66.5675C171.133 64.2645 176.736 55.5833 183.979 57.5515C194.465 60.4098 192.252 68.2498 202.983 66.9513C209.517 66.1591 215.535 60.173 222.199 58.6621C231.689 56.498 236.344 58.0333 245.409 60.5895C253.2 62.7863 256.949 65.3261 264.756 62.9578C271.216 60.9978 276.834 53.2231 284.005 52.7331C294.123 52.0471 295.373 56.3918 303.049 63.113C308.905 68.2416 314.679 72.423 321.808 75.5998C334.973 81.4553 349.338 79.1115 361.531 85.9061C373.993 92.856 387.55 102.672 398.322 111.974" stroke="#F64C70" stroke-width="0.6" stroke-linecap="round" stroke-linejoin="round"/>
<path d="M90.8789 113.933C103.064 108.086 112.913 97.5509 124.607 90.5521C133.158 85.4397 138.262 78.6287 146.086 73.3857C151.582 69.7026 158.499 70.8132 164.559 69.1227C168.274 68.0856 180.075 58.4326 183.415 59.2574C186.11 64.1819 189.941 67.6201 194.898 69.5801C197.364 72.0546 199.928 72.1852 202.599 69.9721C209.32 69.1064 215.282 63.2672 221.987 61.5931C232.138 59.0614 235.682 60.7519 245.4 63.3652C253.396 65.5049 256.491 67.7099 264.919 65.0067C271.305 62.9569 277.25 56.4971 284.347 56.1949C299.072 55.5661 308.455 72.3812 322.518 77.7957C336.369 83.1286 350.097 80.3437 362.666 88.1266C375.389 96.0074 388.105 104.656 399.93 113.803" stroke="#F64C70" stroke-width="0.6" stroke-linecap="round" stroke-linejoin="round"/>
<path d="M89.3027 115.567C115.755 103.333 134.954 76.8403 163.824 71.6381C169.026 70.6989 178.687 63.2509 182.868 63.4388C185.522 68.4123 189.385 71.4911 194.457 72.6671C197.037 74.4964 199.626 74.5128 202.231 72.7161C209.132 71.7279 215.053 66.3869 221.791 64.5576C232.62 61.6258 235.053 63.3408 245.409 65.9868C253.755 68.1183 255.886 70.1844 265.098 67.1383C271.452 65.0313 277.691 59.9434 284.698 59.7883C299.929 59.4616 308.855 75.0436 323.221 79.8048C337.676 84.5986 350.603 82.0588 363.793 90.4296C376.59 98.5473 389.199 106.836 401.523 115.632" stroke="#F64C70" stroke-width="0.6" stroke-linecap="round" stroke-linejoin="round"/>
<path d="M87.7441 117.193C113.265 105.972 135.054 76.9229 163.082 74.1626C168.472 73.6318 177.39 69.5321 182.306 70.0221C190.979 70.8878 192.506 76.6208 201.841 75.1916C208.864 74.1218 214.817 69.4994 221.579 67.5231C233.119 64.1503 234.442 65.6774 245.41 68.3888C254.246 70.5774 255.144 72.6926 265.271 69.3688C271.625 67.2863 278.134 63.4561 285.043 63.4806C300.233 63.5459 309.657 77.5109 323.924 81.6841C339.228 86.1594 350.858 83.8074 364.904 92.8234C377.685 101.023 390.548 108.912 403.067 117.519" stroke="#F64C70" stroke-width="0.6" stroke-linecap="round" stroke-linejoin="round"/>
<path d="M86.207 118.833C99.241 113.19 109.36 104.721 121.177 97.1097C133.468 89.1962 148.119 77.3137 162.369 76.7829C168.739 76.546 175.395 76.35 181.765 76.3092C188.772 76.2684 194.783 77.82 201.471 77.3709C208.576 76.8972 214.652 72.3729 221.374 70.4537C232.399 67.2932 234.693 68.2977 245.4 70.47C253.648 72.1442 256.188 73.9817 265.425 71.6705C271.893 70.0535 278.499 66.7869 285.368 67.2687C299.373 68.2487 310.986 79.9352 324.592 83.4714C332.481 85.5212 339.864 83.8634 347.459 85.3987C354.302 86.7789 360.272 91.6544 365.981 95.3049C378.802 103.512 391.894 111.009 404.601 119.454" stroke="#F64C70" stroke-width="0.6" stroke-linecap="round" stroke-linejoin="round"/>
<path d="M84.6895 120.507C97.9195 114.66 108.16 107.531 120.067 99.5436C131.721 91.7199 147.671 79.5026 161.668 79.5271C167.532 79.5352 175.527 83.8064 181.236 82.3527C184.69 77.6814 188.651 76.4074 193.135 78.5389C195.715 79.6414 198.378 79.8701 201.113 79.2412C217.275 78.4327 228.48 69.5147 245.401 72.1281C253.176 73.3286 256.9 75.5091 265.589 74.0146C272.221 72.8794 278.819 70.2906 285.696 71.0991C299.318 72.6997 311.813 82.0751 325.255 85.1866C332.817 86.9424 340.968 85.4642 348.334 87.2446C355.186 88.9024 361.245 94.1781 367.044 97.8286C379.963 105.963 393.234 113.1 406.113 121.422" stroke="#F64C70" stroke-width="0.6" stroke-linecap="round" stroke-linejoin="round"/>
<path d="M83.2031 122.232C96.3433 116.099 107.017 110.317 118.989 102.109C130.366 94.3017 147.026 82.1252 160.991 82.4029C166.854 82.5254 175.225 88.8872 180.729 87.6296C183.972 83.7014 187.973 81.6189 192.726 81.3657C195.364 80.6144 198.051 80.4266 200.77 80.8022C215.552 78.7851 230.007 71.8434 245.409 73.3379C252.686 74.0402 257.488 77.1517 265.761 76.3759C272.613 75.7389 279.089 74.0239 286.022 74.9549C299.595 76.7679 312.523 84.1669 325.916 86.9027C333.536 88.4626 341.735 87.1477 349.208 89.2956C356.076 91.2637 362.127 96.7681 368.097 100.402C381.164 108.365 394.631 115.249 407.608 123.465" stroke="#F64C70" stroke-width="0.6" stroke-linecap="round" stroke-linejoin="round"/>
<path d="M81.7324 124.027C95.6893 116.922 107.596 112.038 120.72 102.965C132.08 95.1169 148.021 84.2144 162.231 85.3985C169.998 86.0437 173.665 91.548 181.717 89.6615C186.192 87.8649 190.129 85.1944 193.534 81.6582C196.172 82.0012 198.818 82.3524 201.456 82.6954C215.739 80.1065 230.684 75.133 245.409 76.5214C258.239 77.73 272.783 76.3662 285.385 78.8734C299.75 81.7317 313.952 86.599 328.578 89.0164C344.454 91.6379 352.098 92.9935 366.422 101.373C380.583 109.662 395.104 116.865 409.085 125.595" stroke="#F64C70" stroke-width="0.6" stroke-linecap="round" stroke-linejoin="round"/>
<path d="M80.2793 125.914C93.8605 118.253 106.617 115.077 119.675 105.709C131.37 97.3223 146.38 86.9915 161.562 88.4206C169.075 89.123 172.783 94.3333 181.211 92.4141C188.463 90.7563 193.526 85.4316 201.105 83.8555C214.727 81.0298 231.379 78.9065 245.401 79.47C273.993 80.6051 300.91 86.7955 329.24 90.8461C345.459 93.1655 352.923 95.9911 367.419 104.101C381.817 112.153 396.419 119.062 410.523 127.833" stroke="#F64C70" stroke-width="0.6" stroke-linecap="round" stroke-linejoin="round"/>
<path d="M78.8574 127.907C91.7689 119.732 105.775 117.789 118.67 108.577C131.189 99.6342 144.64 90.0139 160.932 91.5656C168.446 92.2761 171.729 97.0454 180.737 94.8404C188.144 93.0274 193.648 86.6574 200.786 84.7872C205.62 83.5214 219.618 83.7909 225.073 83.3417C231.925 82.7782 238.573 83.3009 245.408 83.1702C274.229 82.5986 301.317 89.2544 329.884 92.8641C346.299 94.9384 353.788 99.0544 368.398 106.854C383.082 114.694 397.709 121.3 411.951 130.178" stroke="#F64C70" stroke-width="0.6" stroke-linecap="round" stroke-linejoin="round"/>
<path d="M77.4531 130.023C89.2703 121.521 104.403 120.737 116.735 112.236C129.475 103.448 141.757 92.5132 158.328 94.3752C168.389 95.5022 170.847 99.5039 181.725 96.8987C188.969 95.1674 194.351 89.8999 201.488 88.0787C215.756 84.4364 230.962 87.7847 245.409 87.3601C252.212 87.1641 258.32 84.9999 265.417 85.5144C272.302 86.0126 278.672 88.5851 285.36 89.5079C300.975 91.6639 316.785 93.4116 332.482 95.2981C348.366 97.2091 356.108 103.122 370.383 110.145C385.189 117.43 399.261 123.767 413.356 132.644" stroke="#F64C70" stroke-width="0.6" stroke-linecap="round" stroke-linejoin="round"/>
<path d="M76.082 132.293C87.2622 123.146 103.547 123.154 115.764 115.224C130.105 105.923 139.954 95.7714 157.708 97.568C166.471 98.4582 172.196 100.737 181.277 98.9564C188.602 97.519 194.262 92.3495 201.179 90.3732C215.503 86.2735 230.579 92.0637 245.402 91.3205C252.629 90.9612 258.485 87.4822 265.549 87.6864C272.548 87.8905 278.95 92.4394 285.631 93.158C301.115 94.8077 317.252 96.0409 333.103 97.8539C348.873 99.6587 356.885 106.241 371.323 112.799C386.603 119.741 400.437 126.086 414.729 135.241" stroke="#F64C70" stroke-width="0.6" stroke-linecap="round" stroke-linejoin="round"/>
<path d="M74.7266 134.506C86.0701 124.641 103.081 125.139 115.764 117.389C122.412 113.33 128.365 108.038 135.217 104.273C146.814 97.9033 147.108 99.9858 159.096 100.925C174.695 102.142 185.565 99.5203 199.84 93.9425C215.626 87.7766 229.215 95.8453 245.394 95.0613C252.539 94.7101 259.122 90.194 266.153 90.0633C272.793 89.9408 280.371 93.9506 286.831 94.6203C301.654 96.1475 316.615 99.4223 331.699 100.68C339.392 101.317 343.875 100.378 351.634 104.045C358.388 107.238 364.292 111.999 371.193 114.939C387.306 121.799 401.254 128.193 416.085 137.985" stroke="#F64C70" stroke-width="0.6" stroke-linecap="round" stroke-linejoin="round"/>
<path d="M73.3945 136.155C85.9222 127.008 101.602 127.425 114.832 120.107C121.651 116.334 127.638 111.075 134.449 107.253C145.482 101.054 146.797 102.116 158.516 102.533C173.248 103.047 185.784 102.908 199.545 97.0936C216.115 90.1029 228.439 99.4456 245.401 99.0944C254.107 98.9147 258.353 93.5574 266.291 92.2181C271.167 91.3932 281.963 95.9829 287.108 96.4811C302.094 97.9429 316.933 101.961 332.294 103.121C340.191 103.717 344.552 103.268 352.376 107.098C359.081 110.373 365.092 114.742 372.099 117.461C388.75 123.921 402.283 130.781 417.424 140.753" stroke="#F64C70" stroke-width="0.6" stroke-linecap="round" stroke-linejoin="round"/>
<path d="M72.0879 138.009C85.4976 129.72 100.214 129.393 113.901 122.688C130.03 114.783 139.406 104.33 157.928 103.97C172.914 103.676 184.649 103.97 199.251 100.116C216.948 95.436 227.72 102.917 245.409 103.039C254.245 103.105 258.059 99.5357 266.438 97.4124C272.114 95.975 281.677 97.3062 287.394 97.837C302.739 99.2499 317.276 103.97 332.89 105.048C348.399 106.118 358.534 114.709 373.005 119.822C390.131 125.873 403.018 133.966 418.73 143.342" stroke="#F64C70" stroke-width="0.6" stroke-linecap="round" stroke-linejoin="round"/>
<path d="M70.8047 140.025C84.8759 132.773 98.8572 131.181 113.01 125.17C129.229 118.286 139.258 107.685 157.371 106.362C171.761 105.309 184.746 106.273 198.964 103.088C211.533 100.27 211.827 99.9597 224.256 102.736C231.394 104.329 237.952 106.64 245.416 106.885C260.198 107.375 272.971 98.114 287.654 99.4697C295.029 100.148 301.48 104.068 308.602 105.758C317.781 107.93 324.38 106.697 333.453 107.375C348.137 108.461 360.011 117.249 373.87 121.773C391.305 127.465 403.67 137.902 420.02 145.758" stroke="#F64C70" stroke-width="0.6" stroke-linecap="round" stroke-linejoin="round"/>
<path d="M69.5488 142.19C83.9548 133.737 97.0378 132.97 112.138 127.514C128.332 121.659 139.227 111.843 156.826 109.515C170.84 107.661 184.666 108.429 198.688 106.077C211.077 104.003 212.033 103.888 224.127 106.591C231.273 108.192 238.003 110.177 245.41 110.585C252.245 110.961 260.347 111.099 266.692 108.119C275.324 104.06 277.039 99.6335 287.901 101.422C295.243 102.631 301.703 107.163 308.979 108.78C317.848 110.756 325.206 109.148 333.994 109.981C347.983 111.312 361.368 119.536 374.704 123.586C391.993 128.829 404.611 142.982 421.271 148.013" stroke="#F64C70" stroke-width="0.6" stroke-linecap="round" stroke-linejoin="round"/>
<path d="M68.3145 144.453C82.8756 134.824 95.387 134.522 111.279 129.671C127.163 124.828 139.462 116.286 156.294 113.183C170.577 110.545 183.987 110.52 198.418 109.099C215.314 107.433 228.602 112.897 245.409 114.073C251.509 114.498 261.244 115.625 266.813 113.036C276.034 108.74 276.23 101.896 288.145 103.718C295.413 104.82 301.938 110.324 309.354 111.794C317.855 113.477 326.046 111.745 334.523 112.799C348.08 114.473 362.502 121.684 375.528 125.392C392.368 130.186 406.047 147.548 422.503 150.121" stroke="#F64C70" stroke-width="0.6" stroke-linecap="round" stroke-linejoin="round"/>
<path d="M67.1055 146.796C82.222 137.037 93.6226 135.746 110.438 131.704C117.747 129.948 123.839 125.84 130.83 123.145C139.666 119.74 146.624 119.282 155.771 117.2C163.105 115.534 169.605 112.675 176.857 112.096C183.676 111.548 191.157 112.447 198.148 112.194C214.522 111.589 229.075 116.081 245.408 117.314C250.945 117.731 262.027 119.682 266.927 117.526C276.711 113.223 275.756 104.46 288.381 106.346C295.519 107.416 302.134 113.427 309.713 114.701C318.01 116.097 326.707 114.423 335.046 115.705C342.485 116.849 348.864 120.164 355.854 122.68C362.722 125.154 369.558 125.293 376.336 127.163C392.825 131.704 407.304 151.369 423.711 152.055" stroke="#F64C70" stroke-width="0.6" stroke-linecap="round" stroke-linejoin="round"/>
<path d="M65.9219 149.205C81.1772 138.996 92.0307 136.587 109.605 133.631C117.266 132.341 123.048 128.715 130.145 126.134C138.181 123.21 147.017 123.447 155.249 121.381C162.738 119.494 169.1 115.713 176.466 114.75C183.203 113.868 190.978 115.231 197.879 115.378C213.959 115.73 229.345 119.16 245.409 120.262C251.901 120.711 260.95 122.524 267.051 119.862C276.548 115.713 277.202 107.93 288.627 109.564C295.748 110.585 302.38 116.375 310.081 117.453C318.46 118.629 327.084 117.134 335.569 118.67C342.919 120.001 349.411 123.537 356.508 125.546C363.27 127.457 370.392 127.122 377.129 128.976C393.846 133.566 407.615 154.497 424.888 153.901" stroke="#F64C70" stroke-width="0.6" stroke-linecap="round" stroke-linejoin="round"/>
<path d="M64.7617 151.655C92.0221 132.977 123.488 132.83 154.75 125.587C171.018 121.814 180.541 117.265 197.633 118.678C213.616 119.992 229.418 122.157 245.408 122.916C253.02 123.275 259.741 124.672 267.164 121.675C275.739 118.212 278.9 112.667 288.855 113.827C296.181 114.676 302.787 119.012 310.431 119.96C318.99 121.013 327.483 120.017 336.067 121.658C343.343 123.047 349.942 126.665 357.145 128.192C364.021 129.645 371.053 128.878 377.913 130.821C395.308 135.754 407.386 157.077 426.055 155.624" stroke="#F64C70" stroke-width="0.6" stroke-linecap="round" stroke-linejoin="round"/>
<path d="M63.627 154.146C78.768 143.627 89.6051 138.115 108.029 137.372C116.563 137.029 121.243 134.276 128.854 132.112C135.877 130.12 146.788 131.132 154.269 129.679C161.97 128.184 168.618 124.231 175.739 122.288C183.171 120.254 189.132 120.916 197.389 122.075C213.51 124.338 229.198 125.081 245.409 125.236C253.265 125.309 259.488 126.485 267.271 123.897C275.389 121.202 280.06 117.069 289.076 117.951C296.401 118.67 303.327 121.267 310.767 122.092C319.284 123.031 328.113 122.982 336.549 124.607C343.801 126.004 350.44 129.311 357.758 130.405C364.871 131.467 371.674 130.552 378.664 132.741C396.696 138.384 407.166 159.152 427.191 157.298" stroke="#F64C70" stroke-width="0.6" stroke-linecap="round" stroke-linejoin="round"/>
<path d="M62.5156 156.677C77.4116 146.257 88.8041 139.021 107.269 139.282C122.777 139.495 138.294 135.73 153.803 133.549C161.977 132.398 168.127 129.45 175.387 127.024C178.695 122.802 183.039 121.773 188.421 123.954C191.328 124.501 194.236 125.048 197.143 125.603C213.803 128.241 228.577 127.473 245.4 127.22C252.799 127.106 260.026 128.257 267.368 126.469C275.298 124.542 280.802 121.177 289.279 121.847C296.548 122.418 303.857 123.774 311.076 124.476C319.439 125.293 328.733 125.963 336.997 127.531C344.315 128.919 350.905 131.851 358.329 132.561C365.752 133.272 372.171 132.186 379.374 134.766C398.084 141.455 406.839 160.687 428.284 158.956" stroke="#F64C70" stroke-width="0.6" stroke-linecap="round" stroke-linejoin="round"/>
<path d="M61.4395 159.25C76.0496 149.001 88.1771 140.173 106.536 141.284C122.926 142.28 137.022 138.303 153.355 137.086C161.367 136.49 167.573 136.024 175.054 133.19C184.707 129.548 187.035 127.874 196.924 129.042C207.255 130.267 212.637 132.823 223.335 132.063C230.685 131.541 238.011 129.001 245.41 128.829C252.842 128.658 259.898 130.61 267.484 129.303C275.21 127.98 281.392 124.722 289.502 125.122C304.684 125.873 322.373 127.572 337.473 130.373C344.872 131.745 351.372 134.571 358.927 134.93C366.824 135.314 372.524 133.925 380.103 136.874C399.972 144.616 406.065 161.627 429.38 160.59" stroke="#F64C70" stroke-width="0.6" stroke-linecap="round" stroke-linejoin="round"/>
<path d="M60.3848 161.871C74.7418 151.81 87.5961 141.618 105.816 143.439C122.966 145.162 135.828 140.352 152.913 140.23C160.533 140.172 167.327 141.879 174.726 139.25C185.343 135.477 185.139 128.355 196.703 132.169C206.568 135.419 212.693 138.131 223.236 136.122C230.594 134.725 237.871 130.479 245.409 130.095C253.428 129.686 258.802 133.419 267.581 132.365C275.168 131.459 281.832 127.824 289.697 127.882C304.511 127.996 323.123 130.552 337.904 133.206C345.336 134.537 351.788 137.396 359.481 137.477C367.933 137.559 372.784 135.852 380.788 139.176C391.902 143.807 396.272 152.627 405.9 158.67C413.356 163.349 422.046 162.231 430.433 162.353" stroke="#F64C70" stroke-width="0.6" stroke-linecap="round" stroke-linejoin="round"/>
<path d="M59.3477 164.559C73.6638 154.53 86.8448 143.66 105.097 145.8C112.668 146.69 118.752 149.304 126.453 147.646C136.653 145.457 141.708 142.46 152.464 142.909C159.879 143.219 166.935 146.894 174.391 145.057C184.6 142.542 184.673 132.268 196.474 134.8C207.834 137.241 210.602 143.391 223.13 140.361C231.101 138.434 236.85 132.162 245.401 132.292C253.837 132.423 258.622 136.613 267.679 135.559C275.25 134.677 282.191 130.61 289.901 130.161C298.231 129.671 304.192 133.256 312.016 134.661C320.428 136.172 329.672 134.538 338.345 136.016C345.736 137.274 352.327 139.838 360.036 140.067C367.631 140.288 374.181 138.76 381.465 141.668C392.474 146.07 397.096 156.433 406.741 161.807C413.854 165.776 423.793 163.514 431.454 164.24" stroke="#F64C70" stroke-width="0.6" stroke-linecap="round" stroke-linejoin="round"/>
<path d="M58.3438 167.327C72.9784 157.078 85.8164 146.445 104.42 148.446C112.113 149.271 118.099 151.321 125.907 150.03C136.678 148.258 140.778 144.028 152.056 145.114C159.537 145.833 166.503 151.402 174.09 150.594C183.024 149.646 186.838 136.474 196.279 136.792C200.24 140.23 204.699 142.656 209.648 144.061C213.87 146.298 218.337 146.535 223.049 144.771C232.139 142.378 235.863 134.187 245.418 135.143C254.18 136.025 258.133 140.165 267.786 138.842C275.446 137.789 282.494 132.815 290.097 132.031C299.342 131.076 303.85 135.951 312.319 137.838C320.633 139.691 329.91 136.768 338.771 138.85C352.074 141.978 369.747 139.781 382.136 144.363C392.801 148.307 397.391 160.141 407.575 164.518C414.941 167.679 424.7 164.779 432.475 166.315" stroke="#F64C70" stroke-width="0.6" stroke-linecap="round" stroke-linejoin="round"/>
<path d="M57.3711 170.227C72.7081 159.43 84.4273 149.777 103.766 151.46C111.336 152.121 117.731 153.55 125.375 152.015C136.073 149.867 140.451 144.698 151.655 146.87C159.283 148.348 166.192 155.674 173.787 155.821C179.928 159.283 184.379 156.466 187.139 147.376C190.112 144.232 193.093 141.096 196.066 137.952C199.863 142.174 204.338 145.351 209.492 147.482C213.501 150.365 217.985 150.961 222.942 149.287C225.939 147.54 228.928 145.792 231.925 144.044C235.69 135.551 240.182 133.705 245.4 138.507C254.482 140.059 257.291 143.963 267.859 142.15C275.658 140.81 282.828 134.62 290.268 133.591C300.15 132.227 303.335 138.63 312.579 140.859C320.664 142.803 330.26 139.528 339.154 141.782C346.577 143.66 353.38 145.204 361.073 146.11C367.206 146.837 377.121 145.4 382.747 147.335C393.805 151.141 396.949 163.44 408.35 166.846C416.386 169.247 425.067 165.947 433.438 168.683" stroke="#F64C70" stroke-width="0.6" stroke-linecap="round" stroke-linejoin="round"/>
<path d="M56.4492 173.174C72.0639 162.1 82.4111 153.223 102.068 154.456C109.386 154.914 115.976 155.502 123.285 154.015C131.207 152.398 140.721 146.363 149.067 147.507C157.283 148.634 167.998 161.913 175.127 161.831C184.797 161.717 187.067 145.375 197.006 144.599C206.21 143.881 209.411 154.277 218.974 154.252C231.322 154.22 232.465 141.284 245.401 142.786C253.633 143.742 258.117 147.196 267.427 145.261C275.496 143.587 281.882 137.641 289.412 135.804C300.494 133.092 305.255 141.422 315.676 143.097C324.112 144.444 332.899 143.938 341.735 145.636C348.906 147.017 356.084 148.389 363.238 149.785C369.543 151.018 378.845 149.818 384.521 151.77C395.725 155.624 397.938 165.735 409.674 168.846C417.971 171.043 425.672 167.156 434.354 171.353" stroke="#F64C70" stroke-width="0.6" stroke-linecap="round" stroke-linejoin="round"/>
<path d="M55.5586 176.294C71.9818 164.452 80.9324 156.612 101.472 157.445C108.862 157.747 115.551 157.216 122.803 155.477C129.385 153.893 141.807 147.212 148.708 148.249C158.222 149.679 165.702 164.044 174.882 164.207C184.241 164.37 188.92 149.556 196.842 147.572C201.954 141.251 206.364 143.317 210.064 153.762C213.004 155.207 215.952 156.653 218.892 158.098C227.941 159.046 236.271 148.87 245.417 147.629C252.588 146.657 259.75 150.062 267.524 148.372C275.732 146.592 282.208 138.907 289.591 137.314C296.639 135.803 309.085 143.701 315.953 144.975C324.797 146.616 333.021 146.649 342.127 149.05C355.463 152.561 372.401 152.357 385.124 157.339C396.035 161.61 398.697 168.258 410.425 170.455C419.473 172.145 426.358 168.47 435.276 174.448" stroke="#F64C70" stroke-width="0.6" stroke-linecap="round" stroke-linejoin="round"/>
<path d="M54.6934 178.213C63.0969 173.362 71.8352 164.142 80.9084 160.786C88.0869 158.123 91.7537 160.737 98.6545 160.696C115.192 160.606 132.505 148.527 148.357 150.675C158.688 152.072 162.412 163.309 171.281 165.588C182.355 168.43 186.569 157.895 194.36 153.95C197.822 147.686 202.453 147.466 208.251 153.272C211.346 155.853 214.433 158.434 217.529 161.014C227.312 163.979 236.369 154.056 245.41 152.325C253.217 150.83 260.877 152.88 268.644 150.986C276.369 149.099 283.858 141.259 291.837 140.875C298.991 140.532 307.754 145.832 314.932 146.87C323.001 148.029 330.024 148.789 337.897 150.643C354.451 154.546 371.781 157.617 387.697 163.954C396.395 167.417 400.405 170.398 409.919 171.933C419.572 173.493 426.293 172.325 436.134 176.596" stroke="#F64C70" stroke-width="0.6" stroke-linecap="round" stroke-linejoin="round"/>
<path d="M53.8438 179.381C64.8932 175.779 69.7361 167.653 80.2303 163.219C87.1474 160.295 91.2471 162.476 98.0744 163.194C115.592 165.048 130.741 149.311 148.005 151.753C158.124 153.19 161.799 163.088 171.019 166.379C181.726 170.21 186.209 163.505 194.18 158.923C197.626 154.521 202.273 152.545 208.12 153.002C211.224 156.457 214.327 159.911 217.43 163.366C227.5 168.152 236.622 159.854 245.401 156.718C253.29 153.901 260.836 155.616 268.709 153.664C276.884 151.639 283.123 144.975 291.976 145.113C306.61 145.342 324.16 151.198 338.207 154.26C355.659 158.058 371.176 163.407 388.236 169.385C404.382 175.036 420.323 172.88 436.958 178.066" stroke="#F64C70" stroke-width="0.6" stroke-linecap="round" stroke-linejoin="round"/>
<path d="M53.0273 180.623C64.428 183.693 70.5448 169.745 79.569 165.67C86.2575 162.648 90.7818 164.436 97.5112 165.229C115.347 167.336 129.582 150.3 147.671 153.354C167.377 156.686 172.171 177.299 194.017 163.644C198.655 159.977 203.319 156.343 208.006 152.742C211.118 156.735 214.229 160.729 217.349 164.73C228.276 172.619 235.365 165.637 245.41 160.77C253.323 156.931 260.51 157.764 268.799 155.714C277.309 153.607 282.984 148.487 292.147 149.222C307.239 150.439 323.891 153.746 338.542 156.768C356.435 160.459 371.364 169.483 388.784 174.106C397.261 176.352 402.365 174.049 411.242 174.318C420.854 174.612 428.18 179.667 437.784 179.643" stroke="#F64C70" stroke-width="0.6" stroke-linecap="round" stroke-linejoin="round"/>
<path d="M52.2422 181.946C63.2917 189.533 70.4539 172.342 78.9472 168.136C85.2273 165.025 90.4459 165.972 96.9792 167.042C115.542 170.08 128.47 151.885 147.359 155.004C166.371 158.14 173.403 179.357 193.86 168.226C198.777 164.886 203.456 161.236 207.891 157.258C211.01 159.766 214.138 162.281 217.258 164.788C230.096 175.086 231.884 172.236 245.4 164.396C274.122 147.752 307.671 156.033 338.827 159.602C357.39 161.726 371.853 175.682 389.289 178.23C397.521 179.439 403.384 175.135 411.861 175.372C422.192 175.658 428.097 185.066 438.566 181.285" stroke="#F64C70" stroke-width="0.6" stroke-linecap="round" stroke-linejoin="round"/>
<path d="M51.4746 183.341C63.0386 189.63 70.1109 175.142 78.3348 170.61C84.4761 167.22 89.8743 167.849 96.4648 168.699C115.828 171.198 127.776 154.366 147.057 156.792C166.118 159.193 174.187 181.888 193.713 172.676C202.566 168.494 206.208 157.674 217.184 163.211C219.496 172.717 224.2 176.408 231.288 174.293C236.842 174.399 241.546 172.161 245.4 167.572C258.067 159.429 277.267 154.611 292.408 156.996C300.297 158.237 307.99 161.079 315.813 162.696C324.837 164.566 330.652 163.129 339.113 162.81C358.1 162.1 372.572 180.483 389.779 181.324C398.019 181.724 403.964 176.138 412.466 176.449C422.535 176.808 428.562 185.636 439.326 183.039" stroke="#F64C70" stroke-width="0.6" stroke-linecap="round" stroke-linejoin="round"/>
<path d="M50.7324 184.837C64.3463 188.928 67.9723 179.096 77.7478 173.126C83.6768 169.508 89.3934 169.737 95.9676 170.308C109.875 171.525 111.468 170.676 123.563 163.661C131.378 159.128 137.944 157.797 146.764 158.859C165.646 161.129 175.029 184.543 193.567 177.013C201.203 173.918 207.549 160.77 217.104 162.272C218.615 172.897 223.327 177.609 231.248 176.417C236.851 177.372 241.563 175.314 245.401 170.259C259.766 160.508 275.087 156.458 292.531 160.59C300.485 162.468 307.991 166.184 316.01 167.809C325.304 169.696 330.816 166.968 339.383 166.38C358.085 165.098 373.365 183.726 390.253 183.448C398.306 183.318 404.798 176.735 413.055 177.568C422.528 178.524 429.38 185.637 440.07 184.837" stroke="#F64C70" stroke-width="0.6" stroke-linecap="round" stroke-linejoin="round"/>
<path d="M50.0215 186.428C54.5377 186.216 59.0457 186.053 63.5618 185.938C70.1033 186.845 74.6521 183.423 77.1838 175.681C82.8841 171.851 88.9357 171.647 95.4935 171.933C109.589 172.553 110.839 173.746 123.203 166.249C131.027 161.504 137.364 159.797 146.486 160.818C165.629 162.966 175.576 187.319 193.436 181.194C201.619 178.392 206.993 164.46 217.038 166.191C219.635 173.909 224.363 177.78 231.223 177.821C236.728 179.756 241.456 177.984 245.409 172.521C261.612 161.3 273.257 157.388 292.661 163.97C300.46 166.616 308.17 171.679 316.206 173.223C325.132 174.938 330.955 171.492 339.652 170.74C358.28 169.148 373.887 186.012 390.71 184.918C398.379 184.419 405.761 177.437 413.618 178.891L422.715 184.852C428.759 185.31 434.778 185.947 440.788 186.763" stroke="#F64C70" stroke-width="0.6" stroke-linecap="round" stroke-linejoin="round"/>
<path d="M49.3359 188.128C53.9011 186.674 58.4336 186.527 62.9498 187.711C69.4504 190.08 74.0074 186.944 76.6453 178.32C82.2558 174.383 88.4216 173.657 95.0366 173.665C106.968 173.681 111.933 175.282 122.852 169.426C130.978 165.073 136.482 162.117 146.217 163.032C154.4 163.799 163.22 167.205 169.704 172.464C180.256 181.031 180.06 188.83 193.298 185.131C202.314 182.615 206.185 168.299 216.957 169.81C220.779 174.498 225.515 177.446 231.175 178.638C236.434 181.611 241.171 180.206 245.401 174.424C262.715 162.509 272.49 157.723 292.768 167.091C300.2 170.521 308.53 177.315 316.378 178.802C325.075 180.451 330.686 176.107 339.898 175.257C348.277 174.481 360.045 176.107 367.95 178.891C376.092 181.758 382.021 186.838 391.144 185.947C398.608 185.212 406.448 178.581 414.157 180.492C417.203 182.877 420.25 185.253 423.304 187.638C429.453 186.535 435.513 186.919 441.475 188.798" stroke="#F64C70" stroke-width="0.6" stroke-linecap="round" stroke-linejoin="round"/>
<path d="M48.6738 189.94C61.8548 187.155 64.4355 188.862 76.1302 181.455C82.3042 177.543 87.3267 175.812 94.6032 175.526C104.076 175.15 113.427 177.053 122.533 173.272C131.026 169.744 135.673 165.13 145.972 165.759C154.408 166.281 162.738 169.67 169.532 175.069C179.43 182.941 180.786 191.23 193.183 188.65C202.82 186.641 206.094 173.1 216.899 173.166C232.759 173.264 229.32 186.845 245.401 176.032C263.171 164.084 272.383 158.262 292.882 169.858C300.411 174.121 307.925 181.43 316.549 182.941C324.936 184.411 331.502 180.385 340.134 179.642C348.186 178.948 360.42 178.646 368.276 180.793C376.631 183.08 382.298 187.702 391.559 186.714C399.693 185.849 406.063 180.687 414.671 182.909C417.734 184.632 420.796 186.355 423.859 188.078C430.122 187.89 436.207 188.829 442.127 190.896" stroke="#F64C70" stroke-width="0.6" stroke-linecap="round" stroke-linejoin="round"/>
<path d="M48.0449 191.868C57.0446 189.262 67.1386 188.936 75.6401 184.844C82.6226 181.48 86.1016 178.205 94.1948 177.584C102.1 176.972 114.685 179.716 122.223 177.78C130.683 175.616 135.428 168.364 145.735 168.47C164.967 168.666 176.302 193.779 193.069 191.549C202.893 190.251 206.511 177.584 216.842 176.343C231.697 174.562 230.79 187.017 245.409 177.519C253.902 171.998 258.239 165.595 269.215 164.958C277.561 164.468 285.973 167.939 292.996 172.219C301.163 177.2 306.985 185.057 316.72 186.682C324.658 188.005 332.408 184.624 340.371 183.897C348.178 183.178 360.853 180.892 368.603 182.28C376.99 183.783 382.764 188.266 391.976 187.433C401.196 186.6 405.451 183.644 415.186 185.963C424.414 188.16 433.699 190.324 442.781 193.076" stroke="#F64C70" stroke-width="0.6" stroke-linecap="round" stroke-linejoin="round"/>
<path d="M47.4414 193.917C57.2087 190.381 65.8817 191.05 75.1672 188.364C82.2477 186.322 85.5307 180.752 93.7954 179.846C102.877 178.849 113.052 181.316 121.921 180.042C130.447 178.817 136.752 171.704 145.507 171.222C163.955 170.209 177.014 194.399 192.963 193.566C202.518 193.068 207.23 181.512 216.785 179.38C230.44 176.334 232.22 187.294 245.41 179.037C254.246 173.5 257.619 167.571 269.264 167.514C276.623 167.473 286.578 170.307 293.095 174.096C302.258 179.413 306.039 188.453 316.876 190.315C324.185 191.573 333.16 188.903 340.584 188.012C348.84 187.032 360.617 183.308 368.898 184.052C376.999 184.778 383.745 188.69 392.352 188.266C410.327 187.367 425.868 189.197 443.386 195.338" stroke="#F64C70" stroke-width="0.6" stroke-linecap="round" stroke-linejoin="round"/>
<path d="M46.8613 196.091C51.402 193.959 56.0325 192.073 60.761 190.423C65.1383 188.063 69.7933 187.777 74.7178 189.558C81.1287 188.349 86.4043 183.318 93.4195 182.371C102.827 181.097 112.268 182.453 121.643 182.755C132.285 183.098 135.51 175.478 145.294 174.27C162.754 172.122 176.368 194.792 192.857 194.204C201.848 193.886 208.112 184.878 216.728 182.363C228.578 178.9 234.058 187.197 245.409 180.852C254.736 175.633 257.03 169.949 269.305 170.57C276.663 170.946 286.537 173.812 293.184 177.397C302.102 182.208 306.749 190.276 317.015 192.694C324.397 194.433 333.307 193.184 340.78 191.999C349.306 190.644 360.608 185.531 369.175 185.564C376.901 185.589 384.716 189.272 392.703 189.386C411.193 189.647 426.538 190.897 443.949 197.708" stroke="#F64C70" stroke-width="0.6" stroke-linecap="round" stroke-linejoin="round"/>
<path d="M46.3047 198.385C60.8904 191.288 77.0032 187.597 93.0425 185.122C101.756 183.775 112.716 184.469 121.356 185.923L130.83 188.013C133.909 181.406 138.653 177.919 145.072 177.544C161.226 174.816 175.077 194.195 192.749 193.509C201.496 193.166 208.511 187.907 216.67 185.294C226.412 182.174 236.139 186.723 245.4 183.17C255.086 179.463 256.956 172.946 269.345 174.016C277.152 174.693 286.086 178.238 293.273 181.57C310.341 189.475 320.623 200.067 340.974 195.763C350.023 193.852 360.117 187.18 369.443 186.911C376.998 186.69 385.483 190.112 393.045 190.872C411.69 192.742 427.035 192.742 444.495 200.124" stroke="#F64C70" stroke-width="0.6" stroke-linecap="round" stroke-linejoin="round"/>
<path d="M45.7832 200.818C60.6465 192.823 76.2857 190.838 92.7089 188.127C102.329 186.543 111.639 188.641 121.113 189.613C132.334 190.757 134.637 182.868 144.894 181.063C155.29 179.233 160.223 185.367 168.749 189.801C177.985 194.603 183.465 191.712 192.669 191.394C201.228 191.1 208.153 190.855 216.63 188.241C221.22 186.02 226.022 184.975 231.02 185.097C235.871 184.517 240.664 184.934 245.409 186.338C248.611 183.799 251.804 181.267 255.005 178.727C259.807 176.473 264.609 176.163 269.395 177.821C277.855 178.89 285.271 183.758 293.364 186.183C309.387 190.993 323.18 204.256 341.163 199.307C350.996 196.604 359.114 188.527 369.706 188.241C377.301 188.037 386.047 191.32 393.381 192.831C411.944 196.653 427.06 194.579 445.027 202.598" stroke="#F64C70" stroke-width="0.6" stroke-linecap="round" stroke-linejoin="round"/>
<path d="M45.2852 203.384C60.4507 194.58 75.6162 193.886 92.3905 191.363C102.795 189.795 110.88 193.853 120.876 193.821C129.99 193.796 136.172 186.234 144.714 184.805C155.249 183.049 159.667 188.129 168.618 192.449C180.574 198.214 181.873 190.742 192.579 190.195C201.097 189.762 207.72 193.527 216.581 191.24C221.228 189.247 226.03 187.867 230.995 187.091C235.822 185.466 240.624 185.858 245.409 188.259C248.611 186.201 251.82 184.143 255.021 182.085C259.93 180.035 264.732 179.97 269.436 181.881C277.994 183.351 285.05 189.476 293.446 191.191C302.56 193.061 308.57 195.078 317.415 198.99C325.679 202.641 332.188 205.769 341.335 202.575C351.429 199.064 358.591 190.048 369.943 189.648C377.66 189.37 386.505 193.118 393.683 195.348C412.173 201.089 426.587 196.418 445.525 205.132" stroke="#F64C70" stroke-width="0.6" stroke-linecap="round" stroke-linejoin="round"/>
<path d="M44.8184 206.07C60.7597 196.89 75.1902 195.804 93.2467 194.645C102.81 194.032 113.1 198.017 122.508 196.678C129.262 195.714 135.632 191.019 142.083 189.018C156.939 184.42 158.164 192.783 171.532 196.531C183.897 200.002 182.655 187.687 191.206 186.903C195.665 190.284 200.589 192.521 205.979 193.624C210.822 195.763 215.747 195.567 220.761 193.028C229.263 190.635 236.694 189.091 245.408 187.907C254.114 186.723 260.908 183.228 270.055 185.947C278.655 188.503 285.506 195.004 294.686 195.845C298.05 197.021 301.333 196.817 304.527 195.233C310.864 192.007 315.78 194.587 319.276 202.966C327.981 208.552 334.8 207.744 343.816 203.644C352.367 199.757 358.386 192.881 368.3 191.745C377.006 190.749 384.797 195.069 392.694 197.895C411.191 204.518 426.741 199.161 445.998 207.695" stroke="#F64C70" stroke-width="0.6" stroke-linecap="round" stroke-linejoin="round"/>
<path d="M44.3789 208.904C61.0879 200.517 74.2689 197.904 92.9706 198.222C103.105 198.394 112.26 201.913 122.313 199.357C128.896 197.683 135.266 195.151 141.93 193.469C158.671 189.255 155.748 196.507 171.428 198.965C181.179 200.492 183.547 191.493 191.134 189.917C203.155 187.426 207.778 199.561 220.73 196.409C229.321 194.318 236.385 189.737 245.41 188.724C253.576 187.81 262.282 187.483 270.089 190.333C278.958 193.567 285.034 200.084 294.753 200.411C308.611 200.868 305.451 196.924 319.383 205.441C329.183 211.436 333.936 210.758 343.973 205.735C352.409 201.513 358.502 195.568 368.506 194.163C378.265 192.799 384.325 198.214 392.965 201.407C402.634 204.976 407.681 203.882 417.334 203.187C427.445 202.461 437.261 206.846 446.44 210.333" stroke="#F64C70" stroke-width="0.6" stroke-linecap="round" stroke-linejoin="round"/>
<path d="M43.9609 211.86C61.4376 204.363 73.3854 200.01 92.7078 201.856C104.574 202.991 110.642 206.486 122.116 202.272C128.837 199.806 134.709 197.691 141.773 196.302C156.677 193.387 157.551 200.435 171.328 201.423C178.719 201.954 184.754 195.559 191.059 193.191C206.518 187.376 205.277 202.803 220.688 199.912C229.475 198.262 236.196 191.337 245.392 190.373C264.624 188.356 278.23 205.563 294.792 205.188C306.397 204.926 307.401 201.349 319.463 207.662C330.211 213.289 332.849 213.608 344.094 207.924C352.596 203.628 358.688 198.663 368.676 196.972C379.791 195.094 383.67 201.864 393.192 205.4C402.535 208.871 407.778 206.609 417.635 206.176C427.639 205.743 437.521 209.998 446.839 212.938" stroke="#F64C70" stroke-width="0.6" stroke-linecap="round" stroke-linejoin="round"/>
<path d="M43.5781 214.963C62.141 208.217 73.3375 201.871 93.697 205.546C102.713 207.172 109.957 208.486 118.875 206.518C127.654 204.583 134.898 199.985 144.11 199.119C153.338 198.254 160.443 202.231 169.394 202.451C179.284 202.696 184.902 196.686 194.71 195.428C205.515 194.04 210.047 203.782 220.052 202.868C229.558 202.002 235.895 193.893 245.409 192.382C265.564 189.18 277.161 211.165 296.108 208.764C313.756 206.526 325.736 217.813 341.653 211.386C350.114 207.972 357.562 202.272 366.896 200.54C380.339 198.049 381.613 203.929 392.082 208.707C395.864 214.293 400.886 215.036 407.166 210.92C410.515 210.381 413.855 209.842 417.203 209.303C427.411 208.936 437.522 213.092 447.232 215.567" stroke="#F64C70" stroke-width="0.6" stroke-linecap="round" stroke-linejoin="round"/>
<path d="M43.2266 218.541C62.1569 212.106 72.6674 203.784 93.4842 209.076C102.802 211.444 109.221 212.253 118.711 209.819C127.384 207.59 134.75 202.518 143.987 202.175C152.652 201.849 160.68 205.54 169.304 205.156C178.14 204.764 185.89 201.065 194.653 199.717C206.315 197.92 209.467 206.994 220.027 206.381C229.737 205.826 235.837 197.643 245.409 195.683C252.595 194.213 259.537 196.589 265.711 200.093C279.635 207.982 280.068 214.703 296.156 212.482C312.735 210.195 326.006 218.827 341.767 213.298C350.195 210.342 357.954 205.303 367.051 204.005C379.685 202.2 382.119 207.631 392.286 211.787C396.304 216.777 401.335 217.422 407.403 213.723C410.759 213.29 414.108 212.857 417.464 212.424C427.672 212.261 437.726 216.222 447.583 218.313" stroke="#F64C70" stroke-width="0.6" stroke-linecap="round" stroke-linejoin="round"/>
<path d="M42.9004 221.873C63.3497 215.87 72.2759 206.242 94.5791 213.036C114.726 219.178 126.993 204.51 146.478 205.76C153.428 206.209 160.149 209.418 167.279 208.994C175.993 208.471 184.478 204.845 193.306 204.29C198.533 203.661 203.743 203.914 208.929 205.041C212.4 207.075 215.879 209.108 219.349 211.142C228.055 211.762 236.932 201.562 245.401 200.035C265.744 196.368 273.511 217.863 292.294 216.597C310.097 215.396 327.403 219.994 344.332 214.041C352.662 211.109 361.376 207.654 370.302 207.826C381.997 208.046 385.615 215.527 396.231 217.838C402.324 219.169 410.678 215.625 416.934 215.535C427.256 215.388 437.832 219.194 447.91 220.999" stroke="#F64C70" stroke-width="0.6" stroke-linecap="round" stroke-linejoin="round"/>
<path d="M42.5977 224.983C53.1082 222.729 58.7105 217.217 68.4697 214.007C78.6372 210.667 84.901 213.819 94.3907 216.759C114.276 222.917 127.531 206.878 146.371 209.434C154.636 210.553 158.246 213.836 167.196 212.268C176.31 210.675 183.987 208.339 193.248 208.47C202.46 208.601 211.076 214.644 219.316 214.832C228.283 215.044 236.695 205.824 245.392 204.199C265.074 200.524 273.902 219.863 292.326 219.903C310.17 219.944 326.83 219.765 344.421 216.457C353.135 214.816 361.375 211.181 370.432 211.9C379.971 212.651 387.019 218.646 396.402 220.05C403.074 221.055 410.449 218.605 417.145 218.589C427.517 218.556 437.995 222.076 448.203 223.603" stroke="#F64C70" stroke-width="0.6" stroke-linecap="round" stroke-linejoin="round"/>
<path d="M42.3281 227.884C54.325 226.577 57.657 220.934 68.2655 217.136C79.1843 213.233 84.3211 217.455 94.2355 220.444C113.525 226.267 127.972 210.783 146.29 213.404C154.693 214.605 158.017 217.986 167.139 216.124C176.735 214.172 183.481 211.991 193.215 212.645C201.831 213.225 210.806 218.1 219.308 217.88C228.61 217.643 236.409 210.17 245.409 208.61C264.135 205.368 274.482 222.061 292.383 223.082C310.562 224.119 326.953 220.019 344.527 218.917C353.323 218.361 361.604 214.85 370.571 216.116C380.175 217.471 386.349 221.955 396.582 222.322C414.41 222.967 430.727 223.833 448.489 226.112" stroke="#F64C70" stroke-width="0.6" stroke-linecap="round" stroke-linejoin="round"/>
<path d="M42.0918 230.611C55.7465 230.922 56.4896 224.821 68.0781 220.321C79.6095 215.846 83.848 220.918 94.0971 224.045C112.578 229.68 128.242 215.528 146.217 217.684C153.787 218.59 159.006 221.947 167.083 220.46C177.364 218.566 182.746 215.773 193.183 216.826C202.15 217.733 210.121 221.105 219.292 220.379C228.643 219.635 236.303 214.45 245.409 213.176C262.894 210.726 275.128 224.405 292.408 226.112C310.522 227.9 326.97 221.416 344.601 221.432C353.405 221.44 361.841 219.064 370.669 220.428C380.494 221.947 386.374 224.74 396.713 224.748C414.484 224.764 431.095 226.479 448.718 228.57" stroke="#F64C70" stroke-width="0.6" stroke-linecap="round" stroke-linejoin="round"/>
<path d="M41.8789 233.184C53.6716 233.143 57.7794 226.74 68.6002 223.286C80.7114 219.415 82.9572 223.719 95.3461 227.091C111.622 231.518 127.441 221.865 143.538 222.445C153.297 222.796 160.279 225.474 170.332 223.367C178.009 221.759 183.693 219.447 191.778 220.493C201.129 221.71 208.944 224.886 218.589 223.841C227.777 222.853 236.368 218.582 245.409 217.381C261.66 215.217 277.569 227.018 293.674 228.798C310.35 230.636 325.409 223.016 341.922 223.539C359.938 224.111 377.856 228.227 395.471 228.014C413.74 227.794 430.792 228.659 448.93 230.979" stroke="#F64C70" stroke-width="0.6" stroke-linecap="round" stroke-linejoin="round"/>
<path d="M41.6992 235.641C52.7732 235.282 58.2449 229.9 68.4614 226.625C80.2949 222.836 82.7694 226.307 95.2399 229.557C111.002 233.673 127.645 226.585 143.48 226.887C152.17 227.05 161.668 229.28 170.292 227.859C178.27 226.544 183.195 223.334 191.754 224.592C201.268 225.997 208.659 228.34 218.581 227.091C227.491 225.972 236.482 222.567 245.409 222.003C261.611 220.974 277.708 229.802 293.698 231.436C310.252 233.118 325.156 225.351 341.971 226.209C359.922 227.124 377.66 231.566 395.569 231.15C413.879 230.725 430.89 230.929 449.11 233.338" stroke="#F64C70" stroke-width="0.6" stroke-linecap="round" stroke-linejoin="round"/>
<path d="M41.5449 237.994C51.9738 237.43 58.7031 233.176 68.3398 230.146C79.8548 226.52 82.5824 228.994 95.1428 231.959C110.48 235.577 127.818 231.109 143.416 231.077C152.024 231.06 161.791 232.4 170.243 231.273C178.034 230.236 183.49 227.402 191.714 228.717C201.424 230.276 208.333 231.983 218.557 230.505C227.459 229.215 236.304 226.381 245.401 226.593C261.661 226.977 277.668 232.612 293.715 233.976C310.13 235.372 325.141 228.676 342.021 229.705C360.192 230.815 377.415 234.776 395.66 234.254C414.035 233.731 430.956 233.274 449.258 235.691" stroke="#F64C70" stroke-width="0.6" stroke-linecap="round" stroke-linejoin="round"/>
<path d="M41.4219 240.28C51.6057 239.553 59.5274 236.254 68.968 233.543C78.0575 230.929 81.2425 231.313 91.0099 233.167C106.935 236.197 124.256 236.001 140.622 235.878C159.087 235.74 177.675 231.109 195.764 233.959C212.84 236.654 228.332 230.292 245.401 231.403C262.02 232.489 278.557 236.025 295.038 237.038C303.147 237.536 309.452 233.878 317.096 232.677C325.875 231.297 335.896 232.791 344.667 233.379C361.425 234.498 377.366 237.822 394.279 237.357C413.193 236.842 430.498 235.601 449.38 238.034" stroke="#F64C70" stroke-width="0.6" stroke-linecap="round" stroke-linejoin="round"/>
<path d="M41.332 242.517C59.4947 241.055 73.1085 233.182 90.9609 235.828C106.968 238.205 124.273 239.642 140.598 239.536C159.471 239.422 177.095 235.902 195.756 238.295C212.465 240.434 228.773 234.603 245.401 235.812C261.636 236.996 278.802 239.087 295.046 239.699C302.657 239.985 309.721 236.743 317.112 235.91C326.104 234.897 335.74 236.4 344.691 237.07C361.376 238.303 377.537 240.851 394.328 240.361C413.226 239.814 430.58 238.099 449.469 240.377" stroke="#F64C70" stroke-width="0.6" stroke-linecap="round" stroke-linejoin="round"/>
<path d="M41.2754 244.732C58.3927 243.302 73.9502 237.006 90.9206 238.631C107.229 240.191 124.085 242.845 140.574 242.804C159.382 242.763 177.087 240.281 195.748 242.118C212.392 243.76 229.003 238.909 245.409 240.166C277.888 242.657 311.682 238.37 344.724 240.844C379.71 243.466 415.031 239.007 449.543 242.747" stroke="#F64C70" stroke-width="0.6" stroke-linecap="round" stroke-linejoin="round"/>
<path d="M41.2422 246.928C58.2452 245.54 75.4197 240.615 92.2839 241.734C109.336 242.869 126.249 246.308 143.326 245.703C177.193 244.503 211.926 243 245.409 244.486C277.651 245.924 309.689 241.947 341.816 244.323C377.84 246.985 413.936 241.816 449.567 245.123" stroke="#F64C70" stroke-width="0.6" stroke-linecap="round" stroke-linejoin="round"/>
<path d="M41.2422 249.141C58.0982 247.899 75.7137 244.502 92.2839 244.804C109.262 245.114 126.29 248.316 143.326 248.724C177.43 249.541 211.501 248.316 245.409 248.095C277.463 247.883 309.779 245.433 341.816 248.03C377.897 250.954 413.757 244.902 449.567 247.548" stroke="#F64C70" stroke-width="0.6" stroke-linecap="round" stroke-linejoin="round"/>
<path d="M41.2754 251.371C57.9844 250.358 74.5954 248.774 90.9206 248.014C107.001 247.263 124.355 250.718 140.574 251.412C175.633 252.898 210.905 253.38 245.401 251.036C277.823 248.831 312.098 249.582 344.716 252C379.718 254.597 414.664 248.153 449.535 249.999" stroke="#F64C70" stroke-width="0.6" stroke-linecap="round" stroke-linejoin="round"/>
<path d="M41.332 253.624C74.6684 252.171 107.237 252.244 140.59 254.041C158.965 255.029 177.438 258.688 195.747 257.022C212.35 255.503 228.978 255.331 245.393 254.18C277.871 251.901 312.065 253.2 344.683 255.584C379.579 258.14 414.606 251.452 449.461 252.465" stroke="#F64C70" stroke-width="0.6" stroke-linecap="round" stroke-linejoin="round"/>
<path d="M41.4219 255.912C74.4642 255.152 107.768 254.817 140.622 256.745C159.112 257.831 177.185 262.829 195.764 260.967C212.383 259.301 228.782 258.68 245.401 257.48C277.929 255.128 312.073 256.908 344.667 259.08C379.424 261.4 414.606 254.85 449.38 254.972" stroke="#F64C70" stroke-width="0.6" stroke-linecap="round" stroke-linejoin="round"/>
<path d="M41.5449 258.239C109.712 258.239 177.389 267.557 245.401 260.828C261.277 259.26 277.725 260.828 293.715 260.468C309.714 260.109 326.08 260.983 342.021 262.232C377.448 265.025 413.798 258.288 449.266 257.504" stroke="#F64C70" stroke-width="0.6" stroke-linecap="round" stroke-linejoin="round"/>
<path d="M41.6992 260.608C75.6154 261.482 109.662 261.441 143.472 263.727C159.585 264.814 175.551 269.06 191.745 268.284C209.622 267.435 227.499 265.483 245.4 264.397C277.063 262.478 310.285 263.621 341.971 265.565C377.333 267.737 413.756 261.833 449.11 260.061" stroke="#F64C70" stroke-width="0.6" stroke-linecap="round" stroke-linejoin="round"/>
<path d="M41.8789 263.017C75.7461 264.821 109.719 264.789 143.529 267.067C159.61 268.153 175.616 271.975 191.77 271.428C209.663 270.832 227.475 268.594 245.4 268.023C277.397 267.002 309.893 267.345 341.914 268.717C377.202 270.228 413.724 265.393 448.93 262.633" stroke="#F64C70" stroke-width="0.6" stroke-linecap="round" stroke-linejoin="round"/>
<path d="M42.0918 265.466C75.9181 268.128 109.802 268.186 143.603 270.456C159.643 271.534 175.715 274.825 191.803 274.474C209.672 274.09 227.491 271.901 245.401 271.689C313.405 270.905 380.845 272.138 448.718 265.213" stroke="#F64C70" stroke-width="0.6" stroke-linecap="round" stroke-linejoin="round"/>
<path d="M42.3281 267.94C176.588 279.765 314.27 281.447 448.481 267.801" stroke="#F64C70" stroke-width="0.6" stroke-linecap="round" stroke-linejoin="round"/>
<path d="M42.5977 270.423C177.037 283.187 313.796 283.963 448.211 270.357" stroke="#F64C70" stroke-width="0.6" stroke-linecap="round" stroke-linejoin="round"/>
<path d="M42.9004 272.915C177.471 286.537 313.356 286.749 447.918 272.898" stroke="#F64C70" stroke-width="0.6" stroke-linecap="round" stroke-linejoin="round"/>
<path d="M43.2266 275.373C177.723 290.016 313.102 290.016 447.591 275.373" stroke="#F64C70" stroke-width="0.6" stroke-linecap="round" stroke-linejoin="round"/>
<path d="M43.5781 277.807C177.74 293.723 313.07 293.723 447.232 277.807" stroke="#F64C70" stroke-width="0.6" stroke-linecap="round" stroke-linejoin="round"/>
<path d="M43.9609 280.23C177.788 297.413 313.02 297.413 446.839 280.23" stroke="#F64C70" stroke-width="0.6" stroke-linecap="round" stroke-linejoin="round"/>
<path d="M44.3789 282.641C177.839 301.089 312.981 301.089 446.432 282.641" stroke="#F64C70" stroke-width="0.6" stroke-linecap="round" stroke-linejoin="round"/>
<path d="M44.8184 285.041C177.886 304.747 312.93 304.747 445.99 285.041" stroke="#F64C70" stroke-width="0.6" stroke-linecap="round" stroke-linejoin="round"/>
<path d="M45.2852 287.443C177.928 308.415 312.874 308.415 445.525 287.443" stroke="#F64C70" stroke-width="0.6" stroke-linecap="round" stroke-linejoin="round"/>
<path d="M45.7832 289.828C177.969 312.066 312.841 312.066 445.027 289.828" stroke="#F64C70" stroke-width="0.6" stroke-linecap="round" stroke-linejoin="round"/>
<path d="M46.3047 292.195C178.009 315.691 312.791 315.691 444.503 292.195" stroke="#F64C70" stroke-width="0.6" stroke-linecap="round" stroke-linejoin="round"/>
<path d="M46.8613 294.564C178.067 319.293 312.743 319.293 443.949 294.564" stroke="#F64C70" stroke-width="0.6" stroke-linecap="round" stroke-linejoin="round"/>
<path d="M47.4414 296.916C178.116 322.886 312.703 322.886 443.378 296.916" stroke="#F64C70" stroke-width="0.6" stroke-linecap="round" stroke-linejoin="round"/>
<path d="M48.0449 299.252C178.156 326.463 312.653 326.463 442.764 299.252" stroke="#F64C70" stroke-width="0.6" stroke-linecap="round" stroke-linejoin="round"/>
<path d="M48.6738 301.588C178.197 330.041 312.604 330.041 442.127 301.588" stroke="#F64C70" stroke-width="0.6" stroke-linecap="round" stroke-linejoin="round"/>
<path d="M49.3359 303.906C178.214 333.608 312.588 333.608 441.475 303.906" stroke="#F64C70" stroke-width="0.6" stroke-linecap="round" stroke-linejoin="round"/>
<path d="M50.0215 306.209C178.254 337.144 312.547 337.144 440.788 306.209" stroke="#F64C70" stroke-width="0.6" stroke-linecap="round" stroke-linejoin="round"/>
<path d="M50.7324 308.512C178.296 340.672 312.507 340.672 440.07 308.512" stroke="#F64C70" stroke-width="0.6" stroke-linecap="round" stroke-linejoin="round"/>
<path d="M51.4746 310.799C178.336 344.176 312.473 344.176 439.334 310.799" stroke="#F64C70" stroke-width="0.6" stroke-linecap="round" stroke-linejoin="round"/>
<path d="M52.2422 313.07C178.376 347.664 312.44 347.664 438.574 313.07" stroke="#F64C70" stroke-width="0.6" stroke-linecap="round" stroke-linejoin="round"/>
<path d="M53.0273 315.332C176.948 352.009 313.846 351.69 437.775 315.332" stroke="#F64C70" stroke-width="0.6" stroke-linecap="round" stroke-linejoin="round"/>
<path d="M53.8438 317.578C176.932 355.447 313.862 355.112 436.958 317.578" stroke="#F64C70" stroke-width="0.6" stroke-linecap="round" stroke-linejoin="round"/>
<path d="M54.6934 319.814C176.908 358.892 313.895 358.549 436.126 319.814" stroke="#F64C70" stroke-width="0.6" stroke-linecap="round" stroke-linejoin="round"/>
<path d="M55.5586 322.037C176.874 362.323 313.919 361.964 435.26 322.037" stroke="#F64C70" stroke-width="0.6" stroke-linecap="round" stroke-linejoin="round"/>
<path d="M56.4492 324.25C176.842 365.72 313.952 365.361 434.362 324.25" stroke="#F64C70" stroke-width="0.6" stroke-linecap="round" stroke-linejoin="round"/>
<path d="M57.3711 326.455C176.817 369.118 313.976 368.742 433.446 326.455" stroke="#F64C70" stroke-width="0.6" stroke-linecap="round" stroke-linejoin="round"/>
<path d="M58.3438 328.725C176.809 372.563 313.977 372.179 432.459 328.725" stroke="#F64C70" stroke-width="0.6" stroke-linecap="round" stroke-linejoin="round"/>
<path d="M59.3477 330.979C176.809 375.993 313.976 375.601 431.454 330.979" stroke="#F64C70" stroke-width="0.6" stroke-linecap="round" stroke-linejoin="round"/>
<path d="M60.3848 333.217C176.85 379.375 313.943 378.958 430.433 333.217" stroke="#F64C70" stroke-width="0.6" stroke-linecap="round" stroke-linejoin="round"/>
<path d="M61.4395 335.438C176.859 382.755 313.928 382.331 429.372 335.438" stroke="#F64C70" stroke-width="0.6" stroke-linecap="round" stroke-linejoin="round"/>
<path d="M62.5156 337.643C176.873 386.112 313.902 385.679 428.284 337.643" stroke="#F64C70" stroke-width="0.6" stroke-linecap="round" stroke-linejoin="round"/>
<path d="M63.627 339.832C176.899 389.453 313.878 389.004 427.182 339.832" stroke="#F64C70" stroke-width="0.6" stroke-linecap="round" stroke-linejoin="round"/>
<path d="M64.7617 342.012C176.931 392.776 313.845 392.31 426.047 342.012" stroke="#F64C70" stroke-width="0.6" stroke-linecap="round" stroke-linejoin="round"/>
<path d="M65.9219 344.176C176.972 396.075 313.805 395.601 424.888 344.176" stroke="#F64C70" stroke-width="0.6" stroke-linecap="round" stroke-linejoin="round"/>
<path d="M67.1055 346.324C177.07 399.318 313.706 398.828 423.703 346.324" stroke="#F64C70" stroke-width="0.6" stroke-linecap="round" stroke-linejoin="round"/>
<path d="M68.3145 348.455C177.127 402.567 313.641 402.069 422.495 348.455" stroke="#F64C70" stroke-width="0.6" stroke-linecap="round" stroke-linejoin="round"/>
<path d="M69.5488 350.57C177.202 405.801 313.577 405.287 421.263 350.57" stroke="#F64C70" stroke-width="0.6" stroke-linecap="round" stroke-linejoin="round"/>
<path d="M70.8047 352.662C177.282 409.004 313.494 408.473 420.003 352.662" stroke="#F64C70" stroke-width="0.6" stroke-linecap="round" stroke-linejoin="round"/>
<path d="M72.0879 354.744C177.364 412.188 313.397 411.649 418.722 354.744" stroke="#F64C70" stroke-width="0.6" stroke-linecap="round" stroke-linejoin="round"/>
<path d="M73.3945 356.811C177.52 415.317 313.241 414.761 417.415 356.811" stroke="#F64C70" stroke-width="0.6" stroke-linecap="round" stroke-linejoin="round"/>
<path d="M74.7266 358.859C177.635 418.46 313.128 417.888 416.085 358.859" stroke="#F64C70" stroke-width="0.6" stroke-linecap="round" stroke-linejoin="round"/>
<path d="M76.082 360.895C177.757 421.573 313.005 420.993 414.737 360.895" stroke="#F64C70" stroke-width="0.6" stroke-linecap="round" stroke-linejoin="round"/>
<path d="M77.4531 362.91C177.887 424.675 312.865 424.078 413.348 362.91" stroke="#F64C70" stroke-width="0.6" stroke-linecap="round" stroke-linejoin="round"/>
<path d="M78.8574 364.904C178.033 427.739 312.726 427.134 411.951 364.904" stroke="#F64C70" stroke-width="0.6" stroke-linecap="round" stroke-linejoin="round"/>
<path d="M80.2793 366.879C178.181 430.783 312.564 430.162 410.523 366.879" stroke="#F64C70" stroke-width="0.6" stroke-linecap="round" stroke-linejoin="round"/>
<path d="M81.7324 368.848C178.418 433.773 312.343 433.144 409.085 368.848" stroke="#F64C70" stroke-width="0.6" stroke-linecap="round" stroke-linejoin="round"/>
<path d="M83.2031 370.791C178.598 436.77 312.156 436.124 407.616 370.791" stroke="#F64C70" stroke-width="0.6" stroke-linecap="round" stroke-linejoin="round"/>
<path d="M84.6895 372.711C178.778 439.743 311.96 439.081 406.113 372.711" stroke="#F64C70" stroke-width="0.6" stroke-linecap="round" stroke-linejoin="round"/>
<path d="M86.207 374.621C178.98 442.698 311.762 442.021 404.609 374.621" stroke="#F64C70" stroke-width="0.6" stroke-linecap="round" stroke-linejoin="round"/>
<path d="M87.7441 376.508C179.194 445.622 311.543 444.928 403.067 376.508" stroke="#F64C70" stroke-width="0.6" stroke-linecap="round" stroke-linejoin="round"/>
<path d="M89.3027 378.379C179.487 448.49 311.248 447.787 401.506 378.379" stroke="#F64C70" stroke-width="0.6" stroke-linecap="round" stroke-linejoin="round"/>
<path d="M90.8789 380.232C179.716 451.364 311.011 450.645 399.922 380.232" stroke="#F64C70" stroke-width="0.6" stroke-linecap="round" stroke-linejoin="round"/>
<path d="M92.4883 382.062C179.97 454.215 310.767 453.48 398.33 382.062" stroke="#F64C70" stroke-width="0.6" stroke-linecap="round" stroke-linejoin="round"/>
<path d="M94.1055 383.875C180.223 457.04 310.498 456.297 396.697 383.875" stroke="#F64C70" stroke-width="0.6" stroke-linecap="round" stroke-linejoin="round"/>
<path d="M95.7539 385.662C180.491 459.832 310.235 459.072 395.062 385.662" stroke="#F64C70" stroke-width="0.6" stroke-linecap="round" stroke-linejoin="round"/>
<path d="M97.4199 387.436C180.851 462.569 309.868 461.801 393.396 387.436" stroke="#F64C70" stroke-width="0.6" stroke-linecap="round" stroke-linejoin="round"/>
<path d="M99.1035 389.191C181.138 465.321 309.575 464.537 391.707 389.191" stroke="#F64C70" stroke-width="0.6" stroke-linecap="round" stroke-linejoin="round"/>
<path d="M100.811 390.922C181.44 468.04 309.265 467.239 389.992 390.922" stroke="#F64C70" stroke-width="0.6" stroke-linecap="round" stroke-linejoin="round"/>
</g>
<defs>
<clipPath id="clip0_430_1444">
<rect width="409.142" height="407.223" fill="white" transform="translate(40.834 41.6504)"/>
</clipPath>
</defs>
</svg>
