<svg width="40" height="40" viewBox="0 0 40 40" fill="none" xmlns="http://www.w3.org/2000/svg">
<g id="vuesax/bold/global">
<g id="vuesax/linear/global">
<g id="global">
<path id="Vector" d="M20.0011 36.6661C29.2059 36.6661 36.6678 29.2042 36.6678 19.9994C36.6678 10.7947 29.2059 3.33276 20.0011 3.33276C10.7964 3.33276 3.33447 10.7947 3.33447 19.9994C3.33447 29.2042 10.7964 36.6661 20.0011 36.6661Z" stroke="white" stroke-width="1.5" stroke-linecap="round" stroke-linejoin="round"/>
<path id="Vector_2" d="M13.3328 5H14.9995C11.7495 14.7333 11.7495 25.2667 14.9995 35H13.3328" stroke="white" stroke-width="1.5" stroke-linecap="round" stroke-linejoin="round"/>
<path id="Vector_3" d="M25 5C28.25 14.7333 28.25 25.2667 25 35" stroke="white" stroke-width="1.5" stroke-linecap="round" stroke-linejoin="round"/>
<path id="Vector_4" d="M5 26.6667V25C14.7333 28.25 25.2667 28.25 35 25V26.6667" stroke="white" stroke-width="1.5" stroke-linecap="round" stroke-linejoin="round"/>
<path id="Vector_5" d="M5 14.9993C14.7333 11.7493 25.2667 11.7493 35 14.9993" stroke="white" stroke-width="1.5" stroke-linecap="round" stroke-linejoin="round"/>
</g>
</g>
</g>
</svg>
