<svg width="14" height="14" viewBox="0 0 14 14" fill="none" xmlns="http://www.w3.org/2000/svg">
<path d="M4.66723 7.0023C4.66723 5.71326 5.71161 4.66801 7.00028 4.66801C8.28895 4.66801 9.33389 5.71326 9.33389 7.0023C9.33389 8.29134 8.28895 9.33659 7.00028 9.33659C5.71161 9.33659 4.66723 8.29134 4.66723 7.0023ZM3.40572 7.0023C3.40572 8.98815 5.015 10.5979 7.00028 10.5979C8.98556 10.5979 10.5948 8.98815 10.5948 7.0023C10.5948 5.01645 8.98556 3.4067 7.00028 3.4067C5.015 3.4067 3.40572 5.01645 3.40572 7.0023ZM9.89711 3.26414C9.89704 3.43033 9.94624 3.59281 10.0385 3.73103C10.1307 3.86925 10.2619 3.977 10.4154 4.04066C10.5688 4.10432 10.7377 4.12103 10.9007 4.08867C11.0637 4.05631 11.2134 3.97634 11.3309 3.85888C11.4484 3.74141 11.5285 3.59172 11.561 3.42873C11.5934 3.26575 11.5769 3.09679 11.5134 2.94322C11.4498 2.78966 11.3422 2.65838 11.2041 2.566C11.066 2.47361 10.9036 2.42426 10.7375 2.4242H10.7371C10.5144 2.4243 10.3009 2.51282 10.1434 2.6703C9.98588 2.82779 9.8973 3.04137 9.89711 3.26414ZM4.17217 12.702C3.48967 12.6709 3.11871 12.5572 2.87219 12.4611C2.54536 12.3339 2.31216 12.1823 2.06699 11.9374C1.82181 11.6924 1.67004 11.4594 1.54337 11.1325C1.44727 10.886 1.33358 10.5148 1.30256 9.83213C1.26862 9.09403 1.26184 8.87231 1.26184 7.00236C1.26184 5.13241 1.26918 4.9113 1.30256 4.17259C1.33364 3.48989 1.44816 3.11944 1.54337 2.87223C1.6706 2.54531 1.82214 2.31205 2.06699 2.0668C2.31183 1.82155 2.5448 1.66974 2.87219 1.54303C3.1186 1.4469 3.48967 1.33318 4.17217 1.30215C4.91005 1.2682 5.13171 1.26142 7.00028 1.26142C8.86885 1.26142 9.09073 1.26876 9.82923 1.30215C10.5117 1.33324 10.8821 1.4478 11.1292 1.54303C11.456 1.66974 11.6892 1.82189 11.9344 2.0668C12.1796 2.31171 12.3308 2.54531 12.458 2.87223C12.5541 3.11871 12.6678 3.48989 12.6988 4.17259C12.7328 4.9113 12.7396 5.13241 12.7396 7.00236C12.7396 8.87231 12.7328 9.09341 12.6988 9.83213C12.6678 10.5148 12.5535 10.8859 12.458 11.1325C12.3308 11.4594 12.1793 11.6927 11.9344 11.9374C11.6896 12.182 11.456 12.3339 11.1292 12.4611C10.8828 12.5573 10.5117 12.671 9.82923 12.702C9.09135 12.736 8.86969 12.7427 7.00028 12.7427C5.13087 12.7427 4.90983 12.736 4.17217 12.702ZM4.1142 0.0424059C3.36898 0.0763531 2.85975 0.194552 2.41504 0.367649C1.95448 0.546404 1.56459 0.786218 1.17498 1.17532C0.785375 1.56443 0.546246 1.95504 0.367543 2.41574C0.194496 2.86086 0.0763311 3.36996 0.0423937 4.11539C0.00789632 4.86201 0 5.1007 0 7.0023C0 8.9039 0.00789632 9.1426 0.0423937 9.88921C0.0763311 10.6347 0.194496 11.1437 0.367543 11.5889C0.546246 12.0493 0.785431 12.4403 1.17498 12.8293C1.56453 13.2182 1.95448 13.4577 2.41504 13.637C2.86059 13.8101 3.36898 13.9283 4.1142 13.9622C4.86099 13.9961 5.09923 14.0046 7.00028 14.0046C8.90133 14.0046 9.13996 13.9967 9.88636 13.9622C10.6316 13.9283 11.1405 13.8101 11.5855 13.637C12.0458 13.4577 12.436 13.2184 12.8256 12.8293C13.2152 12.4402 13.4538 12.0493 13.633 11.5889C13.8061 11.1437 13.9248 10.6346 13.9582 9.88921C13.9921 9.14204 14 8.9039 14 7.0023C14 5.1007 13.9921 4.86201 13.9582 4.11539C13.9242 3.3699 13.8061 2.86058 13.633 2.41574C13.4538 1.95532 13.2146 1.56504 12.8256 1.17532C12.4366 0.785602 12.0458 0.546404 11.5861 0.367649C11.1405 0.194552 10.6316 0.0757929 9.88692 0.0424059C9.14052 0.00845878 8.90189 0 7.00084 0C5.09979 0 4.86099 0.0078986 4.1142 0.0424059Z" fill="white"/>
</svg>
