<svg width="24" height="24" viewBox="0 0 24 24" fill="none" xmlns="http://www.w3.org/2000/svg">
<g id="Group 1437253664">
<path id="Vector" d="M10.1992 21.4782V2.51979C10.1992 0.719941 9.43922 0 7.51938 0H2.67978C0.759938 0 0 0.719941 0 2.51979V21.4782C0 23.2781 0.759938 23.998 2.67978 23.998H7.51938C9.43922 23.998 10.1992 23.2781 10.1992 21.4782Z" fill="#F64C70"/>
<path id="Vector_2" d="M23.9999 21.4782V2.51979C23.9999 0.719941 23.24 0 21.3202 0H16.4806C14.5741 0 13.8008 0.719941 13.8008 2.51979V21.4782C13.8008 23.2781 14.5607 23.998 16.4806 23.998H21.3202C23.24 23.998 23.9999 23.2781 23.9999 21.4782Z" fill="#F64C70"/>
</g>
</svg>
