<svg width="40" height="40" viewBox="0 0 40 40" fill="none" xmlns="http://www.w3.org/2000/svg">
<g id="vuesax/bold/personalcard">
<g id="vuesax/linear/personalcard">
<g id="personalcard">
<path id="Vector" d="M28.3335 35H11.6668C5.00016 35 3.3335 33.3333 3.3335 26.6667V13.3333C3.3335 6.66667 5.00016 5 11.6668 5H28.3335C35.0002 5 36.6668 6.66667 36.6668 13.3333V26.6667C36.6668 33.3333 35.0002 35 28.3335 35Z" stroke="white" stroke-width="1.5" stroke-linecap="round" stroke-linejoin="round"/>
<path id="Vector_2" d="M23.3335 13.3333H31.6668" stroke="white" stroke-width="1.5" stroke-linecap="round" stroke-linejoin="round"/>
<path id="Vector_3" d="M25 20H31.6667" stroke="white" stroke-width="1.5" stroke-linecap="round" stroke-linejoin="round"/>
<path id="Vector_4" d="M28.3335 26.6667H31.6668" stroke="white" stroke-width="1.5" stroke-linecap="round" stroke-linejoin="round"/>
<path id="Vector_5" d="M14.1666 18.8165C15.8326 18.8165 17.1832 17.4659 17.1832 15.7999C17.1832 14.1338 15.8326 12.7832 14.1666 12.7832C12.5005 12.7832 11.1499 14.1338 11.1499 15.7999C11.1499 17.4659 12.5005 18.8165 14.1666 18.8165Z" stroke="white" stroke-width="1.5" stroke-linecap="round" stroke-linejoin="round"/>
<path id="Vector_6" d="M20.0002 27.2167C19.7668 24.8 17.8502 22.9 15.4335 22.6833C14.6002 22.6 13.7502 22.6 12.9002 22.6833C10.4835 22.9167 8.56683 24.8 8.3335 27.2167" stroke="white" stroke-width="1.5" stroke-linecap="round" stroke-linejoin="round"/>
</g>
</g>
</g>
</svg>
