<svg width="18" height="18" viewBox="0 0 18 18" fill="none" xmlns="http://www.w3.org/2000/svg">
<g clip-path="url(#clip0_108_1816)">
<path d="M14.49 6.59965L2.6 13.7696C1.9 14.1896 1 13.6896 1 12.8696V4.86965C1 1.37965 4.77 -0.800353 7.8 0.939647L12.39 3.57965L14.48 4.77965C15.17 5.18965 15.18 6.18965 14.49 6.59965Z" fill="#F64C70"/>
<path d="M15.0908 12.4606L11.0408 14.8006L7.00079 17.1306C5.55079 17.9606 3.91079 17.7906 2.72079 16.9506C2.14079 16.5506 2.21079 15.6606 2.82079 15.3006L15.5308 7.68063C16.1308 7.32063 16.9208 7.66063 17.0308 8.35063C17.2808 9.90063 16.6408 11.5706 15.0908 12.4606Z" fill="#F64C70"/>
</g>
<defs>
<clipPath id="clip0_108_1816">
<rect width="18" height="18" fill="white"/>
</clipPath>
</defs>
</svg>
