<svg width="365" height="321" viewBox="0 0 365 321" fill="none" xmlns="http://www.w3.org/2000/svg">
<path d="M82.8342 17.2986L86.7905 10.4353L87.2237 10.685L89.2018 7.25329C90.1838 5.54973 92.0005 4.5 93.9669 4.5H97.889V4H105.733V4.5H113.578V4H121.422V4.5H129.266V4H137.111V4.5H144.955V4H152.8V4.5H160.644V4H168.488V4.5H176.333V4H184.177V4.5H192.021V4H199.866V4.5H207.71V4H215.554V4.5H223.399V4H231.243V4.5H239.087V4H246.932V4.5H254.776V4H262.621V4.5H266.543C268.504 4.5 270.317 5.54476 271.301 7.24191L273.29 10.6734L273.723 10.4226L277.701 17.2856L277.268 17.5364L281.246 24.3993L281.678 24.1486L285.656 31.0116L285.224 31.2623L289.202 38.1253L289.634 37.8745L293.612 44.7375L293.18 44.9883L297.158 51.8512L297.59 51.6005L301.568 58.4635L301.135 58.7142L305.113 65.5772L305.546 65.3265L309.524 72.1895L309.091 72.4402L313.069 79.3032L313.502 79.0524L317.48 85.9154L317.047 86.1662L321.025 93.0291L321.458 92.7784L325.435 99.6414L325.003 99.8921L328.981 106.755L329.413 106.504L333.391 113.367L332.959 113.618L336.937 120.481L337.369 120.23L341.347 127.093L340.914 127.344L344.892 134.207L345.325 133.956L349.303 140.819L348.87 141.07L352.848 147.933L353.281 147.682L357.259 154.545L356.826 154.796L358.815 158.227C359.808 159.94 359.803 162.055 358.803 163.763L356.815 167.162L357.246 167.414L353.269 174.21L352.838 173.958L348.861 180.754L349.292 181.006L345.315 187.802L344.883 187.55L340.906 194.346L341.338 194.599L337.361 201.395L336.929 201.142L332.952 207.938L333.384 208.191L329.406 214.987L328.975 214.734L324.998 221.53L325.429 221.783L321.452 228.579L321.021 228.327L317.043 235.123L317.475 235.375L313.498 242.171L313.066 241.919L309.089 248.715L309.521 248.967L305.544 255.764L305.112 255.511L301.135 262.307L301.566 262.56L297.589 269.356L297.158 269.103L293.181 275.899L293.612 276.152L289.635 282.948L289.203 282.695L285.226 289.492L285.658 289.744L281.681 296.54L281.249 296.288L277.272 303.084L277.704 303.336L273.726 310.132L273.295 309.88L271.306 313.278C270.32 314.964 268.513 316 266.559 316H262.625V316.5H254.757V316H246.889V316.5H239.021V316H231.153V316.5H223.285V316H215.416V316.5H207.548V316H199.68V316.5H191.812V316H183.944V316.5H176.076V316H168.207V316.5H160.339V316H152.471V316.5H144.603V316H136.735V316.5H128.867V316H120.998V316.5H113.13V316H105.262V316.5H97.3939V316H93.4598C91.497 316 89.6829 314.954 88.6996 313.255L86.733 309.857L86.3003 310.108L82.367 303.312L82.7998 303.061L78.8666 296.266L78.4338 296.516L74.5006 289.72L74.9333 289.47L71.0001 282.674L70.5674 282.925L66.6342 276.129L67.0669 275.879L63.1337 269.083L62.701 269.333L58.7677 262.538L59.2005 262.287L55.2673 255.491L54.8345 255.742L50.9013 248.946L51.334 248.696L47.4008 241.9L46.9681 242.15L43.0348 235.355L43.4676 235.104L39.5344 228.308L39.1016 228.559L35.1684 221.763L35.6012 221.513L31.6679 214.717L31.2352 214.967L27.302 208.172L27.7347 207.921L23.8015 201.126L23.3687 201.376L19.4355 194.58L19.8683 194.33L15.935 187.534L15.5023 187.785L11.5691 180.989L12.0018 180.738L8.06861 173.943L7.63586 174.193L3.70264 167.397L4.13539 167.147L2.16878 163.749C1.1841 162.048 1.18225 159.95 2.16393 158.247L4.14206 154.816L3.70887 154.566L7.66514 147.702L8.09832 147.952L12.0546 141.089L11.6214 140.839L15.5777 133.976L16.0109 134.225L19.9671 127.362L19.5339 127.112L23.4902 120.249L23.9234 120.499L27.8797 113.635L27.4465 113.386L31.4028 106.522L31.8359 106.772L35.7922 99.9086L35.359 99.6589L39.3153 92.7956L39.7485 93.0453L43.7047 86.1819L43.2716 85.9322L47.2278 79.0689L47.661 79.3186L51.6173 72.4552L51.1841 72.2055L55.1404 65.3421L55.5735 65.5918L59.5298 58.7285L59.0966 58.4788L63.0529 51.6154L63.4861 51.8651L67.4423 45.0018L67.0092 44.7521L70.9654 37.8887L71.3986 38.1384L75.3549 31.275L74.9217 31.0253L78.878 24.162L79.3111 24.4117L83.2674 17.5483L82.8342 17.2986Z" stroke="#B5B5B5" stroke-dasharray="8 8"/>
<path d="M90.9368 24.0119C94.5077 17.8172 101.114 14 108.264 14H253.196C260.329 14 266.922 17.7991 270.499 23.9706L344.055 150.874C347.665 157.103 347.649 164.792 344.013 171.005L270.513 296.602C266.925 302.732 260.355 306.5 253.251 306.5H107.773C100.635 306.5 94.0384 302.696 90.4629 296.519L17.7867 170.95C14.2061 164.764 14.1994 157.136 17.7692 150.944L90.9368 24.0119Z" fill="#202020"/>
<rect x="264" y="315.243" width="8" height="8" rx="4" transform="rotate(-45 264 315.243)" fill="#F64C70"/>
<rect x="85" y="315.243" width="8" height="8" rx="4" transform="rotate(-45 85 315.243)" fill="#F64C70"/>
<rect x="264" y="5.65674" width="8" height="8" rx="4" transform="rotate(-45 264 5.65674)" fill="#F64C70"/>
<rect x="85" y="5.65674" width="8" height="8" rx="4" transform="rotate(-45 85 5.65674)" fill="#F64C70"/>
<rect x="353" y="161" width="8" height="8" rx="4" transform="rotate(-45 353 161)" fill="#F64C70"/>
<path d="M266.75 185.375V133.625C266.75 90.4995 249.5 73.2495 206.375 73.2495H154.625C111.5 73.2495 94.2495 90.4995 94.2495 133.625V185.375C94.2495 228.5 111.5 245.75 154.625 245.75H206.375C249.5 245.75 266.75 228.5 266.75 185.375Z" stroke="#111212" stroke-width="1.5" stroke-linecap="round" stroke-linejoin="round"/>
<path d="M98.7354 203.573H262.265" stroke="#111212" stroke-width="1.5" stroke-linecap="round" stroke-linejoin="round"/>
<path d="M98.7354 117.322H262.265" stroke="#111212" stroke-width="1.5" stroke-linecap="round" stroke-linejoin="round"/>
<path d="M137.118 203.573V241.091" stroke="#111212" stroke-width="1.5" stroke-linecap="round" stroke-linejoin="round"/>
<path d="M180.5 203.573V245.49" stroke="#111212" stroke-width="1.5" stroke-linecap="round" stroke-linejoin="round"/>
<path d="M223.368 203.573V241.609" stroke="#111212" stroke-width="1.5" stroke-linecap="round" stroke-linejoin="round"/>
<path d="M137.118 74.1978V111.717" stroke="#111212" stroke-width="1.5" stroke-linecap="round" stroke-linejoin="round"/>
<path d="M180.5 74.1978V116.115" stroke="#111212" stroke-width="1.5" stroke-linecap="round" stroke-linejoin="round"/>
<path d="M180.5 116.632V211.507" stroke="#111212" stroke-width="1.5" stroke-linecap="round" stroke-linejoin="round"/>
<path d="M223.368 74.1978V112.234" stroke="#111212" stroke-width="1.5" stroke-linecap="round" stroke-linejoin="round"/>
</svg>
