<svg width="14" height="12" viewBox="0 0 14 12" fill="none" xmlns="http://www.w3.org/2000/svg">
<path d="M0.858316 5.17382C0.858316 5.17382 7.05018 2.56591 9.19762 1.6476C10.0208 1.28031 12.8125 0.104871 12.8125 0.104871C12.8125 0.104871 14.101 -0.409339 13.9936 0.839508C13.9578 1.35377 13.6715 3.15358 13.3852 5.10036C12.9557 7.85524 12.4904 10.8672 12.4904 10.8672C12.4904 10.8672 12.4188 11.712 11.8104 11.859C11.202 12.0059 10.1998 11.3447 10.0208 11.1978C9.87764 11.0876 7.33649 9.43467 6.40593 8.62658C6.15538 8.4062 5.86907 7.96545 6.44169 7.45119C7.7302 6.23905 9.2692 4.73307 10.1998 3.77806C10.6293 3.33725 11.0587 2.30878 9.2692 3.55763C6.72806 5.35749 4.22268 7.04714 4.22268 7.04714C4.22268 7.04714 3.65001 7.41443 2.57629 7.08384C1.50252 6.7533 0.249829 6.3125 0.249829 6.3125C0.249829 6.3125 -0.609107 5.76154 0.858316 5.17382Z" fill="white"/>
</svg>
