<svg width="32" height="32" viewBox="0 0 32 32" fill="none" xmlns="http://www.w3.org/2000/svg">
<path d="M30.0401 17.8933L28.1068 15.96L29.9734 14.0933C30.3601 13.7067 30.3601 13.0667 29.9734 12.68C29.5868 12.2933 28.9468 12.2933 28.5601 12.68L26.6934 14.5467L24.7601 12.6133C24.3734 12.2267 23.7334 12.2267 23.3468 12.6133C22.9601 13 22.9601 13.64 23.3468 14.0267L25.2801 15.96L23.2934 17.9467C22.9068 18.3333 22.9068 18.9733 23.2934 19.36C23.4934 19.56 23.7468 19.6533 24.0001 19.6533C24.2534 19.6533 24.5068 19.56 24.7068 19.36L26.6934 17.3733L28.6268 19.3067C28.8268 19.5067 29.0801 19.6 29.3334 19.6C29.5868 19.6 29.8401 19.5067 30.0401 19.3067C30.4268 18.92 30.4268 18.2933 30.0401 17.8933Z" fill="white"/>
<path d="M18.6932 5.04C17.1998 4.21333 15.2932 4.42667 13.3465 5.64L9.45317 8.08C9.1865 8.24 8.87984 8.33333 8.57317 8.33333H7.33317H6.6665C3.43984 8.33333 1.6665 10.1067 1.6665 13.3333V18.6667C1.6665 21.8933 3.43984 23.6667 6.6665 23.6667H7.33317H8.57317C8.87984 23.6667 9.1865 23.76 9.45317 23.92L13.3465 26.36C14.5198 27.0933 15.6665 27.4533 16.7332 27.4533C17.4265 27.4533 18.0932 27.2933 18.6932 26.96C20.1732 26.1333 20.9998 24.4133 20.9998 22.12V9.88C20.9998 7.58667 20.1732 5.86667 18.6932 5.04Z" fill="white"/>
</svg>
