<svg width="14" height="14" viewBox="0 0 14 14" fill="none" xmlns="http://www.w3.org/2000/svg">
<path d="M0 14L1.00358 10.2685C0.194217 8.81484 -0.0629243 7.11859 0.279338 5.49097C0.621599 3.86334 1.54031 2.41353 2.86687 1.40757C4.19344 0.401614 5.83889 -0.0930154 7.50127 0.0144513C9.16365 0.121918 10.7315 0.824271 11.917 1.99263C13.1025 3.16099 13.8263 4.71698 13.9554 6.37507C14.0846 8.03317 13.6105 9.68215 12.6201 11.0194C11.6297 12.3567 10.1895 13.2926 8.56374 13.6553C6.93798 14.018 5.23572 13.7833 3.76934 12.9941L0 14ZM3.95109 11.5978L4.1842 11.7358C5.24633 12.3643 6.48689 12.6244 7.71254 12.4756C8.9382 12.3267 10.0801 11.7772 10.9603 10.9128C11.8405 10.0484 12.4096 8.91758 12.5788 7.69657C12.748 6.47556 12.508 5.23295 11.8959 4.16239C11.2839 3.09183 10.3344 2.25345 9.19528 1.77791C8.05617 1.30236 6.79149 1.21636 5.59831 1.53331C4.40513 1.85026 3.35049 2.55235 2.59872 3.53018C1.84696 4.508 1.44031 5.70663 1.44215 6.93927C1.44115 7.96134 1.72428 8.96362 2.26002 9.83457L2.40621 10.0752L1.84516 12.1579L3.95109 11.5978Z" fill="white"/>
<path fill-rule="evenodd" clip-rule="evenodd" d="M9.6091 7.89769C9.47244 7.78765 9.31243 7.7102 9.14126 7.67124C8.97008 7.63227 8.79226 7.63283 8.62133 7.67285C8.36451 7.77936 8.19856 8.1817 8.03262 8.38287C7.99762 8.43109 7.9462 8.46492 7.88801 8.47799C7.82981 8.49106 7.76884 8.48249 7.71653 8.45387C6.7763 8.08622 5.98819 7.41202 5.48021 6.54077C5.43689 6.4864 5.41638 6.41737 5.42301 6.34821C5.42965 6.27905 5.4629 6.21516 5.51577 6.16998C5.70086 5.98706 5.83675 5.7605 5.91088 5.51125C5.92734 5.23632 5.86425 4.96246 5.72913 4.72234C5.62467 4.38569 5.42587 4.08594 5.15622 3.85848C5.01715 3.79604 4.86294 3.7751 4.71221 3.79819C4.56147 3.82129 4.42066 3.88744 4.30674 3.98865C4.10898 4.159 3.952 4.37146 3.84738 4.61039C3.74276 4.84932 3.69316 5.10864 3.70222 5.36924C3.70283 5.51559 3.72141 5.66131 3.75754 5.80314C3.84929 6.14391 3.99038 6.46948 4.17635 6.76955C4.31053 6.99941 4.45693 7.22194 4.61493 7.43618C5.12839 8.13988 5.77382 8.73736 6.5154 9.19544C6.88753 9.42823 7.28525 9.6175 7.70072 9.75951C8.13231 9.95483 8.60882 10.0298 9.07965 9.97646C9.34792 9.93593 9.60209 9.83018 9.81981 9.66854C10.0375 9.5069 10.2121 9.29432 10.3282 9.0495C10.3964 8.9016 10.4171 8.73626 10.3875 8.57615C10.3163 8.24875 9.87777 8.05547 9.6091 7.89769Z" fill="white"/>
</svg>
